<svg xmlns="http://www.w3.org/2000/svg" xmlns:xlink="http://www.w3.org/1999/xlink" width="500" zoomAndPan="magnify" viewBox="0 0 375 374.999991" height="500" preserveAspectRatio="xMidYMid meet" version="1.0"><defs><g/></defs><rect x="-37.5" width="450" fill="#ffffff" y="-37.499999" height="449.999989" fill-opacity="1"/><rect x="-37.5" width="450" fill="#ffffff" y="-37.499999" height="449.999989" fill-opacity="1"/><path fill="#003d5b" d="M 187.5 -0.015625 C 84.097656 -0.015625 -0.015625 84.097656 -0.015625 187.5 C -0.015625 290.902344 84.097656 375.015625 187.5 375.015625 C 290.902344 375.015625 375.015625 290.902344 375.015625 187.5 C 375.015625 84.097656 290.902344 -0.015625 187.5 -0.015625 Z M 364.011719 166.769531 C 364.480469 170.78125 364.824219 174.832031 365.019531 178.917969 C 360.671875 175.347656 355.167969 173.5625 349.765625 174.054688 C 344.402344 174.488281 339.53125 176.503906 335.675781 179.613281 C 335.519531 176.675781 335.273438 173.761719 334.945312 170.863281 C 338.6875 172.941406 343.050781 174.128906 347.652344 174.128906 C 348.40625 174.128906 349.167969 174.089844 349.929688 174.03125 C 355.339844 173.589844 360.386719 170.96875 364.011719 166.769531 Z M 363.09375 187.5 C 362.613281 188.171875 362.078125 188.800781 361.480469 189.398438 C 358.460938 192.429688 354.398438 193.910156 350.347656 193.632812 C 345.367188 193.230469 340.996094 190.921875 338.046875 187.507812 C 340.996094 184.085938 345.367188 181.785156 350.363281 181.382812 C 354.390625 181.105469 358.46875 182.59375 361.480469 185.617188 C 362.078125 186.214844 362.613281 186.84375 363.09375 187.515625 Z M 335.976562 162.675781 C 338.351562 158.917969 342.371094 155.863281 347.203125 154.632812 C 351.035156 153.699219 354.964844 154.355469 358.257812 156.582031 C 359.125 157.171875 359.917969 157.859375 360.65625 158.621094 C 360.238281 159.488281 359.746094 160.324219 359.171875 161.101562 C 356.726562 164.417969 353.238281 166.398438 349.324219 166.71875 C 344.34375 167.152344 339.496094 165.546875 335.96875 162.667969 Z M 358.222656 138.070312 C 359.335938 141.917969 360.320312 145.824219 361.179688 149.769531 C 356.390625 146.953125 350.863281 146.175781 345.402344 147.527344 C 340.226562 148.835938 335.707031 151.710938 332.375 155.429688 C 331.726562 152.496094 331 149.589844 330.179688 146.726562 C 333.046875 147.804688 336.050781 148.363281 339.039062 148.363281 C 341.199219 148.363281 343.355469 148.066406 345.449219 147.496094 C 350.789062 146.035156 355.308594 142.679688 358.230469 138.0625 Z M 352.851562 132.675781 C 351.042969 136.472656 347.644531 139.28125 343.484375 140.421875 C 338.441406 141.835938 334.085938 140.585938 331.253906 139.234375 C 330.828125 139.042969 330.375 138.832031 329.917969 138.585938 C 331.636719 134.410156 335.078125 130.785156 339.6875 128.761719 C 343.265625 127.179688 347.480469 127.3125 351.199219 129.105469 C 352.035156 129.507812 352.820312 129.996094 353.5625 130.539062 C 353.367188 131.273438 353.136719 131.996094 352.84375 132.667969 Z M 347.6875 110.558594 C 349.445312 114.21875 351.082031 117.945312 352.597656 121.734375 C 347.367188 119.769531 341.675781 119.886719 336.738281 122.054688 C 331.777344 124.226562 327.78125 127.777344 325.105469 132.027344 C 324 129.292969 322.820312 126.597656 321.558594 123.953125 C 323.03125 124.226562 324.53125 124.363281 326.054688 124.363281 C 329.566406 124.363281 333.175781 123.628906 336.617188 122.113281 C 341.644531 119.910156 345.589844 115.765625 347.695312 110.566406 Z M 187.492188 326.101562 C 111.074219 326.101562 48.898438 263.925781 48.898438 187.507812 C 48.898438 111.089844 111.074219 48.914062 187.492188 48.914062 C 263.910156 48.914062 326.085938 111.089844 326.085938 187.507812 C 326.085938 263.925781 263.910156 326.101562 187.492188 326.101562 Z M 323.777344 276.535156 C 319.289062 273.609375 314.164062 272.226562 309.179688 272.308594 C 310.863281 269.894531 312.488281 267.429688 314.027344 264.914062 C 315.941406 269.484375 319.257812 273.578125 323.769531 276.535156 Z M 65.789062 272.292969 C 60.8125 272.21875 55.691406 273.601562 51.199219 276.535156 C 55.710938 273.578125 59.035156 269.484375 60.941406 264.914062 C 62.480469 267.429688 64.101562 269.886719 65.78125 272.292969 Z M 341.898438 103.960938 C 341.789062 104.785156 341.617188 105.605469 341.371094 106.425781 C 340.160156 110.503906 337.34375 113.761719 333.644531 115.390625 C 329.050781 117.414062 324.097656 117.476562 319.878906 115.882812 C 320.847656 111.476562 323.597656 107.367188 327.8125 104.613281 C 331.1875 102.386719 335.484375 101.796875 339.53125 103.027344 C 340.359375 103.273438 341.144531 103.601562 341.90625 103.960938 Z M 332.800781 85.285156 C 335.132812 88.601562 337.367188 91.988281 339.480469 95.460938 C 333.996094 94.398438 328.371094 95.445312 323.777344 98.472656 C 319.257812 101.429688 315.941406 105.523438 314.027344 110.09375 C 312.476562 107.578125 310.867188 105.113281 309.179688 102.707031 C 309.308594 102.707031 309.441406 102.714844 309.570312 102.714844 C 314.460938 102.714844 319.46875 101.300781 323.875 98.410156 C 328.417969 95.445312 331.597656 90.71875 332.792969 85.285156 Z M 325.980469 79.675781 C 326.019531 80.585938 325.988281 81.492188 325.875 82.402344 C 325.339844 86.527344 323.148438 90.121094 319.863281 92.261719 C 315.664062 95.019531 310.75 95.917969 306.3125 95.078125 C 306.355469 94.519531 306.417969 93.988281 306.5 93.496094 C 307.074219 89.261719 309.089844 85.449219 312.183594 82.703125 C 315.417969 79.824219 319.453125 78.554688 323.671875 79.078125 C 324.449219 79.207031 325.21875 79.421875 325.980469 79.675781 Z M 314.015625 62.816406 C 316.835938 65.675781 319.550781 68.613281 322.164062 71.652344 C 316.753906 71.609375 311.4375 73.535156 307.304688 77.203125 C 303.398438 80.65625 300.703125 85.308594 299.597656 90.394531 C 297.632812 88.132812 295.601562 85.929688 293.507812 83.792969 C 298.460938 83.039062 303.347656 80.828125 307.269531 77.210938 C 311.371094 73.417969 313.738281 68.34375 314.015625 62.808594 Z M 306.34375 58.429688 C 306.566406 59.433594 306.699219 60.457031 306.714844 61.480469 C 306.78125 65.46875 305.207031 69.136719 302.308594 71.816406 C 298.648438 75.203125 293.890625 76.898438 289.429688 76.816406 C 288.972656 72.3125 290.273438 67.367188 293.34375 63.4375 C 295.75 60.34375 299.304688 58.511719 303.332031 58.265625 C 304.332031 58.214844 305.347656 58.273438 306.355469 58.417969 Z M 287.449219 59.050781 C 290.839844 54.695312 292.359375 49.183594 291.761719 43.664062 C 295.03125 46.039062 298.214844 48.519531 301.308594 51.109375 C 295.800781 51.828125 290.953125 54.570312 287.554688 58.9375 C 284.230469 63.183594 282.394531 68.21875 282.035156 73.214844 C 279.769531 71.332031 277.433594 69.53125 275.058594 67.777344 C 279.777344 66.246094 284.15625 63.285156 287.457031 59.042969 Z M 283.5 40.519531 C 283.835938 41.371094 284.097656 42.25 284.28125 43.15625 C 285.097656 47.21875 284.140625 51.378906 281.667969 54.546875 C 278.636719 58.429688 274.242188 60.84375 269.789062 61.464844 C 268.519531 57.117188 268.992188 52.238281 271.398438 47.832031 C 273.511719 44.125 276.96875 41.644531 281.191406 40.839844 C 281.953125 40.667969 282.730469 40.570312 283.5 40.53125 Z M 265.03125 44.199219 C 267.609375 39.1875 268.15625 33.644531 266.667969 28.410156 C 270.3125 30.230469 273.871094 32.167969 277.367188 34.226562 C 272.152344 35.835938 267.832031 39.300781 265.023438 44.214844 C 265.023438 44.214844 265.023438 44.207031 265.03125 44.199219 Z M 264.980469 44.28125 C 262.378906 49.054688 261.371094 54.210938 261.863281 59.140625 C 259.355469 57.683594 256.792969 56.289062 254.199219 54.980469 C 258.59375 52.710938 262.378906 49.0625 264.980469 44.28125 Z M 258.019531 26.699219 C 258.421875 27.394531 258.792969 28.109375 259.085938 28.871094 C 260.664062 32.792969 260.460938 37.035156 258.554688 40.765625 C 256.136719 45.222656 252.273438 48.300781 247.917969 49.601562 C 246.019531 45.539062 245.667969 40.59375 247.296875 35.871094 C 248.621094 32.0625 251.578125 29 255.433594 27.460938 C 256.277344 27.125 257.144531 26.871094 258.03125 26.691406 Z M 239.433594 17.511719 C 243.316406 18.699219 247.148438 20.027344 250.914062 21.46875 C 245.953125 23.980469 242.160156 28.273438 240.359375 33.480469 C 238.609375 38.546875 238.511719 43.84375 239.796875 48.636719 C 237.0625 47.605469 234.292969 46.636719 231.484375 45.761719 C 235.441406 42.730469 238.640625 38.449219 240.402344 33.332031 C 242.203125 28.066406 241.859375 22.507812 239.441406 17.503906 Z M 227.742188 18.699219 C 228.628906 18.144531 229.578125 17.675781 230.566406 17.308594 C 231.253906 18.09375 231.871094 18.929688 232.386719 19.832031 C 234.351562 23.3125 234.726562 27.242188 233.464844 30.941406 C 231.835938 35.683594 228.445312 39.449219 224.453125 41.519531 C 221.953125 37.804688 220.742188 32.847656 221.5625 27.992188 C 222.207031 24.105469 224.402344 20.8125 227.75 18.691406 Z M 210.761719 11.28125 C 214.78125 11.808594 218.761719 12.46875 222.691406 13.265625 C 218.195312 16.515625 215.230469 21.261719 214.316406 26.773438 C 213.429688 32.0625 214.242188 37.359375 216.296875 41.921875 C 213.390625 41.347656 210.457031 40.855469 207.496094 40.457031 C 211.144531 36.753906 213.527344 31.972656 214.28125 26.796875 C 215.078125 21.296875 213.847656 15.875 210.753906 11.28125 Z M 199.988281 13.925781 C 200.632812 13.386719 201.3125 12.902344 202.015625 12.476562 C 202.613281 12.953125 203.179688 13.460938 203.671875 14.015625 C 206.464844 17.339844 207.640625 21.507812 207.035156 25.757812 C 206.4375 29.835938 204.300781 33.691406 201.082031 36.417969 C 200.730469 36.730469 200.332031 37.050781 199.90625 37.367188 C 196.890625 34.332031 194.8125 30 194.828125 24.621094 C 194.828125 20.59375 196.703125 16.695312 199.988281 13.917969 Z M 187.492188 9.761719 C 189.539062 9.761719 191.570312 9.808594 193.601562 9.875 C 189.6875 13.910156 187.484375 19.175781 187.492188 24.613281 C 187.476562 30.015625 189.105469 35.050781 191.914062 39.179688 C 190.441406 39.136719 188.972656 39.105469 187.492188 39.105469 C 186.011719 39.105469 184.535156 39.128906 183.070312 39.179688 C 185.886719 35.050781 187.507812 30.015625 187.492188 24.621094 C 187.5 19.175781 185.289062 13.902344 181.382812 9.875 C 183.414062 9.808594 185.445312 9.761719 187.492188 9.761719 Z M 171.265625 14.074219 C 171.769531 13.492188 172.359375 12.976562 172.984375 12.476562 C 173.6875 12.902344 174.359375 13.378906 174.996094 13.917969 C 178.28125 16.695312 180.15625 20.59375 180.15625 24.628906 C 180.179688 29.992188 178.09375 34.332031 175.085938 37.359375 C 174.636719 37.023438 174.21875 36.679688 173.84375 36.34375 C 170.699219 33.683594 168.554688 29.820312 167.957031 25.75 C 167.34375 21.492188 168.527344 17.332031 171.273438 14.066406 Z M 164.214844 11.28125 C 161.136719 15.851562 159.898438 21.28125 160.691406 26.796875 C 161.453125 31.996094 163.855469 36.796875 167.488281 40.457031 C 164.523438 40.855469 161.59375 41.347656 158.6875 41.921875 C 160.75 37.359375 161.554688 32.054688 160.667969 26.773438 C 159.75 21.261719 156.789062 16.515625 152.292969 13.265625 C 156.222656 12.46875 160.195312 11.808594 164.214844 11.28125 Z M 142.605469 19.832031 C 143.113281 18.929688 143.726562 18.09375 144.417969 17.308594 C 145.40625 17.675781 146.355469 18.136719 147.242188 18.691406 C 150.589844 20.804688 152.785156 24.105469 153.429688 27.992188 C 154.25 32.847656 153.039062 37.804688 150.53125 41.519531 C 146.535156 39.449219 143.15625 35.675781 141.519531 30.933594 C 140.257812 27.242188 140.640625 23.300781 142.597656 19.824219 Z M 135.558594 17.503906 C 133.140625 22.507812 132.789062 28.066406 134.597656 33.332031 C 136.359375 38.449219 139.5625 42.730469 143.515625 45.761719 C 140.707031 46.636719 137.941406 47.59375 135.203125 48.636719 C 136.492188 43.835938 136.390625 38.546875 134.640625 33.480469 C 132.839844 28.273438 129.039062 23.980469 124.085938 21.46875 C 127.851562 20.027344 131.675781 18.699219 135.566406 17.511719 Z M 115.9375 28.789062 C 116.21875 28.058594 116.578125 27.363281 116.960938 26.691406 C 117.847656 26.871094 118.714844 27.125 119.566406 27.460938 C 123.421875 29 126.378906 32.0625 127.703125 35.871094 C 129.335938 40.59375 128.980469 45.546875 127.074219 49.609375 C 122.71875 48.316406 118.863281 45.253906 116.480469 40.832031 C 114.53125 37.035156 114.324219 32.792969 115.929688 28.796875 Z M 108.332031 28.402344 C 106.84375 33.675781 107.40625 39.210938 110.003906 44.253906 C 112.582031 49.042969 116.382812 52.703125 120.785156 54.980469 C 118.191406 56.289062 115.628906 57.683594 113.121094 59.140625 C 113.605469 54.195312 112.597656 49.011719 109.960938 44.207031 C 107.179688 39.300781 102.832031 35.8125 97.632812 34.214844 C 101.117188 32.160156 104.6875 30.222656 108.324219 28.402344 Z M 90.71875 43.148438 C 90.902344 42.25 91.164062 41.371094 91.492188 40.519531 C 92.292969 40.5625 93.09375 40.667969 93.890625 40.839844 C 98.03125 41.625 101.480469 44.117188 103.558594 47.765625 C 105.992188 52.207031 106.472656 57.101562 105.214844 61.449219 C 100.75 60.820312 96.363281 58.410156 93.332031 54.53125 C 90.859375 51.363281 89.902344 47.203125 90.71875 43.140625 Z M 83.238281 43.65625 C 82.640625 49.175781 84.164062 54.6875 87.550781 59.042969 C 90.851562 63.285156 95.230469 66.238281 99.949219 67.777344 C 97.574219 69.523438 95.242188 71.332031 92.972656 73.207031 C 92.613281 68.210938 90.777344 63.175781 87.453125 58.925781 C 84.054688 54.5625 79.199219 51.820312 73.699219 51.101562 C 76.792969 48.511719 79.976562 46.03125 83.246094 43.65625 Z M 68.664062 58.410156 C 69.660156 58.273438 70.667969 58.222656 71.683594 58.273438 C 75.710938 58.519531 79.265625 60.351562 81.671875 63.445312 C 84.742188 67.378906 86.046875 72.3125 85.585938 76.824219 C 81.125 76.90625 76.359375 75.203125 72.707031 71.824219 C 69.800781 69.144531 68.238281 65.476562 68.300781 61.488281 C 68.320312 60.457031 68.449219 59.433594 68.671875 58.417969 Z M 60.992188 62.808594 C 61.269531 68.34375 63.628906 73.417969 67.738281 77.210938 C 71.660156 80.828125 76.539062 83.039062 81.5 83.792969 C 79.40625 85.9375 77.367188 88.132812 75.402344 90.402344 C 74.269531 85.265625 71.585938 80.640625 67.695312 77.203125 C 63.585938 73.566406 58.28125 71.59375 52.835938 71.652344 C 55.457031 68.613281 58.175781 65.664062 60.992188 62.816406 Z M 49.035156 79.632812 C 49.765625 79.398438 50.492188 79.207031 51.230469 79.09375 C 55.40625 78.519531 59.589844 79.804688 62.832031 82.695312 C 65.929688 85.4375 67.941406 89.253906 68.523438 93.585938 C 68.597656 94.054688 68.664062 94.542969 68.703125 95.066406 C 64.265625 95.910156 59.335938 95.011719 55.152344 92.25 C 51.871094 90.113281 49.675781 86.519531 49.144531 82.394531 C 49.019531 81.476562 48.996094 80.550781 49.035156 79.632812 Z M 42.207031 85.265625 C 43.410156 90.703125 46.582031 95.421875 51.125 98.390625 C 55.519531 101.28125 60.539062 102.699219 65.429688 102.699219 C 65.558594 102.699219 65.691406 102.699219 65.820312 102.691406 C 64.136719 105.105469 62.515625 107.5625 60.972656 110.078125 C 59.058594 105.507812 55.742188 101.40625 51.222656 98.457031 C 46.636719 95.453125 41.003906 94.386719 35.519531 95.453125 C 37.632812 91.980469 39.867188 88.582031 42.199219 85.277344 Z M 35.484375 103.003906 C 39.539062 101.789062 43.84375 102.386719 47.203125 104.589844 C 51.417969 107.339844 54.171875 111.453125 55.136719 115.863281 C 50.902344 117.46875 45.949219 117.414062 41.355469 115.359375 C 37.664062 113.738281 34.847656 110.476562 33.636719 106.398438 C 33.390625 105.582031 33.21875 104.761719 33.113281 103.9375 C 33.871094 103.566406 34.660156 103.238281 35.484375 103.003906 Z M 27.332031 110.542969 C 29.433594 115.742188 33.382812 119.886719 38.394531 122.070312 C 41.847656 123.601562 45.449219 124.339844 48.964844 124.339844 C 50.484375 124.339844 51.984375 124.199219 53.457031 123.929688 C 52.195312 126.574219 51.019531 129.269531 49.914062 132.003906 C 47.242188 127.761719 43.246094 124.207031 38.300781 122.046875 C 33.316406 119.851562 27.640625 119.753906 22.410156 121.71875 C 23.925781 117.929688 25.5625 114.195312 27.324219 110.542969 Z M 23.808594 129.097656 C 27.566406 127.289062 31.761719 127.1875 35.355469 128.769531 C 39.941406 130.773438 43.378906 134.410156 45.097656 138.578125 C 44.617188 138.839844 44.132812 139.078125 43.671875 139.273438 C 40.9375 140.574219 36.589844 141.835938 31.523438 140.402344 C 27.378906 139.273438 23.980469 136.457031 22.214844 132.765625 C 21.902344 132.050781 21.664062 131.300781 21.460938 130.53125 C 22.207031 129.988281 22.984375 129.496094 23.820312 129.097656 Z M 16.792969 138.078125 C 19.691406 142.65625 24.21875 146.027344 29.566406 147.496094 C 31.671875 148.066406 33.832031 148.363281 36.011719 148.363281 C 39 148.363281 41.996094 147.804688 44.835938 146.742188 C 44.019531 149.605469 43.289062 152.503906 42.640625 155.429688 C 39.300781 151.710938 34.78125 148.835938 29.597656 147.519531 C 24.1875 146.144531 18.636719 146.953125 13.835938 149.761719 C 14.695312 145.816406 15.679688 141.917969 16.792969 138.078125 Z M 39.039062 162.660156 C 35.519531 165.507812 30.6875 167.097656 25.683594 166.71875 C 21.789062 166.398438 18.300781 164.410156 15.851562 161.101562 C 15.277344 160.324219 14.789062 159.488281 14.371094 158.621094 C 15.105469 157.859375 15.902344 157.164062 16.769531 156.582031 C 20.09375 154.355469 24.039062 153.699219 27.8125 154.632812 C 32.644531 155.863281 36.671875 158.910156 39.046875 162.667969 Z M 11.011719 166.761719 C 14.640625 170.96875 19.683594 173.589844 25.085938 174.023438 C 25.847656 174.089844 26.617188 174.121094 27.363281 174.121094 C 31.972656 174.121094 36.335938 172.925781 40.085938 170.847656 C 39.761719 173.738281 39.515625 176.660156 39.359375 179.597656 C 35.492188 176.488281 30.628906 174.472656 25.277344 174.046875 C 19.855469 173.589844 14.351562 175.347656 10.003906 178.910156 C 10.203125 174.816406 10.546875 170.773438 11.011719 166.753906 Z M 36.976562 187.492188 C 34.027344 190.914062 29.65625 193.214844 24.660156 193.617188 C 20.609375 193.917969 16.554688 192.40625 13.542969 189.382812 C 12.945312 188.785156 12.414062 188.15625 11.929688 187.484375 C 12.414062 186.8125 12.945312 186.183594 13.542969 185.585938 C 16.570312 182.554688 20.648438 181.113281 24.679688 181.351562 C 29.65625 181.753906 34.027344 184.0625 36.976562 187.476562 Z M 11.011719 208.222656 C 10.546875 204.210938 10.203125 200.160156 10.003906 196.074219 C 13.886719 199.265625 18.675781 201.011719 23.566406 201.011719 C 24.121094 201.011719 24.695312 200.984375 25.257812 200.9375 C 30.621094 200.503906 35.492188 198.488281 39.351562 195.375 C 39.507812 198.308594 39.75 201.214844 40.078125 204.105469 C 35.722656 201.6875 30.515625 200.492188 25.09375 200.960938 C 19.683594 201.402344 14.640625 204.023438 11.011719 208.222656 Z M 39.046875 212.316406 C 36.671875 216.074219 32.652344 219.128906 27.820312 220.359375 C 24.015625 221.300781 20.058594 220.636719 16.769531 218.410156 C 15.902344 217.820312 15.105469 217.132812 14.371094 216.371094 C 14.789062 215.503906 15.277344 214.667969 15.851562 213.890625 C 18.300781 210.574219 21.789062 208.589844 25.703125 208.273438 C 30.648438 207.796875 35.503906 209.417969 39.054688 212.316406 Z M 16.800781 236.921875 C 15.6875 233.074219 14.707031 229.167969 13.84375 225.222656 C 17.105469 227.136719 20.707031 228.113281 24.398438 228.113281 C 26.136719 228.113281 27.878906 227.898438 29.625 227.464844 C 34.796875 226.15625 39.316406 223.28125 42.648438 219.5625 C 43.296875 222.496094 44.027344 225.394531 44.84375 228.25 C 39.898438 226.390625 34.535156 226.128906 29.582031 227.488281 C 24.242188 228.945312 19.722656 232.304688 16.800781 236.921875 Z M 22.171875 242.316406 C 23.980469 238.519531 27.378906 235.710938 31.539062 234.570312 C 36.542969 233.128906 40.929688 234.40625 43.773438 235.757812 C 44.199219 235.945312 44.648438 236.160156 45.105469 236.40625 C 43.386719 240.582031 39.949219 244.207031 35.339844 246.230469 C 31.785156 247.835938 27.566406 247.703125 23.828125 245.886719 C 22.992188 245.484375 22.207031 244.996094 21.460938 244.453125 C 21.65625 243.71875 21.886719 242.996094 22.179688 242.324219 Z M 27.339844 264.433594 C 25.578125 260.773438 23.941406 257.046875 22.425781 253.257812 C 24.90625 254.1875 27.496094 254.65625 30.050781 254.65625 C 32.890625 254.65625 35.691406 254.082031 38.292969 252.9375 C 43.257812 250.765625 47.25 247.214844 49.929688 242.964844 C 51.035156 245.699219 52.222656 248.390625 53.484375 251.046875 C 48.601562 250.160156 43.355469 250.710938 38.425781 252.878906 C 33.398438 255.082031 29.453125 259.226562 27.347656 264.425781 Z M 33.128906 271.03125 C 33.234375 270.203125 33.40625 269.386719 33.652344 268.566406 C 34.863281 264.488281 37.679688 261.230469 41.382812 259.601562 C 45.972656 257.578125 50.929688 257.511719 55.144531 259.109375 C 54.179688 263.515625 51.425781 267.625 47.210938 270.375 C 43.835938 272.605469 39.539062 273.191406 35.492188 271.964844 C 34.667969 271.71875 33.882812 271.390625 33.121094 271.03125 Z M 42.222656 289.707031 C 39.882812 286.390625 37.648438 282.992188 35.535156 279.515625 C 36.917969 279.777344 38.320312 279.921875 39.703125 279.921875 C 43.796875 279.921875 47.800781 278.777344 51.230469 276.527344 C 51.199219 276.542969 51.164062 276.566406 51.140625 276.582031 C 46.597656 279.546875 43.417969 284.269531 42.222656 289.707031 Z M 49.042969 295.316406 C 49.003906 294.40625 49.035156 293.5 49.152344 292.589844 C 49.683594 288.464844 51.878906 284.867188 55.160156 282.730469 C 59.363281 279.972656 64.273438 279.070312 68.710938 279.914062 C 68.671875 280.464844 68.605469 280.996094 68.523438 281.496094 C 67.949219 285.730469 65.9375 289.542969 62.839844 292.285156 C 59.605469 295.167969 55.53125 296.4375 51.355469 295.914062 C 50.574219 295.785156 49.804688 295.570312 49.042969 295.316406 Z M 61.007812 312.175781 C 58.199219 309.324219 55.480469 306.378906 52.859375 303.347656 C 52.933594 303.347656 53.015625 303.347656 53.089844 303.347656 C 58.429688 303.347656 63.636719 301.382812 67.714844 297.78125 C 71.617188 294.324219 74.3125 289.675781 75.417969 284.589844 C 77.382812 286.851562 79.414062 289.054688 81.507812 291.191406 C 76.554688 291.941406 71.667969 294.152344 67.746094 297.773438 C 63.644531 301.5625 61.277344 306.640625 61 312.175781 Z M 68.679688 316.5625 C 68.457031 315.558594 68.328125 314.535156 68.3125 313.511719 C 68.246094 309.523438 69.816406 305.855469 72.714844 303.175781 C 76.367188 299.796875 81.132812 298.101562 85.59375 298.175781 C 86.046875 302.675781 84.75 307.613281 81.679688 311.542969 C 79.273438 314.640625 75.71875 316.472656 71.691406 316.71875 C 70.675781 316.761719 69.667969 316.710938 68.671875 316.5625 Z M 87.578125 315.941406 C 84.1875 320.296875 82.664062 325.808594 83.261719 331.328125 C 79.996094 328.953125 76.808594 326.472656 73.714844 323.882812 C 79.226562 323.164062 84.070312 320.421875 87.46875 316.054688 C 90.792969 311.808594 92.628906 306.769531 92.988281 301.777344 C 95.257812 303.652344 97.582031 305.460938 99.957031 307.207031 C 95.242188 308.746094 90.867188 311.707031 87.566406 315.949219 Z M 91.523438 334.480469 C 91.1875 333.628906 90.925781 332.75 90.746094 331.835938 C 89.925781 327.773438 90.882812 323.613281 93.355469 320.445312 C 96.386719 316.5625 100.785156 314.148438 105.238281 313.527344 C 106.507812 317.875 106.03125 322.753906 103.625 327.160156 C 101.511719 330.867188 98.058594 333.347656 93.832031 334.152344 C 93.070312 334.324219 92.300781 334.429688 91.523438 334.46875 Z M 109.996094 330.792969 C 107.414062 335.804688 106.867188 341.347656 108.355469 346.582031 C 104.714844 344.761719 101.152344 342.820312 97.65625 340.765625 C 102.871094 339.160156 107.1875 335.691406 110.003906 330.785156 C 110.003906 330.785156 110.003906 330.785156 110.003906 330.792969 Z M 110.058594 330.6875 C 112.65625 325.921875 113.65625 320.773438 113.164062 315.851562 C 115.675781 317.316406 118.238281 318.699219 120.84375 320.019531 C 116.453125 322.277344 112.664062 325.914062 110.058594 330.6875 Z M 117.011719 348.292969 C 116.609375 347.59375 116.242188 346.882812 115.945312 346.121094 C 114.367188 342.199219 114.570312 337.957031 116.480469 334.226562 C 118.886719 329.761719 122.75 326.683594 127.117188 325.382812 C 129.023438 329.441406 129.367188 334.398438 127.738281 339.113281 C 126.410156 342.921875 123.457031 345.984375 119.597656 347.523438 C 118.753906 347.859375 117.886719 348.109375 117.003906 348.292969 Z M 135.597656 357.476562 C 131.71875 356.289062 127.886719 354.964844 124.117188 353.523438 C 129.082031 351.011719 132.871094 346.71875 134.671875 341.511719 C 136.425781 336.445312 136.523438 331.144531 135.238281 326.355469 C 137.972656 327.386719 140.746094 328.355469 143.554688 329.230469 C 139.601562 332.261719 136.398438 336.542969 134.640625 341.660156 C 132.839844 346.925781 133.183594 352.484375 135.597656 357.484375 Z M 147.289062 356.28125 C 146.40625 356.839844 145.457031 357.296875 144.464844 357.667969 C 143.777344 356.878906 143.164062 356.046875 142.65625 355.144531 C 140.691406 351.664062 140.3125 347.734375 141.574219 344.035156 C 143.203125 339.292969 146.585938 335.511719 150.582031 333.429688 C 153.085938 337.15625 154.308594 342.109375 153.488281 346.972656 C 152.839844 350.863281 150.648438 354.152344 147.296875 356.273438 Z M 164.269531 363.699219 C 160.25 363.175781 156.273438 362.511719 152.34375 361.71875 C 156.835938 358.46875 159.800781 353.71875 160.71875 348.210938 C 161.601562 342.921875 160.792969 337.621094 158.738281 333.0625 C 161.644531 333.636719 164.574219 334.125 167.539062 334.527344 C 163.894531 338.230469 161.503906 343.011719 160.75 348.183594 C 159.957031 353.6875 161.183594 359.109375 164.28125 363.699219 Z M 175.046875 361.054688 C 174.398438 361.597656 173.726562 362.078125 173.023438 362.503906 C 172.425781 362.023438 171.851562 361.523438 171.363281 360.964844 C 168.570312 357.640625 167.390625 353.472656 167.996094 349.226562 C 168.59375 345.148438 170.730469 341.289062 173.949219 338.5625 C 174.300781 338.246094 174.695312 337.925781 175.121094 337.605469 C 178.140625 340.644531 180.230469 344.984375 180.203125 350.363281 C 180.203125 354.390625 178.328125 358.289062 175.046875 361.0625 Z M 187.542969 365.222656 C 185.492188 365.222656 183.464844 365.175781 181.433594 365.109375 C 185.347656 361.074219 187.550781 355.808594 187.542969 350.371094 C 187.558594 344.96875 185.929688 339.933594 183.121094 335.804688 C 184.59375 335.847656 186.058594 335.878906 187.542969 335.878906 C 189.023438 335.878906 190.496094 335.855469 191.960938 335.804688 C 189.144531 339.921875 187.523438 344.96875 187.542969 350.363281 C 187.53125 355.808594 189.742188 361.082031 193.648438 365.109375 C 191.617188 365.175781 189.589844 365.222656 187.542969 365.222656 Z M 203.769531 360.910156 C 203.261719 361.488281 202.671875 362.015625 202.050781 362.503906 C 201.355469 362.078125 200.675781 361.605469 200.035156 361.0625 C 196.753906 358.289062 194.878906 354.390625 194.878906 350.355469 C 194.851562 344.992188 196.941406 340.652344 199.953125 337.621094 C 200.402344 337.957031 200.820312 338.300781 201.199219 338.636719 C 204.34375 341.300781 206.488281 345.164062 207.085938 349.234375 C 207.699219 353.492188 206.511719 357.648438 203.769531 360.917969 Z M 210.820312 363.699219 C 213.898438 359.132812 215.132812 353.703125 214.339844 348.183594 C 213.578125 342.984375 211.179688 338.1875 207.550781 334.527344 C 210.515625 334.125 213.445312 333.636719 216.355469 333.0625 C 214.289062 337.621094 213.488281 342.929688 214.371094 348.210938 C 215.289062 353.71875 218.253906 358.46875 222.75 361.71875 C 218.816406 362.511719 214.847656 363.175781 210.828125 363.699219 Z M 232.425781 355.152344 C 231.917969 356.054688 231.296875 356.898438 230.609375 357.675781 C 229.617188 357.304688 228.675781 356.847656 227.785156 356.28125 C 224.433594 354.171875 222.242188 350.871094 221.59375 346.980469 C 220.773438 342.117188 221.996094 337.164062 224.5 333.4375 C 228.488281 335.519531 231.878906 339.300781 233.507812 344.035156 C 234.769531 347.726562 234.382812 351.664062 232.425781 355.144531 Z M 239.476562 357.476562 C 241.890625 352.476562 242.242188 346.914062 240.433594 341.652344 C 238.671875 336.542969 235.472656 332.261719 231.519531 329.222656 C 234.324219 328.347656 237.09375 327.386719 239.828125 326.347656 C 238.542969 331.144531 238.640625 336.4375 240.394531 341.503906 C 242.195312 346.710938 245.992188 351 250.945312 353.515625 C 247.179688 354.957031 243.355469 356.28125 239.46875 357.46875 Z M 259.09375 346.195312 C 258.816406 346.925781 258.457031 347.621094 258.070312 348.292969 C 257.1875 348.109375 256.316406 347.859375 255.46875 347.523438 C 251.609375 345.984375 248.65625 342.921875 247.328125 339.113281 C 245.699219 334.398438 246.050781 329.433594 247.949219 325.382812 C 252.296875 326.683594 256.164062 329.738281 258.546875 334.160156 C 260.492188 337.957031 260.699219 342.199219 259.09375 346.195312 Z M 266.699219 346.582031 C 268.191406 341.308594 267.625 335.773438 265.03125 330.730469 C 262.449219 325.929688 258.652344 322.277344 254.238281 320.011719 C 256.84375 318.691406 259.398438 317.308594 261.902344 315.851562 C 261.417969 320.796875 262.425781 325.980469 265.0625 330.785156 C 267.847656 335.691406 272.195312 339.179688 277.394531 340.773438 C 273.90625 342.832031 270.335938 344.769531 266.699219 346.589844 Z M 284.3125 331.835938 C 284.132812 332.742188 283.871094 333.617188 283.542969 334.460938 C 282.742188 334.421875 281.9375 334.316406 281.144531 334.144531 C 277 333.355469 273.554688 330.867188 271.472656 327.214844 C 269.042969 322.777344 268.558594 317.882812 269.820312 313.535156 C 274.28125 314.164062 278.671875 316.570312 281.699219 320.453125 C 284.171875 323.621094 285.132812 327.78125 284.3125 331.84375 Z M 291.796875 331.328125 C 292.394531 325.808594 290.871094 320.296875 287.480469 315.941406 C 284.179688 311.707031 279.800781 308.738281 275.085938 307.207031 C 277.46875 305.460938 279.792969 303.652344 282.0625 301.777344 C 282.421875 306.769531 284.253906 311.808594 287.578125 316.054688 C 290.976562 320.421875 295.832031 323.164062 301.335938 323.882812 C 298.238281 326.472656 295.054688 328.953125 291.789062 331.328125 Z M 306.378906 316.546875 C 305.371094 316.695312 304.355469 316.761719 303.355469 316.71875 C 299.328125 316.472656 295.773438 314.640625 293.367188 311.542969 C 290.296875 307.613281 288.996094 302.675781 289.453125 298.175781 C 293.917969 298.09375 298.683594 299.796875 302.332031 303.175781 C 305.242188 305.855469 306.804688 309.523438 306.738281 313.511719 C 306.722656 314.535156 306.597656 315.546875 306.378906 316.554688 Z M 314.050781 312.175781 C 313.773438 306.640625 311.414062 301.5625 307.304688 297.773438 C 303.382812 294.152344 298.5 291.941406 293.539062 291.191406 C 295.636719 289.042969 297.675781 286.851562 299.640625 284.582031 C 300.769531 289.714844 303.457031 294.34375 307.34375 297.78125 C 311.40625 301.375 316.597656 303.332031 321.992188 303.332031 C 322.066406 303.332031 322.132812 303.332031 322.207031 303.332031 C 319.585938 306.371094 316.867188 309.316406 314.050781 312.175781 Z M 326.003906 295.347656 C 325.277344 295.585938 324.546875 295.773438 323.808594 295.890625 C 319.609375 296.464844 315.449219 295.175781 312.207031 292.289062 C 309.113281 289.550781 307.097656 285.730469 306.519531 281.398438 C 306.445312 280.929688 306.378906 280.4375 306.335938 279.914062 C 310.773438 279.070312 315.703125 279.972656 319.886719 282.730469 C 323.171875 284.867188 325.367188 288.464844 325.898438 292.589844 C 326.019531 293.507812 326.046875 294.433594 326.003906 295.347656 Z M 332.832031 289.714844 C 331.628906 284.28125 328.460938 279.5625 323.917969 276.589844 C 323.882812 276.574219 323.851562 276.550781 323.828125 276.535156 C 327.25 278.769531 331.261719 279.933594 335.355469 279.933594 C 336.738281 279.933594 338.140625 279.792969 339.523438 279.523438 C 337.410156 283.003906 335.175781 286.398438 332.832031 289.714844 Z M 339.554688 271.980469 C 335.519531 273.203125 331.21875 272.605469 327.839844 270.394531 C 323.621094 267.640625 320.871094 263.53125 319.90625 259.117188 C 324.136719 257.511719 329.089844 257.570312 333.683594 259.625 C 337.378906 261.246094 340.195312 264.507812 341.40625 268.582031 C 341.652344 269.402344 341.824219 270.222656 341.929688 271.046875 C 341.167969 271.417969 340.382812 271.742188 339.554688 271.980469 Z M 347.710938 264.441406 C 345.605469 259.242188 341.660156 255.097656 336.648438 252.914062 C 331.703125 250.726562 326.453125 250.167969 321.574219 251.0625 C 322.835938 248.410156 324.023438 245.714844 325.128906 242.980469 C 327.796875 247.222656 331.792969 250.773438 336.738281 252.9375 C 339.359375 254.097656 342.167969 254.671875 345.007812 254.671875 C 347.570312 254.671875 350.148438 254.199219 352.632812 253.273438 C 351.117188 257.0625 349.480469 260.789062 347.71875 264.449219 Z M 351.230469 245.886719 C 347.472656 247.703125 343.296875 247.792969 339.6875 246.214844 C 335.101562 244.207031 331.664062 240.574219 329.941406 236.40625 C 330.425781 236.144531 330.910156 235.90625 331.367188 235.710938 C 334.101562 234.40625 338.449219 233.148438 343.519531 234.578125 C 347.660156 235.710938 351.058594 238.527344 352.828125 242.21875 C 353.140625 242.929688 353.375 243.683594 353.582031 244.453125 C 352.835938 244.996094 352.058594 245.484375 351.222656 245.886719 Z M 358.246094 236.90625 C 355.347656 232.328125 350.820312 228.953125 345.476562 227.488281 C 340.480469 226.121094 335.101562 226.390625 330.203125 228.234375 C 331.023438 225.375 331.742188 222.476562 332.390625 219.554688 C 335.730469 223.273438 340.25 226.144531 345.433594 227.464844 C 347.167969 227.90625 348.914062 228.128906 350.640625 228.128906 C 354.316406 228.128906 357.9375 227.136719 361.195312 225.222656 C 360.335938 229.167969 359.363281 233.066406 358.246094 236.90625 Z M 336.027344 212.367188 C 339.5625 209.535156 344.402344 207.953125 349.355469 208.265625 C 353.253906 208.582031 356.742188 210.574219 359.191406 213.882812 C 359.761719 214.660156 360.253906 215.492188 360.671875 216.363281 C 359.933594 217.125 359.140625 217.820312 358.273438 218.402344 C 354.957031 220.628906 351.027344 221.289062 347.226562 220.347656 C 342.414062 219.128906 338.402344 216.101562 336.027344 212.359375 Z M 364.027344 208.222656 C 360.402344 204.015625 355.359375 201.394531 349.953125 200.960938 C 344.5 200.511719 339.300781 201.699219 334.953125 204.097656 C 335.273438 201.214844 335.527344 198.308594 335.675781 195.386719 C 339.539062 198.496094 344.402344 200.511719 349.757812 200.9375 C 350.332031 200.984375 350.886719 201.011719 351.460938 201.011719 C 356.347656 201.011719 361.136719 199.265625 365.019531 196.074219 C 364.824219 200.160156 364.480469 204.210938 364.011719 208.222656 Z M 364.027344 208.222656 " fill-opacity="1" fill-rule="nonzero"/><g fill="#00798c" fill-opacity="1"><g transform="translate(82.641078, 276.603968)"><g><path d="M 49.183594 -175.117188 L 47.046875 -174.882812 L 38.253906 -174.882812 L 37.78125 -173.21875 L 36.355469 -166.089844 L 35.402344 -164.664062 L 22.574219 -132.585938 L 23.761719 -129.972656 L 19.484375 -126.882812 L 6.652344 -95.757812 L 4.753906 -94.570312 L 5.226562 -79.597656 L 10.929688 -67.480469 L 19.484375 -47.285156 L 26.613281 -32.550781 L 29.226562 -32.550781 L 28.511719 -28.511719 L 36.828125 -7.839844 L 37.066406 0 L 58.691406 0.238281 L 59.164062 -2.375 L 62.015625 -9.980469 L 74.847656 -40.394531 L 80.3125 -51.800781 L 80.550781 -55.601562 L 82.449219 -57.976562 L 94.09375 -81.5 L 94.804688 -94.570312 L 86.726562 -112.152344 L 80.3125 -126.410156 L 77.9375 -126.410156 L 76.75 -132.824219 L 64.628906 -162.527344 L 59.878906 -175.59375 Z M 49.660156 -30.175781 L 39.207031 -57.5 L 34.453125 -67.242188 L 29.703125 -70.570312 L 32.078125 -73.421875 L 29.9375 -80.3125 L 26.851562 -88.152344 L 26.613281 -91.003906 L 34.453125 -111.4375 L 32.789062 -115.242188 L 36.117188 -116.191406 L 49.183594 -150.644531 L 50.609375 -146.128906 L 56.074219 -131.636719 L 60.351562 -129.023438 L 58.214844 -126.171875 L 67.480469 -102.171875 L 70.332031 -94.09375 L 72.234375 -88.152344 L 60.589844 -59.640625 L 60.828125 -55.363281 L 61.066406 -55.363281 L 58.214844 -52.511719 L 50.609375 -27.5625 Z M 49.660156 -30.175781 "/></g></g></g><g fill="#00798c" fill-opacity="1"><g transform="translate(181.487091, 276.603968)"><g><path d="M 54.652344 -10.691406 L 62.96875 -17.34375 L 69.859375 -25.898438 L 79.597656 -32.789062 L 88.867188 -42.292969 L 89.105469 -53.226562 L 88.867188 -58.214844 L 63.917969 -81.976562 L 61.304688 -84.351562 L 57.738281 -87.441406 L 56.074219 -88.867188 L 67.957031 -102.648438 L 81.976562 -117.855469 L 83.640625 -131.875 L 82.6875 -136.625 L 66.53125 -149.457031 L 35.167969 -177.257812 L 15.207031 -171.554688 L 15.683594 -158.011719 L 16.394531 -154.445312 L 18.769531 -152.070312 L 16.15625 -144.941406 L 16.394531 -117.617188 L 17.34375 -92.191406 L 15.917969 -81.261719 L 15.917969 -45.621094 L 16.871094 -34.453125 L 14.96875 -2.136719 L 28.039062 0.238281 L 38.019531 3.328125 Z M 39.917969 -80.074219 L 50.609375 -70.570312 L 56.3125 -64.628906 L 59.640625 -61.542969 L 68.195312 -50.847656 L 59.164062 -40.867188 L 56.3125 -38.96875 L 49.898438 -33.503906 L 37.78125 -20.671875 L 38.019531 -35.167969 L 35.640625 -37.542969 L 37.78125 -39.441406 L 37.78125 -81.5 Z M 36.355469 -116.429688 L 37.066406 -128.785156 L 36.828125 -149.695312 L 52.988281 -135.4375 L 54.886719 -135.199219 L 56.074219 -132.347656 L 63.441406 -125.695312 L 63.203125 -125.695312 L 54.886719 -116.667969 L 53.9375 -110.726562 L 50.375 -110.25 L 38.730469 -97.65625 L 36.828125 -96.230469 Z M 36.355469 -116.429688 "/></g></g></g><g fill="#003d5b" fill-opacity="1"><g transform="translate(91.325799, 280.797121)"><g><path d="M 51.5 -183.359375 L 49.261719 -183.109375 L 40.054688 -183.109375 L 39.558594 -181.371094 L 38.066406 -173.90625 L 37.070312 -172.414062 L 23.636719 -138.824219 L 24.878906 -136.089844 L 20.402344 -132.855469 L 6.964844 -100.261719 L 4.976562 -99.019531 L 5.472656 -83.34375 L 11.445312 -70.65625 L 20.402344 -49.507812 L 27.863281 -34.085938 L 30.601562 -34.085938 L 29.855469 -29.855469 L 38.5625 -8.210938 L 38.8125 0 L 61.453125 0.25 L 61.949219 -2.488281 L 64.933594 -10.449219 L 78.371094 -42.292969 L 84.09375 -54.238281 L 84.339844 -58.21875 L 86.332031 -60.707031 L 98.523438 -85.335938 L 99.269531 -99.019531 L 90.808594 -117.429688 L 84.09375 -132.359375 L 81.605469 -132.359375 L 80.359375 -139.074219 L 67.671875 -170.175781 L 62.695312 -183.859375 Z M 51.996094 -31.597656 L 41.050781 -60.207031 L 36.074219 -70.410156 L 31.097656 -73.890625 L 33.585938 -76.875 L 31.347656 -84.09375 L 28.113281 -92.300781 L 27.863281 -95.289062 L 36.074219 -116.683594 L 34.332031 -120.664062 L 37.816406 -121.660156 L 51.5 -157.734375 L 52.992188 -153.007812 L 58.714844 -137.832031 L 63.191406 -135.09375 L 60.953125 -132.109375 L 70.65625 -106.980469 L 73.640625 -98.523438 L 75.632812 -92.300781 L 63.441406 -62.445312 L 63.691406 -57.96875 L 63.941406 -57.96875 L 60.953125 -54.984375 L 52.992188 -28.859375 Z M 51.996094 -31.597656 "/></g></g></g><g fill="#003d5b" fill-opacity="1"><g transform="translate(194.82344, 280.797121)"><g><path d="M 57.222656 -11.195312 L 65.929688 -18.160156 L 73.144531 -27.117188 L 83.34375 -34.332031 L 93.046875 -44.285156 L 93.296875 -55.730469 L 93.046875 -60.953125 L 66.925781 -85.832031 L 64.1875 -88.320312 L 60.457031 -91.554688 L 58.714844 -93.046875 L 71.15625 -107.476562 L 85.832031 -123.402344 L 87.574219 -138.078125 L 86.578125 -143.054688 L 69.660156 -156.492188 L 36.820312 -185.597656 L 15.921875 -179.628906 L 16.421875 -165.445312 L 17.167969 -161.714844 L 19.65625 -159.226562 L 16.917969 -151.761719 L 17.167969 -123.152344 L 18.160156 -96.53125 L 16.667969 -85.085938 L 16.667969 -47.769531 L 17.664062 -36.074219 L 15.675781 -2.238281 L 29.359375 0.25 L 39.808594 3.484375 Z M 41.796875 -83.84375 L 52.992188 -73.890625 L 58.964844 -67.671875 L 62.445312 -64.4375 L 71.402344 -53.242188 L 61.949219 -42.792969 L 58.964844 -40.800781 L 52.246094 -35.078125 L 39.558594 -21.644531 L 39.808594 -36.820312 L 37.320312 -39.308594 L 39.558594 -41.300781 L 39.558594 -85.335938 Z M 38.066406 -121.910156 L 38.8125 -134.84375 L 38.5625 -156.738281 L 55.480469 -141.8125 L 57.472656 -141.5625 L 58.714844 -138.578125 L 66.425781 -131.609375 L 66.179688 -131.609375 L 57.472656 -122.15625 L 56.476562 -115.9375 L 52.742188 -115.441406 L 40.554688 -102.253906 L 38.5625 -100.761719 Z M 38.066406 -121.910156 "/></g></g></g></svg>