<svg xmlns="http://www.w3.org/2000/svg" xmlns:xlink="http://www.w3.org/1999/xlink" width="500" zoomAndPan="magnify" viewBox="0 0 375 374.999991" height="500" preserveAspectRatio="xMidYMid meet" version="1.0"><defs><g/><clipPath id="66b1cd5400"><path d="M 0 0.734375 L 375 0.734375 L 375 375 L 0 375 Z M 0 0.734375 " clip-rule="nonzero"/></clipPath><clipPath id="2cae44b6be"><path d="M 187.5 0.734375 C 83.945312 0.734375 0 84.679688 0 188.234375 C 0 291.789062 83.945312 375.734375 187.5 375.734375 C 291.054688 375.734375 375 291.789062 375 188.234375 C 375 84.679688 291.054688 0.734375 187.5 0.734375 " clip-rule="nonzero"/></clipPath></defs><rect x="-37.5" width="450" fill="#ffffff" y="-37.499999" height="449.999989" fill-opacity="1"/><rect x="-37.5" width="450" fill="#ffffff" y="-37.499999" height="449.999989" fill-opacity="1"/><g clip-path="url(#66b1cd5400)"><g clip-path="url(#2cae44b6be)"><path fill="#30638e" d="M 0 0.734375 L 375 0.734375 L 375 375.734375 L 0 375.734375 Z M 0 0.734375 " fill-opacity="1" fill-rule="nonzero"/></g></g><path fill="#00798c" d="M 97.507812 60.765625 C 50.101562 58.3125 37.070312 92.328125 37.070312 92.328125 C 34.234375 95.917969 35.554688 99.320312 35.554688 99.320312 C 38.953125 108.957031 53.5 107.828125 53.5 107.828125 C 61.621094 107.253906 61.246094 99.507812 61.246094 99.507812 C 61.058594 97.429688 57.847656 97.429688 57.847656 97.429688 C 54.253906 97.808594 49.339844 96.671875 49.339844 96.671875 C 47.074219 96.863281 48.210938 92.894531 48.210938 92.894531 C 59.734375 70.59375 93.921875 71.160156 93.921875 71.160156 C 101.855469 70.027344 101.660156 64.921875 101.660156 64.921875 C 102.046875 60.386719 97.507812 60.765625 97.507812 60.765625 Z M 97.507812 60.765625 " fill-opacity="1" fill-rule="nonzero"/><path fill="#00798c" d="M 80.324219 59.441406 C 83.910156 61.335938 86.933594 58.121094 86.933594 58.121094 C 117.90625 30.714844 139.632812 45.457031 139.632812 45.457031 C 144.167969 48.480469 145.863281 44.132812 145.863281 44.132812 C 147.941406 40.921875 143.222656 38.46875 143.222656 38.46875 C 106.015625 18.242188 80.324219 53.394531 80.324219 53.394531 C 77.488281 56.984375 80.324219 59.441406 80.324219 59.441406 Z M 80.324219 59.441406 " fill-opacity="1" fill-rule="nonzero"/><path fill="#00798c" d="M 116.964844 43 C 111.109375 43.570312 110.355469 47.726562 110.355469 47.726562 C 106.386719 73.804688 82.402344 87.039062 82.402344 87.039062 C 78.433594 90.4375 81.078125 93.460938 81.078125 93.460938 C 82.777344 97.617188 88.066406 94.40625 88.066406 94.40625 C 109.601562 83.253906 115.832031 65.304688 115.832031 65.304688 C 115.832031 61.898438 119.796875 49.050781 119.796875 49.050781 C 122.066406 42.8125 116.964844 43 116.964844 43 Z M 116.964844 43 " fill-opacity="1" fill-rule="nonzero"/><path fill="#00798c" d="M 118.667969 62.84375 C 118.667969 62.84375 117.722656 66.054688 127.164062 65.867188 C 127.164062 65.867188 144.167969 64.734375 160.789062 43.757812 C 160.789062 43.757812 173.628906 32.980469 170.042969 29.585938 C 170.042969 29.585938 165.886719 25.800781 161.351562 29.585938 C 161.351562 29.585938 141.523438 56.609375 122.820312 58.5 C 122.820312 58.5 118.667969 57.933594 118.667969 62.84375 Z M 118.667969 62.84375 " fill-opacity="1" fill-rule="nonzero"/><path fill="#00798c" d="M 132.640625 22.964844 C 127.730469 25.613281 129.617188 28.824219 129.617188 28.824219 C 131.320312 33.554688 138.5 32.421875 138.5 32.421875 C 168.90625 16.542969 184.585938 36.578125 188.929688 40.734375 C 193.273438 44.890625 196.867188 41.679688 196.867188 41.679688 C 199.316406 40.351562 197.429688 37.328125 197.429688 37.328125 C 168.152344 1.238281 132.640625 22.964844 132.640625 22.964844 Z M 132.640625 22.964844 " fill-opacity="1" fill-rule="nonzero"/><path fill="#00798c" d="M 212.726562 33.363281 C 212.726562 33.363281 201.964844 48.667969 163.054688 46.972656 C 163.054688 46.972656 159.273438 46.78125 158.523438 49.804688 C 158.523438 49.804688 157.011719 55.097656 166.265625 56.042969 C 166.265625 56.042969 197.242188 59.820312 217.640625 41.109375 C 217.640625 41.109375 221.421875 37.515625 219.71875 33.738281 C 219.71875 33.738281 218.207031 29.011719 212.726562 33.363281 Z M 212.726562 33.363281 " fill-opacity="1" fill-rule="nonzero"/><path fill="#00798c" d="M 231.425781 46.027344 C 231.425781 46.027344 234.453125 51.316406 236.902344 46.78125 C 236.902344 46.78125 239.546875 39.789062 235.394531 34.5 C 231.238281 29.203125 220.476562 15.78125 207.441406 13.710938 C 194.40625 11.632812 183.453125 16.734375 183.453125 16.734375 C 183.453125 16.734375 180.050781 18.433594 182.507812 21.078125 C 182.507812 21.078125 184.398438 25.613281 191.382812 24.292969 C 191.382812 24.292969 216.320312 15.59375 231.425781 46.027344 Z M 231.425781 46.027344 " fill-opacity="1" fill-rule="nonzero"/><path fill="#00798c" d="M 231.238281 22.964844 C 231.238281 22.964844 232.558594 28.261719 239.933594 29.957031 C 239.933594 29.957031 257.683594 32.980469 255.609375 37.328125 C 255.609375 37.328125 246.914062 55.097656 214.617188 49.996094 C 214.617188 49.996094 210.277344 48.480469 206.871094 50.371094 C 206.871094 50.371094 196.105469 53.964844 204.042969 56.796875 C 204.042969 56.796875 229.351562 62.84375 249.1875 56.421875 C 249.1875 56.421875 260.421875 50.046875 265.734375 41.21875 C 264.636719 42.945312 250.261719 67.195312 288.664062 102.152344 C 288.664062 102.152344 292.4375 104.988281 292.058594 100.074219 C 292.058594 100.074219 291.871094 92.894531 287.335938 90.0625 C 287.335938 90.0625 263.347656 69.464844 273.550781 49.050781 C 273.550781 49.050781 274.683594 45.078125 278.085938 48.105469 L 291.113281 59.066406 C 291.113281 59.066406 293.574219 60.953125 298.480469 60.953125 C 303.394531 60.953125 304.148438 57.554688 301.691406 55.476562 C 299.238281 53.394531 281.671875 36.195312 268.449219 36.390625 C 268.449219 36.390625 264.296875 22.402344 235.394531 18.621094 C 235.394531 18.621094 229.160156 17.859375 231.238281 22.964844 Z M 231.238281 22.964844 " fill-opacity="1" fill-rule="nonzero"/><path fill="#00798c" d="M 256.554688 78.152344 C 262.972656 79.472656 264.296875 74.371094 264.296875 74.371094 C 264.105469 69.082031 260.136719 68.703125 260.136719 68.703125 C 251.265625 68.703125 248.046875 62.085938 248.046875 62.085938 C 246.539062 56.792969 240.683594 60.953125 240.683594 60.953125 C 237.472656 62.65625 240.308594 65.867188 240.308594 65.867188 C 244.648438 73.804688 256.554688 78.152344 256.554688 78.152344 Z M 256.554688 78.152344 " fill-opacity="1" fill-rule="nonzero"/><path fill="#00798c" d="M 322.089844 93.648438 C 322.472656 97.429688 328.707031 97.996094 328.707031 97.996094 C 333.996094 99.507812 332.105469 93.269531 332.105469 93.269531 C 324.363281 61.710938 287.71875 63.226562 287.71875 63.226562 C 279.40625 62.652344 277.515625 68.328125 277.515625 68.328125 C 273.363281 74.753906 281.484375 74.753906 281.484375 74.753906 C 315.671875 69.460938 322.089844 93.648438 322.089844 93.648438 Z M 322.089844 93.648438 " fill-opacity="1" fill-rule="nonzero"/><path fill="#00798c" d="M 319.070312 134.285156 C 321.335938 130.878906 318.316406 127.101562 318.316406 127.101562 C 295.839844 104.042969 301.503906 81.175781 301.503906 81.175781 C 302.074219 75.503906 297.730469 75.695312 297.730469 75.695312 C 294.511719 75.507812 293.949219 79.285156 293.949219 79.285156 C 287.148438 108.582031 310.003906 132.011719 310.003906 132.011719 C 314.351562 138.632812 319.070312 134.285156 319.070312 134.285156 Z M 319.070312 134.285156 " fill-opacity="1" fill-rule="nonzero"/><path fill="#00798c" d="M 307.359375 94.21875 C 300.558594 93.460938 304.148438 101.019531 304.148438 101.019531 C 305.472656 104.988281 310.953125 104.613281 310.953125 104.613281 C 344 107.828125 345.703125 138.058594 345.703125 138.058594 C 344.945312 143.734375 351.9375 144.679688 351.9375 144.679688 C 356.472656 146.945312 355.527344 141.269531 355.527344 141.269531 C 355.144531 98.183594 307.359375 94.21875 307.359375 94.21875 Z M 307.359375 94.21875 " fill-opacity="1" fill-rule="nonzero"/><path fill="#00798c" d="M 324.738281 169.4375 C 326.628906 174.539062 330.785156 172.453125 330.785156 172.453125 C 333.050781 170.757812 331.539062 166.789062 331.539062 166.789062 C 321.90625 152.234375 333.996094 122.945312 333.996094 122.945312 C 336.257812 113.683594 329.269531 112.167969 329.269531 112.167969 C 325.871094 110.089844 325.683594 113.113281 325.683594 113.113281 C 326.058594 116.515625 321.332031 129.179688 321.332031 129.179688 C 313.023438 149.398438 324.738281 169.4375 324.738281 169.4375 Z M 324.738281 169.4375 " fill-opacity="1" fill-rule="nonzero"/><path fill="#00798c" d="M 360.246094 200.429688 C 372.335938 156.019531 340.039062 139.195312 340.039062 139.195312 C 332.480469 133.332031 330.597656 140.140625 330.597656 140.140625 C 328.515625 145.617188 334.183594 146.757812 334.183594 146.757812 C 358.363281 155.070312 353.261719 193.621094 353.261719 193.621094 C 352.125 198.726562 355.71875 202.320312 355.71875 202.320312 C 359.871094 207.039062 360.246094 200.429688 360.246094 200.429688 Z M 360.246094 200.429688 " fill-opacity="1" fill-rule="nonzero"/><path fill="#00798c" d="M 345.890625 174.347656 C 351.746094 169.4375 347.402344 162.0625 347.402344 162.0625 C 345.328125 158.472656 341.738281 162.441406 341.738281 162.441406 C 319.828125 180.960938 321.527344 213.660156 321.527344 213.660156 C 320.769531 222.726562 325.113281 221.78125 325.113281 221.78125 C 330.214844 221.21875 329.839844 216.117188 329.839844 216.117188 C 329.269531 187.199219 345.890625 174.347656 345.890625 174.347656 Z M 345.890625 174.347656 " fill-opacity="1" fill-rule="nonzero"/><path fill="#00798c" d="M 350.050781 258.261719 C 371.765625 224.242188 344.949219 190.984375 344.949219 190.984375 C 340.226562 182.660156 337.960938 186.632812 337.960938 186.632812 C 334.9375 190.035156 337.769531 195.515625 337.769531 195.515625 L 344.949219 210.441406 C 355.144531 228.015625 344.570312 246.921875 344.570312 246.921875 C 342.867188 249.5625 340.605469 248.617188 340.605469 248.617188 C 338.90625 248.054688 336.257812 241.632812 336.257812 241.632812 C 334.753906 235.957031 330.402344 240.871094 330.402344 240.871094 C 328.136719 243.707031 328.894531 247.296875 328.894531 247.296875 C 330.027344 252.027344 339.851562 259.957031 339.851562 259.957031 C 346.085938 262.980469 350.050781 258.261719 350.050781 258.261719 Z M 350.050781 258.261719 " fill-opacity="1" fill-rule="nonzero"/><path fill="#00798c" d="M 341.171875 226.507812 C 347.78125 222.164062 345.515625 217.25 345.515625 217.25 C 344.195312 210.820312 337.390625 214.410156 337.390625 214.410156 C 322.847656 222.535156 307.929688 245.785156 307.929688 245.785156 C 299.238281 262.792969 299.621094 287.933594 299.621094 287.933594 C 299.808594 293.597656 306.039062 290.949219 306.039062 290.949219 C 310.953125 289.253906 310.382812 286.230469 310.382812 286.230469 C 310.003906 282.070312 312.648438 267.707031 312.648438 267.707031 C 315.671875 244.085938 341.171875 226.507812 341.171875 226.507812 Z M 341.171875 226.507812 " fill-opacity="1" fill-rule="nonzero"/><path fill="#00798c" d="M 300.941406 306.445312 C 331.539062 301.914062 343.628906 271.109375 343.628906 271.109375 C 348.164062 258.824219 325.683594 258.070312 325.683594 258.070312 C 317.75 258.261719 317.5625 264.683594 317.5625 264.683594 C 316.242188 271.488281 322.664062 269.789062 322.664062 269.789062 L 327.949219 269.789062 C 332.292969 269.601562 329.457031 274.699219 329.457031 274.699219 C 312.835938 298.886719 282.238281 296.625 282.238281 296.625 C 278.460938 296.808594 276.757812 303.046875 276.757812 303.046875 C 275.0625 311.171875 300.941406 306.445312 300.941406 306.445312 Z M 300.941406 306.445312 " fill-opacity="1" fill-rule="nonzero"/><path fill="#00798c" d="M 295.460938 280.9375 C 300.941406 276.96875 297.160156 272.8125 297.160156 272.8125 C 293.574219 268.085938 288.09375 273.757812 288.09375 273.757812 C 262.785156 290.949219 258.632812 317.597656 258.632812 317.597656 C 256.171875 325.914062 262.597656 325.539062 262.597656 325.539062 C 269.769531 325.351562 268.832031 320.058594 268.832031 320.058594 C 270.339844 296.246094 295.460938 280.9375 295.460938 280.9375 Z M 295.460938 280.9375 " fill-opacity="1" fill-rule="nonzero"/><path fill="#00798c" d="M 297.542969 307.773438 C 292.433594 307.960938 290.925781 310.988281 290.925781 310.988281 C 259.761719 338.578125 239.734375 322.511719 239.734375 322.511719 C 236.152344 319.679688 233.128906 324.40625 233.128906 324.40625 C 231.425781 327.617188 234.453125 329.882812 234.453125 329.882812 C 270.90625 354.835938 302.636719 313.441406 302.636719 313.441406 C 304.714844 308.53125 297.542969 307.773438 297.542969 307.773438 Z M 297.542969 307.773438 " fill-opacity="1" fill-rule="nonzero"/><path fill="#00798c" d="M 260.136719 306.070312 C 259.570312 301.347656 252.398438 302.484375 252.398438 302.484375 C 239.546875 303.617188 227.082031 311.550781 223.304688 317.222656 C 219.53125 322.890625 211.785156 330.265625 207.441406 335.558594 C 203.097656 340.847656 209.707031 342.738281 214.050781 342.167969 C 218.398438 341.605469 224.816406 333.097656 224.816406 333.097656 C 236.152344 313.628906 255.605469 311.175781 255.605469 311.175781 C 259.761719 310.796875 260.136719 306.070312 260.136719 306.070312 Z M 260.136719 306.070312 " fill-opacity="1" fill-rule="nonzero"/><path fill="#00798c" d="M 215.1875 313.824219 C 175.519531 306.257812 158.898438 329.882812 158.898438 329.882812 C 154.171875 334.988281 157.011719 337.820312 157.011719 337.820312 C 159.273438 341.796875 163.804688 338.011719 163.804688 338.011719 C 164.75 336.121094 172.871094 329.695312 172.871094 329.695312 C 182.882812 320.246094 212.351562 322.136719 212.351562 322.136719 C 221.226562 321.945312 220.289062 318.542969 220.289062 318.542969 C 221.796875 313.441406 215.1875 313.824219 215.1875 313.824219 Z M 215.1875 313.824219 " fill-opacity="1" fill-rule="nonzero"/><path fill="#00798c" d="M 246.351562 347.65625 C 252.015625 344.058594 248.046875 339.714844 248.046875 339.714844 C 243.894531 334.988281 239.734375 337.636719 239.734375 337.636719 C 204.605469 355.96875 189.117188 327.996094 189.117188 327.996094 C 184.777344 323.460938 181.378906 326.105469 181.378906 326.105469 C 176.089844 328.75 180.050781 331.964844 180.050781 331.964844 C 205.363281 368.820312 246.351562 347.65625 246.351562 347.65625 Z M 246.351562 347.65625 " fill-opacity="1" fill-rule="nonzero"/><path fill="#00798c" d="M 191.953125 356.15625 C 201.019531 353.695312 193.652344 347.65625 193.652344 347.65625 C 190.4375 343.492188 184.964844 345.003906 184.964844 345.003906 C 157.011719 353.703125 146.238281 323.082031 146.238281 323.082031 C 142.277344 317.410156 137.929688 325.539062 137.929688 325.539062 C 135.101562 330.070312 138.875 333.664062 138.875 333.664062 C 156.25 367.683594 191.953125 356.15625 191.953125 356.15625 Z M 191.953125 356.15625 " fill-opacity="1" fill-rule="nonzero"/><path fill="#00798c" d="M 138.6875 352.945312 C 147.378906 353.507812 143.410156 346.894531 143.410156 346.894531 C 142.082031 342.167969 137.367188 340.28125 137.367188 340.28125 L 122.820312 335.558594 C 119.042969 334.042969 121.5 331.964844 121.5 331.964844 C 132.453125 314.957031 163.429688 318.355469 163.429688 318.355469 C 172.6875 320.4375 175.144531 316.089844 175.144531 316.089844 C 177.972656 310.414062 161.921875 310.039062 161.921875 310.039062 C 129.617188 308.304688 115.160156 320.996094 109.445312 328.601562 C 110.144531 327.320312 110.832031 325.777344 111.488281 323.832031 C 115.644531 311.550781 113.183594 298.886719 103.179688 283.960938 C 93.167969 269.027344 85.613281 263.550781 84.289062 266.574219 C 82.964844 269.601562 83.34375 274.132812 87.308594 276.78125 C 87.308594 276.78125 106.015625 291.519531 103.179688 316.277344 C 103.179688 316.277344 101.664062 322.136719 97.320312 319.488281 C 92.976562 316.847656 85.800781 312.878906 85.800781 312.878906 C 85.800781 312.878906 82.777344 307.960938 76.734375 308.71875 C 76.734375 308.71875 67.289062 309.472656 74.09375 315.519531 C 74.09375 315.519531 89.199219 330.070312 101.859375 333.855469 C 101.859375 333.855469 104.496094 334.933594 107.496094 331.5 C 106.578125 333.0625 106.199219 334.042969 106.199219 334.042969 C 104.875 346.515625 138.6875 352.945312 138.6875 352.945312 Z M 138.6875 352.945312 " fill-opacity="1" fill-rule="nonzero"/><path fill="#00798c" d="M 116.398438 294.921875 C 116.398438 294.921875 111.109375 296.433594 112.050781 299.835938 C 112.050781 299.835938 112.808594 303.617188 118.667969 304.179688 C 118.667969 304.179688 125.84375 304.367188 127.730469 307.015625 C 127.730469 307.015625 129.054688 313.0625 136.042969 310.414062 C 136.042969 310.414062 141.707031 307.585938 136.796875 303.617188 C 136.796875 303.617188 126.410156 293.414062 116.398438 294.921875 Z M 116.398438 294.921875 " fill-opacity="1" fill-rule="nonzero"/><path fill="#00798c" d="M 87.121094 306.257812 C 96.5625 307.015625 98.078125 299.269531 98.078125 299.269531 C 99.96875 293.414062 93.734375 294.355469 93.734375 294.355469 C 53.5 297.570312 53.878906 276.023438 53.878906 276.023438 C 51.988281 269.21875 45.757812 269.03125 45.757812 269.03125 C 41.789062 267.898438 42.164062 273.375 42.164062 273.375 C 51.042969 305.882812 77.679688 305.507812 87.121094 306.257812 Z M 87.121094 306.257812 " fill-opacity="1" fill-rule="nonzero"/><path fill="#00798c" d="M 75.976562 292.089844 C 75.976562 292.089844 82.964844 293.03125 83.152344 282.445312 C 83.152344 282.445312 82.402344 242.574219 62.757812 232.367188 C 62.757812 232.367188 57.277344 227.640625 56.519531 233.5 C 56.519531 233.5 55.765625 238.035156 59.355469 241.632812 C 59.355469 241.632812 78.054688 261.28125 73.519531 286.230469 C 73.523438 286.230469 70.6875 291.519531 75.976562 292.089844 Z M 75.976562 292.089844 " fill-opacity="1" fill-rule="nonzero"/><path fill="#00798c" d="M 67.476562 272.8125 C 73.710938 272.8125 71.628906 266.949219 71.628906 266.949219 C 71.257812 261.097656 66.15625 261.660156 66.15625 261.660156 C 33.855469 260.902344 29.511719 229.347656 29.511719 229.347656 C 29.132812 222.535156 25.167969 221.59375 25.167969 221.59375 C 18.746094 218.566406 19.691406 225.375 19.691406 225.375 C 21.199219 273.183594 67.476562 272.8125 67.476562 272.8125 Z M 67.476562 272.8125 " fill-opacity="1" fill-rule="nonzero"/><path fill="#00798c" d="M 43.867188 252.023438 C 43.867188 252.023438 48.96875 257.691406 50.289062 249.375 C 50.289062 249.375 64.832031 215.925781 51.234375 195.328125 C 51.234375 195.328125 48.402344 190.222656 45.375 193.246094 C 45.375 193.246094 42.921875 195.328125 45.375 201.375 C 45.375 201.375 52.746094 215.730469 41.226562 244.652344 C 41.222656 244.652344 39.710938 248.429688 43.867188 252.023438 Z M 43.867188 252.023438 " fill-opacity="1" fill-rule="nonzero"/><path fill="#00798c" d="M 16.476562 166.972656 C 3.257812 213.652344 37.070312 226.507812 37.070312 226.507812 C 44.8125 231.988281 44.8125 225.1875 44.8125 225.1875 C 46.320312 220.648438 41.601562 218.757812 41.601562 218.757812 C 16.097656 206.285156 23.277344 171.132812 23.277344 171.132812 C 24.980469 166.414062 21.769531 163.003906 21.769531 163.003906 C 18.933594 158.285156 16.476562 166.972656 16.476562 166.972656 Z M 16.476562 166.972656 " fill-opacity="1" fill-rule="nonzero"/><path fill="#00798c" d="M 29.136719 193.050781 C 29.136719 193.050781 24.597656 196.835938 27.808594 201.9375 C 27.808594 201.9375 29.324219 208.746094 35.554688 202.320312 C 35.554688 202.320312 47.648438 189.277344 50.476562 182.472656 C 50.476562 182.472656 56.144531 159.605469 55.199219 149.777344 C 55.199219 149.777344 54.824219 144.296875 51.230469 144.484375 C 51.230469 144.484375 47.832031 144.671875 47.074219 151.101562 C 47.074219 151.101562 46.511719 179.828125 29.136719 193.050781 Z M 29.136719 193.050781 " fill-opacity="1" fill-rule="nonzero"/><path fill="#00798c" d="M 21.957031 121.429688 C 11.570312 154.878906 32.34375 175.484375 32.34375 175.484375 C 35.554688 181.152344 39.335938 177.558594 39.335938 177.558594 C 41.789062 174.347656 39.140625 168.296875 39.140625 168.296875 C 16.859375 136.738281 33.480469 119.730469 33.480469 119.730469 C 38.390625 112.742188 41.976562 123.320312 41.976562 123.320312 C 44.242188 129.179688 48.402344 123.132812 48.402344 123.132812 C 52.558594 114.0625 38.011719 105.175781 38.011719 105.175781 C 27.808594 98.941406 21.957031 121.429688 21.957031 121.429688 Z M 21.957031 121.429688 " fill-opacity="1" fill-rule="nonzero"/><path fill="#00798c" d="M 40.09375 150.535156 C 40.09375 150.535156 61.621094 135.035156 67.855469 127.855469 C 67.855469 127.855469 78.625 110.660156 78.625 80.605469 C 78.625 80.605469 78.054688 74.941406 73.710938 75.695312 C 73.710938 75.695312 68.800781 75.503906 68.421875 83.253906 C 68.421875 83.253906 66.535156 107.253906 59.167969 117.273438 C 59.167969 117.273438 41.789062 136.363281 34.609375 140.328125 C 34.609375 140.328125 30.832031 141.273438 32.15625 147.703125 C 32.15625 147.703125 31.777344 154.503906 40.09375 150.535156 Z M 40.09375 150.535156 " fill-opacity="1" fill-rule="nonzero"/><path fill="#00798c" d="M 86.933594 37.328125 C 87.96875 31.660156 85.988281 31.660156 85.988281 31.660156 C 77.203125 35.0625 80.886719 42.714844 80.886719 42.714844 C 86.175781 44.792969 86.933594 37.328125 86.933594 37.328125 Z M 86.933594 37.328125 " fill-opacity="1" fill-rule="nonzero"/><path fill="#00798c" d="M 96.660156 29.484375 C 96.378906 26.183594 90.425781 29.394531 90.425781 29.394531 C 86.835938 32.035156 89.765625 36.574219 89.765625 36.574219 C 93.542969 39.128906 96.660156 29.484375 96.660156 29.484375 Z M 96.660156 29.484375 " fill-opacity="1" fill-rule="nonzero"/><path fill="#00798c" d="M 104.3125 29.394531 C 108.089844 25.328125 105.441406 22.117188 105.441406 22.117188 C 99.023438 21.925781 97.605469 28.824219 97.605469 28.824219 C 97.605469 32.132812 100.53125 33.457031 104.3125 29.394531 Z M 104.3125 29.394531 " fill-opacity="1" fill-rule="nonzero"/><path fill="#00798c" d="M 115.546875 19.1875 C 115.734375 14.84375 109.410156 19.660156 109.410156 19.660156 C 107.050781 21.832031 108.089844 25.050781 108.089844 25.050781 C 113.65625 30.054688 115.546875 19.1875 115.546875 19.1875 Z M 115.546875 19.1875 " fill-opacity="1" fill-rule="nonzero"/><path fill="#00798c" d="M 125.65625 17.488281 C 127.640625 10.492188 120.273438 14.746094 120.273438 14.746094 C 115.644531 16.449219 118.195312 20.605469 118.195312 20.605469 C 122.347656 24.195312 125.65625 17.488281 125.65625 17.488281 Z M 125.65625 17.488281 " fill-opacity="1" fill-rule="nonzero"/><path fill="#00798c" d="M 135.476562 14.175781 C 138.5 7.753906 130.660156 11.25 130.660156 11.25 C 126.789062 13.710938 129.242188 17.300781 129.242188 17.300781 C 132.925781 20.609375 135.476562 14.175781 135.476562 14.175781 Z M 135.476562 14.175781 " fill-opacity="1" fill-rule="nonzero"/><path fill="#00798c" d="M 147.28125 10.019531 C 149.828125 4.636719 140.386719 8.609375 140.386719 8.609375 C 136.890625 10.304688 138.308594 14.464844 138.308594 14.464844 C 143.03125 18.808594 147.28125 10.019531 147.28125 10.019531 Z M 147.28125 10.019531 " fill-opacity="1" fill-rule="nonzero"/><path fill="#00798c" d="M 157.011719 10.871094 C 160.316406 8.324219 158.988281 5.863281 158.988281 5.863281 C 149.074219 4.921875 150.492188 11.15625 150.492188 11.15625 C 151.535156 14.648438 157.011719 10.871094 157.011719 10.871094 Z M 157.011719 10.871094 " fill-opacity="1" fill-rule="nonzero"/><path fill="#00798c" d="M 169.757812 6.433594 C 171.550781 1.898438 162.957031 5.109375 162.957031 5.109375 C 159.371094 6.714844 161.734375 10.589844 161.734375 10.589844 C 167.207031 13.515625 169.757812 6.433594 169.757812 6.433594 Z M 169.757812 6.433594 " fill-opacity="1" fill-rule="nonzero"/><path fill="#00798c" d="M 174.003906 11.25 C 178.632812 11.347656 179.769531 7.566406 179.769531 7.566406 C 179.769531 9.171875 184.304688 9.742188 184.304688 9.742188 C 189.402344 11.15625 188.171875 5.300781 188.171875 5.300781 C 186.378906 0.0078125 179.390625 4.253906 179.390625 4.253906 C 177.972656 1.988281 173.070312 4.824219 173.070312 4.824219 C 168.8125 7.28125 174.003906 11.25 174.003906 11.25 Z M 174.003906 11.25 " fill-opacity="1" fill-rule="nonzero"/><path fill="#00798c" d="M 202.054688 8.324219 C 202.054688 8.324219 207.726562 12.285156 212.726562 9.359375 C 212.726562 9.359375 219.816406 13.230469 223.683594 11.0625 C 223.683594 11.0625 228.878906 16.730469 233.886719 12.765625 C 233.886719 12.765625 237.757812 8.699219 232.277344 7.566406 C 232.277344 7.566406 227.558594 6.148438 225.855469 7.46875 C 225.855469 7.46875 219.71875 1.988281 214.71875 5.109375 C 214.71875 5.109375 207.066406 2.652344 204.988281 4.066406 C 204.988281 4.066406 201.394531 2.558594 199.316406 2.933594 C 199.316406 2.933594 191.195312 4.730469 193.652344 8.699219 C 193.652344 8.699219 196.867188 12.382812 202.054688 8.324219 Z M 202.054688 8.324219 " fill-opacity="1" fill-rule="nonzero"/><path fill="#00798c" d="M 242.003906 17.011719 C 242.003906 17.011719 248.144531 15.878906 247.011719 12.386719 C 247.011719 12.386719 243.519531 10.589844 241.816406 10.304688 C 241.816406 10.304688 236.527344 9.078125 235.773438 12.667969 C 235.777344 12.667969 235.296875 17.011719 242.003906 17.011719 Z M 242.003906 17.011719 " fill-opacity="1" fill-rule="nonzero"/><path fill="#00798c" d="M 249.9375 20.792969 C 249.9375 20.792969 255.609375 20.980469 256.644531 17.675781 C 256.644531 17.675781 257.304688 14.839844 254.289062 14.175781 C 254.289062 14.175781 248.617188 13.519531 247.390625 15.59375 C 247.386719 15.59375 245.59375 19.945312 249.9375 20.792969 Z M 249.9375 20.792969 " fill-opacity="1" fill-rule="nonzero"/><path fill="#00798c" d="M 256.078125 19.75 C 256.078125 19.75 254.851562 23.4375 260.136719 24.667969 C 260.136719 24.667969 266.183594 25.988281 268.074219 22.023438 C 268.074219 22.023438 267.691406 19.476562 265.425781 18.621094 C 265.425781 18.621094 257.683594 16.351562 256.078125 19.75 Z M 256.078125 19.75 " fill-opacity="1" fill-rule="nonzero"/><path fill="#00798c" d="M 267.128906 25.050781 C 267.128906 25.050781 265.996094 28.449219 270.527344 29.867188 C 270.527344 29.867188 278.085938 30.339844 278.746094 26.558594 C 278.746094 26.558594 278.085938 23.632812 275.34375 23.058594 C 275.34375 23.0625 268.261719 21.359375 267.128906 25.050781 Z M 267.128906 25.050781 " fill-opacity="1" fill-rule="nonzero"/><path fill="#00798c" d="M 276.667969 30.8125 C 276.667969 30.8125 275.816406 33.742188 281.574219 34.875 C 281.574219 34.875 284.125 35.628906 286.960938 33.457031 C 286.960938 33.457031 288.191406 30.628906 285.921875 28.828125 C 285.921875 28.824219 278.175781 25.523438 276.667969 30.8125 Z M 276.667969 30.8125 " fill-opacity="1" fill-rule="nonzero"/><path fill="#00798c" d="M 285.921875 36.578125 C 285.921875 36.578125 286.203125 42.339844 290.453125 40.734375 C 290.453125 40.734375 295.179688 36.105469 295.742188 40.921875 C 295.742188 40.921875 291.871094 48.953125 304.433594 49.425781 C 304.433594 49.425781 303.300781 55 311.988281 55.472656 C 311.988281 55.472656 313.96875 63.128906 320.960938 63.699219 C 320.960938 63.699219 318.691406 70.214844 328.609375 71.539062 C 328.609375 71.539062 327.574219 78.535156 337.488281 80.230469 C 337.488281 80.230469 333.523438 81.460938 335.316406 85.519531 C 335.316406 85.519531 335.222656 87.984375 341.359375 88.644531 C 341.359375 88.644531 339.183594 96.582031 347.03125 98.941406 C 347.03125 98.941406 344.285156 106.496094 356.089844 108.582031 C 356.089844 108.582031 357.511719 103.195312 352.316406 99.320312 C 352.316406 99.320312 350.804688 91.757812 344.757812 88.644531 C 344.757812 88.644531 345.703125 83.070312 341.644531 80.515625 C 341.644531 80.515625 339.097656 71.628906 332.667969 70.027344 C 332.667969 70.027344 331.726562 63.226562 326.34375 62.371094 C 326.34375 62.371094 322.664062 55.097656 319.070312 54.8125 C 315.484375 54.527344 317.847656 54.054688 316.804688 51.316406 C 315.769531 48.574219 312.558594 47.347656 309.34375 46.402344 C 306.132812 45.457031 302.636719 38.558594 294.898438 35.0625 C 294.894531 35.0625 287.148438 31.472656 285.921875 36.578125 Z M 285.921875 36.578125 " fill-opacity="1" fill-rule="nonzero"/><path fill="#00798c" d="M 352.789062 114.15625 C 352.789062 114.15625 355.335938 118.878906 362.609375 119.066406 C 362.609375 119.066406 361.480469 112.832031 356.847656 110.277344 C 356.847656 110.277344 349.957031 107.828125 352.789062 114.15625 Z M 352.789062 114.15625 " fill-opacity="1" fill-rule="nonzero"/><path fill="#00798c" d="M 375.929688 180.960938 C 375.929688 180.960938 377.25 173.214844 375.359375 169.714844 C 375.359375 169.714844 375.546875 161.496094 373.566406 157.625 C 373.566406 157.625 374.226562 150.820312 370.445312 148.078125 C 370.445312 148.078125 370.070312 141.460938 367.613281 138.058594 C 367.613281 138.058594 370.070312 131.449219 365.445312 125.304688 C 365.445312 125.304688 365.0625 123.132812 362.234375 121.242188 C 359.398438 119.351562 355.429688 118.316406 355.808594 122 C 355.808594 122 356.757812 126.15625 360.246094 127.101562 C 360.246094 127.101562 361.191406 128.421875 360.058594 129.460938 C 360.058594 129.460938 358.453125 133.523438 363.082031 138.058594 C 363.082031 138.058594 358.363281 143.257812 366.199219 148.078125 C 366.199219 148.078125 363.835938 152.707031 368.652344 157.621094 C 368.652344 157.621094 366.480469 164.707031 371.105469 169.152344 C 371.105469 169.152344 366.199219 173.683594 371.203125 180.015625 C 371.203125 180.015625 366.574219 185.78125 372.433594 191.167969 C 372.433594 191.167969 377.246094 195.890625 377.53125 190.695312 C 377.53125 190.695312 377.910156 183.230469 375.929688 180.960938 Z M 375.929688 180.960938 " fill-opacity="1" fill-rule="nonzero"/><path fill="#00798c" d="M 370.257812 192.492188 C 370.042969 192.695312 368.183594 194.855469 369.882812 198.539062 C 369.882812 198.539062 371.203125 203.171875 374.511719 202.601562 C 374.511719 202.601562 375.171875 200.144531 373.753906 196.273438 C 373.753906 196.273438 372.335938 190.503906 370.257812 192.492188 Z M 370.257812 192.492188 " fill-opacity="1" fill-rule="nonzero"/><path fill="#00798c" d="M 370.257812 202.695312 C 370.257812 202.695312 366.667969 204.207031 368.75 209.59375 C 368.75 209.59375 370.730469 216.015625 374.324219 214.597656 C 374.324219 214.597656 375.171875 213.089844 373.941406 210.441406 C 372.710938 207.800781 373.46875 203.074219 370.257812 202.695312 Z M 370.257812 202.695312 " fill-opacity="1" fill-rule="nonzero"/><path fill="#00798c" d="M 367.804688 214.125 C 367.804688 214.125 365.253906 217.0625 367.425781 221.878906 C 367.425781 221.878906 369.03125 226.882812 371.863281 225.9375 C 371.863281 225.9375 373 223.296875 371.390625 218.382812 C 369.785156 213.464844 367.804688 214.125 367.804688 214.125 Z M 367.804688 214.125 " fill-opacity="1" fill-rule="nonzero"/><path fill="#00798c" d="M 365.917969 224.519531 C 365.917969 224.519531 362.703125 227.078125 366.199219 232.648438 C 366.199219 232.648438 368.558594 237.464844 370.070312 236.242188 C 371.582031 235.011719 369.785156 224.804688 365.917969 224.519531 Z M 365.917969 224.519531 " fill-opacity="1" fill-rule="nonzero"/><path fill="#00798c" d="M 367.425781 238.320312 C 367.425781 238.320312 366.292969 236.054688 365.730469 236.523438 C 365.160156 237 362.324219 232.933594 361.570312 236.054688 C 360.816406 239.167969 361.761719 239.925781 363.082031 241.34375 C 363.082031 241.34375 360.914062 243.894531 361.382812 245.214844 C 361.382812 245.214844 356.945312 246.070312 357.980469 250.890625 C 357.980469 250.890625 359.113281 256.085938 362.234375 254.101562 C 362.234375 254.101562 367.996094 251.363281 366.949219 247.203125 C 366.949219 247.199219 369.5 241.816406 367.425781 238.320312 Z M 367.425781 238.320312 " fill-opacity="1" fill-rule="nonzero"/><path fill="#00798c" d="M 356.757812 253.058594 C 356.757812 253.058594 352.507812 257.976562 354.863281 261.757812 C 354.863281 261.757812 349.011719 262.980469 350.902344 271.679688 C 350.902344 271.679688 343.910156 273.472656 345.425781 281.316406 C 345.425781 281.316406 339.183594 281.125 340.226562 289.628906 C 340.226562 289.628906 333.628906 293.242188 333.761719 297.570312 C 333.769531 297.722656 333.78125 297.882812 333.808594 298.039062 C 334.46875 302.574219 333.996094 307.675781 338.808594 304.179688 C 338.808594 304.179688 342.210938 299.835938 342.210938 296.433594 C 342.210938 296.433594 349.011719 293.597656 347.96875 286.699219 C 347.96875 286.699219 352.792969 284.710938 353.070312 277.0625 C 353.070312 277.0625 357.511719 275.078125 357.792969 267.609375 C 357.792969 267.609375 360.535156 265.628906 359.496094 258.164062 C 358.453125 250.695312 356.757812 253.058594 356.757812 253.058594 Z M 356.757812 253.058594 " fill-opacity="1" fill-rule="nonzero"/><path fill="#00798c" d="M 330.214844 300.121094 C 330.214844 300.121094 327.101562 301.441406 327.476562 306.640625 C 327.476562 306.640625 326.246094 312.214844 330.5 312.308594 C 330.5 312.308594 333.808594 312.59375 333.425781 305.222656 C 333.425781 305.222656 332.761719 298.605469 330.214844 300.121094 Z M 330.214844 300.121094 " fill-opacity="1" fill-rule="nonzero"/><path fill="#00798c" d="M 324.078125 307.960938 C 324.078125 307.960938 319.730469 309.855469 319.730469 314.671875 C 319.730469 314.671875 319.355469 322.328125 323.132812 321.382812 C 323.132812 321.382812 326.53125 319.679688 326.90625 313.726562 C 326.90625 313.726562 326.90625 306.546875 324.078125 307.960938 Z M 324.078125 307.960938 " fill-opacity="1" fill-rule="nonzero"/><path fill="#00798c" d="M 315.671875 316.179688 C 315.671875 316.179688 312.085938 318.925781 311.800781 323.558594 C 311.800781 323.558594 310.570312 331.964844 314.253906 330.640625 C 314.253906 330.640625 318.691406 328.75 318.882812 322.511719 C 318.882812 322.511719 318.222656 313.824219 315.671875 316.179688 Z M 315.671875 316.179688 " fill-opacity="1" fill-rule="nonzero"/><path fill="#00798c" d="M 307.359375 323.460938 C 307.359375 323.460938 302.921875 325.632812 303.207031 331.964844 C 303.207031 331.964844 302.636719 338.484375 306.890625 336.40625 C 306.890625 336.40625 311.140625 333.382812 310.574219 327.804688 C 310.570312 327.804688 310.097656 321.757812 307.359375 323.460938 Z M 307.359375 323.460938 " fill-opacity="1" fill-rule="nonzero"/><path fill="#00798c" d="M 298.667969 330.828125 C 298.667969 330.828125 296.125 331.398438 295.929688 335.460938 C 295.929688 335.460938 294.136719 342.828125 298.953125 341.226562 C 298.953125 341.226562 302.449219 340.089844 301.601562 334.328125 C 301.601562 334.328125 300.75 330.453125 298.667969 330.828125 Z M 298.667969 330.828125 " fill-opacity="1" fill-rule="nonzero"/><path fill="#00798c" d="M 286.585938 339.144531 C 282.714844 333.382812 279.78125 341.410156 279.78125 341.410156 C 276.757812 335.933594 269.207031 347.746094 269.207031 347.746094 C 268.921875 345.953125 265.621094 346.515625 265.621094 346.515625 C 261.839844 347.273438 260.234375 353.035156 260.234375 353.035156 C 259.949219 350.484375 255.984375 350.582031 255.984375 350.582031 C 250.597656 351.339844 249.9375 357.105469 249.9375 357.105469 C 249.75 355.023438 245.496094 354.738281 245.496094 354.738281 C 240.96875 354.554688 238.511719 361.164062 238.511719 361.164062 C 238.890625 358.710938 235.867188 357.761719 235.867188 357.761719 C 232.65625 355.398438 228.125 362.769531 228.125 362.769531 C 229.160156 359.273438 224.535156 359.558594 224.535156 359.558594 C 220.191406 359.371094 216.414062 365.132812 216.414062 365.132812 C 217.070312 361.636719 212.824219 360.878906 212.824219 360.878906 C 208.386719 359.46875 203.660156 370.710938 204.421875 367.5 C 204.449219 367.367188 204.46875 367.242188 204.488281 367.113281 C 204.832031 364.199219 200.925781 363.242188 200.925781 363.242188 C 198 362.585938 193.746094 367.96875 193.746094 367.96875 C 194.125 366.269531 192.238281 364.285156 192.238281 364.285156 C 190.160156 361.261719 186.851562 366.457031 186.851562 366.457031 C 185.4375 365.890625 184.492188 367.78125 184.492188 367.78125 C 184.492188 365.132812 180.238281 365.984375 180.238281 365.984375 C 180.714844 362.964844 176.839844 363.527344 176.839844 363.527344 C 172.496094 365.695312 178.070312 369.761719 178.070312 369.761719 C 179.960938 374.867188 193.269531 370.996094 193.269531 370.996094 C 194.972656 375.339844 204.605469 370.613281 204.605469 370.613281 C 206.78125 375.714844 216.507812 369.664062 216.507812 369.664062 C 219.90625 373.542969 228.3125 367.683594 228.3125 367.683594 C 233.03125 372.503906 238.703125 365.132812 238.703125 365.132812 C 243.332031 371.085938 250.695312 360.878906 250.695312 360.878906 C 255.417969 365.417969 260.707031 357.761719 260.707031 357.761719 C 266.84375 361.066406 271.378906 352.664062 271.378906 352.664062 C 276.480469 356.15625 280.824219 347.746094 280.824219 347.746094 C 282.519531 353.035156 287.054688 344.15625 287.054688 344.15625 C 292.058594 345.484375 291.214844 339.808594 291.214844 339.808594 C 290.832031 335.84375 286.585938 339.144531 286.585938 339.144531 Z M 286.585938 339.144531 " fill-opacity="1" fill-rule="nonzero"/><path fill="#00798c" d="M 168.53125 362.296875 C 164.847656 360.21875 160.128906 365.605469 160.128906 365.605469 C 161.066406 357.003906 149.171875 361.921875 149.171875 361.921875 C 147.191406 356.914062 138.402344 359.273438 138.402344 359.273438 C 138.121094 356.90625 134.15625 355.304688 134.15625 355.304688 C 130.089844 354.550781 126.03125 357.574219 126.03125 357.574219 C 126.316406 354.265625 122.535156 352.5625 122.535156 352.5625 C 118.855469 350.582031 115.542969 355.585938 115.542969 355.585938 C 115.542969 361.820312 125.558594 359.558594 125.558594 359.558594 C 125.460938 364.472656 137.082031 362.957031 137.082031 362.957031 C 137.460938 367.875 147.753906 366.265625 147.753906 366.265625 C 147.566406 371.367188 158.710938 368.34375 158.710938 368.34375 C 158.425781 373.730469 168.53125 369.953125 168.53125 369.953125 C 173.15625 366.640625 168.53125 362.296875 168.53125 362.296875 Z M 168.53125 362.296875 " fill-opacity="1" fill-rule="nonzero"/><path fill="#00798c" d="M 107.992188 348.316406 C 103.652344 349.917969 107.425781 354.265625 107.425781 354.265625 C 115.265625 355.96875 115.074219 351.054688 115.074219 351.054688 C 115.457031 345.664062 107.992188 348.316406 107.992188 348.316406 Z M 107.992188 348.316406 " fill-opacity="1" fill-rule="nonzero"/><path fill="#00798c" d="M 103.550781 343.398438 C 99.300781 340.5625 95.902344 343.398438 95.902344 343.398438 C 95.054688 344.058594 94.203125 346.328125 96.472656 348.6875 C 98.738281 351.054688 103.460938 350.011719 103.460938 350.011719 C 107.519531 346.894531 103.550781 343.398438 103.550781 343.398438 Z M 103.550781 343.398438 " fill-opacity="1" fill-rule="nonzero"/><path fill="#00798c" d="M 86.078125 336.976562 C 81.453125 337.726562 85.425781 342.738281 85.425781 342.738281 C 93.824219 347.464844 95.242188 339.523438 95.242188 339.523438 C 94.867188 335.558594 86.078125 336.976562 86.078125 336.976562 Z M 86.078125 336.976562 " fill-opacity="1" fill-rule="nonzero"/><path fill="#00798c" d="M 84.007812 333.476562 C 82.964844 330.355469 82.777344 329.695312 78.054688 330.738281 C 73.335938 331.773438 76.179688 335.613281 76.449219 335.746094 C 85.140625 340.089844 84.007812 333.476562 84.007812 333.476562 Z M 84.007812 333.476562 " fill-opacity="1" fill-rule="nonzero"/><path fill="#00798c" d="M 76.542969 325.824219 C 74.65625 322.988281 72.199219 326.582031 72.199219 326.582031 C 72.199219 324.121094 67.664062 321.851562 67.664062 321.851562 C 69.179688 312.878906 58.695312 313.0625 58.695312 313.0625 C 61.8125 307.867188 55.011719 306.546875 55.011719 306.546875 C 52.746094 305.882812 51.425781 303.429688 51.425781 303.429688 C 51.332031 298.136719 43.492188 297.285156 43.492188 297.285156 C 46.128906 290.574219 35.933594 288.78125 35.933594 288.78125 C 39.425781 282.257812 30.453125 278.761719 30.453125 278.761719 C 35.644531 272.523438 25.925781 268.941406 25.925781 268.941406 C 30.453125 264.398438 21.769531 258.921875 21.769531 258.921875 C 25.265625 253.53125 17.046875 247.863281 17.046875 247.863281 C 19.691406 244.367188 13.644531 238.417969 13.644531 238.417969 C 18.464844 233.21875 12.417969 230.761719 12.417969 230.761719 C 8.261719 232.179688 9.679688 230.007812 11.285156 226.320312 C 12.890625 222.636719 11.1875 219.984375 11.1875 219.984375 C 6.558594 214.507812 5.710938 225.1875 5.710938 225.1875 C 1.179688 230.007812 8.261719 237.847656 8.261719 237.847656 C 4.296875 240.871094 11.472656 247.582031 11.472656 247.582031 C 7.035156 250.507812 18.367188 259.015625 18.367188 259.015625 C 12.417969 262.230469 22.710938 269.410156 22.710938 269.410156 C 17.894531 273.757812 26.960938 279.519531 26.960938 279.519531 C 24.125 283.578125 33.574219 289.441406 33.574219 289.441406 C 30.269531 294.070312 40.09375 298.328125 40.09375 298.328125 C 37.257812 302.671875 46.789062 306.640625 46.789062 306.640625 C 44.8125 312.023438 54.824219 314.574219 54.824219 314.574219 C 52.363281 320.246094 63.507812 322.894531 63.507812 322.894531 C 61.34375 330.925781 72.488281 331.871094 72.488281 331.871094 C 78.996094 331.398438 76.542969 325.824219 76.542969 325.824219 Z M 76.542969 325.824219 " fill-opacity="1" fill-rule="nonzero"/><path fill="#00798c" d="M 8.734375 215.640625 C 12.324219 212.617188 6.84375 206.667969 6.84375 206.667969 C 9.304688 201.191406 5.523438 194.667969 5.523438 194.667969 C 7.886719 189.753906 4.390625 184.648438 4.390625 184.648438 C 11.1875 184.550781 4.765625 173.308594 4.765625 173.308594 C 9.964844 172.550781 5.617188 161.589844 5.617188 161.589844 C 12.417969 164.046875 8.359375 152.234375 8.359375 152.234375 C 14.398438 153.179688 10.816406 141.558594 10.816406 141.558594 C 16.289062 142.691406 13.738281 130.03125 13.738281 130.03125 C 20.066406 132.203125 17.046875 120.011719 17.046875 120.011719 C 19.21875 120.769531 21.101562 119.449219 21.101562 119.449219 C 23.09375 116.515625 21.582031 114.0625 20.824219 112.550781 C 20.066406 111.035156 22.902344 109.617188 22.902344 109.617188 C 24.792969 111.035156 26.300781 107.066406 26.300781 107.066406 C 27.246094 101.492188 23.941406 102.53125 23.941406 102.53125 C 20.828125 103.003906 21.957031 106.972656 21.957031 106.972656 C 15.914062 106.496094 15.253906 117.746094 15.253906 117.746094 C 10.816406 117.082031 11.660156 127.476562 11.660156 127.476562 C 6.941406 124.832031 8.449219 138.820312 8.449219 138.820312 C 2.027344 134.5625 5.242188 149.589844 5.242188 149.589844 C -0.046875 147.230469 2.5 159.890625 2.5 159.890625 C 0.328125 161.496094 0.519531 171.792969 0.519531 171.792969 C -1.179688 173.402344 -0.519531 182.097656 -0.519531 182.097656 C -2.695312 183.890625 -0.992188 192.964844 -0.992188 192.964844 C -3.828125 195.515625 -0.234375 203.359375 -0.234375 203.359375 C -1.179688 204.589844 0.234375 210.070312 0.234375 210.070312 C 1.273438 217.0625 8.734375 215.640625 8.734375 215.640625 Z M 8.734375 215.640625 " fill-opacity="1" fill-rule="nonzero"/><path fill="#00798c" d="M 30.832031 96.769531 C 34.136719 94.691406 32.0625 87.414062 32.0625 87.414062 C 38.765625 89.207031 39.050781 79.191406 39.050781 79.191406 C 43.582031 80.140625 45.375 70.875 45.375 70.875 C 52.175781 71.820312 52.363281 62.941406 52.363281 62.941406 C 57.75 64.445312 60.398438 55.472656 60.398438 55.472656 C 65.96875 58.972656 68.609375 48.574219 68.609375 48.574219 C 71.445312 49.425781 74.46875 47.34375 74.46875 47.34375 C 78.523438 42.054688 77.109375 38.183594 77.109375 38.183594 C 73.710938 35.253906 67.574219 44.792969 67.574219 44.792969 C 63.222656 43.285156 58.980469 51.128906 58.980469 51.128906 C 55.957031 49.519531 50.667969 59.726562 50.667969 59.726562 C 46.703125 58.683594 43.492188 68.042969 43.492188 68.042969 C 39.613281 66.910156 37.257812 76.355469 37.257812 76.355469 C 33.382812 76.449219 30.929688 85.710938 30.929688 85.710938 C 28.09375 83.914062 25.167969 93.175781 25.167969 93.175781 C 23.5625 98.753906 30.832031 96.769531 30.832031 96.769531 Z M 30.832031 96.769531 " fill-opacity="1" fill-rule="nonzero"/><g fill="#003d5b" fill-opacity="1"><g transform="translate(90.454746, 219.793909)"><g><path d="M 45.519531 -162.070312 L 43.542969 -161.851562 L 35.40625 -161.851562 L 34.964844 -160.3125 L 33.644531 -153.714844 L 32.765625 -152.394531 L 20.890625 -122.707031 L 21.992188 -120.289062 L 18.03125 -117.429688 L 6.15625 -88.621094 L 4.398438 -87.523438 L 4.839844 -73.667969 L 10.117188 -62.453125 L 18.03125 -43.761719 L 24.628906 -30.125 L 27.046875 -30.125 L 26.386719 -26.386719 L 34.085938 -7.257812 L 34.304688 0 L 54.316406 0.21875 L 54.757812 -2.199219 L 57.394531 -9.234375 L 69.269531 -37.382812 L 74.328125 -47.9375 L 74.546875 -51.457031 L 76.308594 -53.65625 L 87.082031 -75.425781 L 87.742188 -87.523438 L 80.265625 -103.796875 L 74.328125 -116.988281 L 72.128906 -116.988281 L 71.027344 -122.925781 L 59.8125 -150.414062 L 55.414062 -162.507812 Z M 45.960938 -27.929688 L 36.285156 -53.21875 L 31.886719 -62.234375 L 27.488281 -65.3125 L 29.6875 -67.949219 L 27.707031 -74.328125 L 24.847656 -81.585938 L 24.628906 -84.222656 L 31.886719 -103.136719 L 30.347656 -106.652344 L 33.425781 -107.535156 L 45.519531 -139.417969 L 46.839844 -135.242188 L 51.898438 -121.828125 L 55.855469 -119.410156 L 53.875 -116.769531 L 62.453125 -94.558594 L 65.09375 -87.082031 L 66.851562 -81.585938 L 56.074219 -55.195312 L 56.296875 -51.238281 L 56.515625 -51.238281 L 53.875 -48.597656 L 46.839844 -25.507812 Z M 45.960938 -27.929688 "/></g></g></g><g fill="#003d5b" fill-opacity="1"><g transform="translate(181.93514, 219.793909)"><g><path d="M 50.578125 -9.894531 L 58.273438 -16.054688 L 64.652344 -23.96875 L 73.667969 -30.347656 L 82.246094 -39.144531 L 82.464844 -49.257812 L 82.246094 -53.875 L 59.15625 -75.867188 L 56.734375 -78.066406 L 53.4375 -80.925781 L 51.898438 -82.246094 L 62.894531 -95 L 75.867188 -109.074219 L 77.40625 -122.046875 L 76.527344 -126.445312 L 61.574219 -138.320312 L 32.546875 -164.050781 L 14.074219 -158.769531 L 14.515625 -146.238281 L 15.171875 -142.9375 L 17.371094 -140.738281 L 14.953125 -134.140625 L 15.171875 -108.851562 L 16.054688 -85.324219 L 14.734375 -75.207031 L 14.734375 -42.222656 L 15.613281 -31.886719 L 13.855469 -1.980469 L 25.949219 0.21875 L 35.183594 3.078125 Z M 36.945312 -74.109375 L 46.839844 -65.3125 L 52.117188 -59.8125 L 55.195312 -56.957031 L 63.113281 -47.058594 L 54.757812 -37.824219 L 52.117188 -36.0625 L 46.179688 -31.007812 L 34.964844 -19.132812 L 35.183594 -32.546875 L 32.984375 -34.746094 L 34.964844 -36.503906 L 34.964844 -75.425781 Z M 33.644531 -107.753906 L 34.304688 -119.1875 L 34.085938 -138.539062 L 49.039062 -125.347656 L 50.796875 -125.125 L 51.898438 -122.488281 L 58.714844 -116.328125 L 58.496094 -116.328125 L 50.796875 -107.972656 L 49.917969 -102.476562 L 46.621094 -102.035156 L 35.84375 -90.378906 L 34.085938 -89.0625 Z M 33.644531 -107.753906 "/></g></g></g><g fill="#ffffff" fill-opacity="1"><g transform="translate(98.492312, 223.384774)"><g><path d="M 47.660156 -169.695312 L 45.589844 -169.464844 L 37.070312 -169.464844 L 36.609375 -167.851562 L 35.226562 -160.945312 L 34.308594 -159.5625 L 21.875 -128.480469 L 23.023438 -125.949219 L 18.878906 -122.953125 L 6.445312 -92.792969 L 4.605469 -91.640625 L 5.066406 -77.132812 L 10.589844 -65.390625 L 18.878906 -45.820312 L 25.789062 -31.542969 L 28.320312 -31.542969 L 27.628906 -27.628906 L 35.6875 -7.597656 L 35.917969 0 L 56.871094 0.230469 L 57.332031 -2.300781 L 60.09375 -9.671875 L 72.527344 -39.144531 L 77.824219 -50.195312 L 78.054688 -53.878906 L 79.898438 -56.179688 L 91.179688 -78.976562 L 91.871094 -91.640625 L 84.042969 -108.679688 L 77.824219 -122.492188 L 75.523438 -122.492188 L 74.371094 -128.710938 L 62.628906 -157.492188 L 58.023438 -170.15625 Z M 48.121094 -29.242188 L 37.992188 -55.722656 L 33.386719 -65.160156 L 28.78125 -68.382812 L 31.082031 -71.148438 L 29.011719 -77.824219 L 26.019531 -85.421875 L 25.789062 -88.1875 L 33.386719 -107.988281 L 31.773438 -111.671875 L 35 -112.59375 L 47.660156 -145.980469 L 49.042969 -141.605469 L 54.339844 -127.558594 L 58.484375 -125.027344 L 56.410156 -122.261719 L 65.390625 -99.007812 L 68.15625 -91.179688 L 69.996094 -85.421875 L 58.714844 -57.792969 L 58.945312 -53.648438 L 59.175781 -53.648438 L 56.410156 -50.886719 L 49.042969 -26.710938 Z M 48.121094 -29.242188 "/></g></g></g><g fill="#ffffff" fill-opacity="1"><g transform="translate(194.276668, 223.384774)"><g><path d="M 52.957031 -10.359375 L 61.015625 -16.808594 L 67.695312 -25.097656 L 77.132812 -31.773438 L 86.113281 -40.984375 L 86.34375 -51.578125 L 86.113281 -56.410156 L 61.9375 -79.4375 L 59.40625 -81.738281 L 55.949219 -84.734375 L 54.339844 -86.113281 L 65.851562 -99.46875 L 79.4375 -114.203125 L 81.046875 -127.789062 L 80.128906 -132.394531 L 64.46875 -144.828125 L 34.078125 -171.765625 L 14.734375 -166.242188 L 15.195312 -153.117188 L 15.886719 -149.664062 L 18.191406 -147.359375 L 15.65625 -140.453125 L 15.886719 -113.972656 L 16.808594 -89.335938 L 15.425781 -78.746094 L 15.425781 -44.207031 L 16.347656 -33.386719 L 14.503906 -2.070312 L 27.167969 0.230469 L 36.839844 3.222656 Z M 38.683594 -77.59375 L 49.042969 -68.382812 L 54.570312 -62.628906 L 57.792969 -59.636719 L 66.082031 -49.273438 L 57.332031 -39.601562 L 54.570312 -37.761719 L 48.351562 -32.464844 L 36.609375 -20.03125 L 36.839844 -34.078125 L 34.539062 -36.378906 L 36.609375 -38.222656 L 36.609375 -78.976562 Z M 35.226562 -112.824219 L 35.917969 -124.796875 L 35.6875 -145.058594 L 51.347656 -131.242188 L 53.1875 -131.011719 L 54.339844 -128.25 L 61.476562 -121.804688 L 61.246094 -121.804688 L 53.1875 -113.054688 L 52.265625 -107.296875 L 48.8125 -106.835938 L 37.53125 -94.632812 L 35.6875 -93.25 Z M 35.226562 -112.824219 "/></g></g></g><g fill="#ffffff" fill-opacity="1"><g transform="translate(46.221681, 296.417676)"><g><path d="M 5.859375 -4.304688 L 6.027344 -3.613281 L 6.214844 -3.484375 L 6.046875 -3.277344 L 6.132812 -2.6875 L 6.40625 -0.0429688 L 6.761719 0.148438 L 7.035156 0.148438 L 8.589844 -0.355469 L 8.359375 -1.261719 L 8.042969 -1.597656 L 8.167969 -1.765625 L 7.960938 -3.085938 L 7.433594 -5.039062 L 7.433594 -5.335938 L 6.425781 -10.394531 L 6.175781 -10.585938 L 6.320312 -10.960938 L 5.648438 -14.175781 L 5.566406 -14.386719 L 5.503906 -14.554688 L 5.523438 -15.289062 L 5.164062 -15.457031 L 3.445312 -15.371094 L 3.234375 -14.050781 L 3.046875 -13.167969 L 2.898438 -12.328125 L 3.128906 -12.011719 L 2.75 -11.570312 L 2.121094 -8.757812 L 2.121094 -8.378906 L 1.996094 -7.9375 L 1.933594 -7.539062 L 1.511719 -4.957031 L 1.53125 -4.535156 L 1.300781 -4.304688 L 1.09375 -2.980469 L 0.523438 -0.421875 L 1.261719 0.0429688 L 2.5625 0.167969 L 2.792969 -1.238281 L 2.644531 -1.828125 L 2.835938 -2.058594 L 3.066406 -3.550781 L 3.484375 -3.71875 L 3.675781 -3.800781 L 5.082031 -4.136719 L 5.503906 -4.429688 L 5.523438 -4.429688 L 5.816406 -4.472656 Z M 3.925781 -9.113281 L 3.820312 -9.449219 L 4.03125 -9.554688 L 4.453125 -12.117188 L 4.765625 -9.890625 L 4.851562 -9.511719 L 4.933594 -8.421875 L 5.355469 -6.152344 L 4.765625 -6.007812 L 3.402344 -5.585938 L 3.421875 -5.734375 L 3.675781 -7.097656 L 3.652344 -7.078125 Z M 3.925781 -9.113281 "/></g></g></g><g fill="#ffffff" fill-opacity="1"><g transform="translate(55.146721, 296.417676)"><g/></g></g><g fill="#ffffff" fill-opacity="1"><g transform="translate(59.451737, 296.417676)"><g><path d="M 3.003906 -3.738281 L 3.046875 -3.507812 L 2.457031 -3.234375 C 2.332031 -3.023438 2.226562 -2.835938 2.101562 -2.625 C 1.910156 -2.332031 1.765625 -2.101562 1.554688 -1.804688 L 1.15625 -1.449219 L 0.839844 -0.671875 L 2.5625 0.398438 L 3.128906 -0.292969 L 3.359375 -0.964844 L 3.339844 -0.882812 C 3.402344 -1.007812 3.464844 -1.175781 3.550781 -1.324219 L 4.390625 -2.457031 L 5.523438 -3.84375 L 6.277344 -5.082031 L 6.238281 -6.71875 L 5.671875 -7.140625 L 3.71875 -8.96875 L 3.382812 -9.175781 L 2.980469 -9.742188 L 2.582031 -10.226562 L 3.214844 -11.066406 L 3.253906 -11.214844 L 3.464844 -11.507812 L 4.660156 -12.914062 L 4.851562 -13.292969 L 5.398438 -13.839844 L 5.964844 -14.679688 L 4.726562 -15.664062 L 4.09375 -15.730469 L 3.589844 -14.890625 C 3.570312 -14.824219 3.652344 -14.722656 3.613281 -14.636719 L 3.191406 -14.363281 L 2.644531 -13.628906 L 2.6875 -13.398438 L 1.617188 -12.160156 L 0.589844 -10.6875 L 0.609375 -9.367188 L 1.617188 -8.378906 L 3.234375 -6.886719 L 3.652344 -6.699219 L 4.367188 -5.839844 Z M 3.003906 -3.738281 "/></g></g></g><g fill="#ffffff" fill-opacity="1"><g transform="translate(66.066764, 296.417676)"><g><path d="M 4.347656 -15.476562 L 4.15625 -15.457031 L 3.382812 -15.457031 L 3.339844 -15.308594 L 3.214844 -14.679688 L 3.128906 -14.554688 L 1.996094 -11.71875 L 2.101562 -11.488281 L 1.722656 -11.214844 L 0.589844 -8.464844 L 0.421875 -8.359375 L 0.460938 -7.035156 L 0.964844 -5.964844 L 1.722656 -4.179688 L 2.351562 -2.878906 L 2.582031 -2.878906 L 2.519531 -2.519531 L 3.253906 -0.691406 L 3.277344 0 L 5.1875 0.0195312 L 5.230469 -0.210938 L 5.480469 -0.882812 L 6.613281 -3.570312 L 7.097656 -4.578125 L 7.117188 -4.914062 L 7.285156 -5.125 L 8.316406 -7.203125 L 8.378906 -8.359375 L 7.664062 -9.910156 L 7.097656 -11.171875 L 6.886719 -11.171875 L 6.78125 -11.738281 L 5.710938 -14.363281 L 5.292969 -15.519531 Z M 4.390625 -2.667969 L 3.464844 -5.082031 L 3.046875 -5.941406 L 2.625 -6.238281 L 2.835938 -6.488281 L 2.644531 -7.097656 L 2.371094 -7.789062 L 2.351562 -8.042969 L 3.046875 -9.847656 L 2.898438 -10.183594 L 3.191406 -10.269531 L 4.347656 -13.3125 L 4.472656 -12.914062 L 4.957031 -11.632812 L 5.335938 -11.402344 L 5.144531 -11.152344 L 5.964844 -9.03125 L 6.214844 -8.316406 L 6.382812 -7.789062 L 5.355469 -5.269531 L 5.375 -4.894531 L 5.398438 -4.894531 L 5.144531 -4.640625 L 4.472656 -2.4375 Z M 4.390625 -2.667969 "/></g></g></g><g fill="#ffffff" fill-opacity="1"><g transform="translate(74.802806, 296.417676)"><g><path d="M 0.671875 -6.214844 L 1.429688 -4.851562 L 2.394531 -3.949219 L 2.226562 -3.570312 L 3.820312 -1.09375 L 3.863281 -0.839844 L 4.578125 0.273438 L 5.292969 -0.1875 L 6.382812 -1.09375 L 5.902344 -1.867188 L 4.808594 -3.296875 L 3.84375 -4.933594 L 3.066406 -6.132812 L 2.878906 -6.550781 L 2.582031 -6.847656 L 2.371094 -7.246094 L 2.058594 -7.855469 L 2.332031 -8.359375 L 2.730469 -9.070312 L 3.421875 -10.164062 L 4.683594 -12.03125 L 4.789062 -12.601562 L 5.144531 -12.832031 L 5.734375 -13.648438 L 6.320312 -14.699219 L 4.746094 -15.75 L 4.011719 -14.890625 L 3.988281 -14.722656 L 2.8125 -12.789062 L 2.8125 -12.703125 L 2.289062 -11.863281 L 2.289062 -11.359375 L 1.53125 -10.625 L 0.167969 -8.316406 L 0.1875 -6.972656 Z M 0.671875 -6.214844 "/></g></g></g><g fill="#ffffff" fill-opacity="1"><g transform="translate(81.312834, 296.417676)"><g><path d="M 1.742188 -9.136719 L 1.679688 -7.980469 L 1.617188 -7.328125 L 1.617188 -2.644531 L 1.867188 -2.289062 L 1.617188 -1.867188 L 1.324219 0 L 2.289062 0.0195312 L 2.730469 0.0429688 L 3.652344 -0.253906 L 3.675781 -1.027344 L 3.632812 -1.429688 L 3.589844 -1.742188 L 3.589844 -7.558594 L 3.359375 -7.707031 L 3.550781 -8.148438 L 3.507812 -8.671875 L 3.421875 -9.492188 L 3.484375 -10.5625 L 3.550781 -13.3125 L 3.652344 -13.839844 L 3.757812 -15.371094 L 2.394531 -15.457031 L 1.40625 -15.394531 L 1.511719 -14.34375 L 1.699219 -14.238281 L 1.53125 -13.859375 L 1.597656 -9.660156 Z M 1.742188 -9.136719 "/></g></g></g><g fill="#ffffff" fill-opacity="1"><g transform="translate(86.394858, 296.417676)"><g><path d="M 5.859375 -4.304688 L 6.027344 -3.613281 L 6.214844 -3.484375 L 6.046875 -3.277344 L 6.132812 -2.6875 L 6.40625 -0.0429688 L 6.761719 0.148438 L 7.035156 0.148438 L 8.589844 -0.355469 L 8.359375 -1.261719 L 8.042969 -1.597656 L 8.167969 -1.765625 L 7.960938 -3.085938 L 7.433594 -5.039062 L 7.433594 -5.335938 L 6.425781 -10.394531 L 6.175781 -10.585938 L 6.320312 -10.960938 L 5.648438 -14.175781 L 5.566406 -14.386719 L 5.503906 -14.554688 L 5.523438 -15.289062 L 5.164062 -15.457031 L 3.445312 -15.371094 L 3.234375 -14.050781 L 3.046875 -13.167969 L 2.898438 -12.328125 L 3.128906 -12.011719 L 2.75 -11.570312 L 2.121094 -8.757812 L 2.121094 -8.378906 L 1.996094 -7.9375 L 1.933594 -7.539062 L 1.511719 -4.957031 L 1.53125 -4.535156 L 1.300781 -4.304688 L 1.09375 -2.980469 L 0.523438 -0.421875 L 1.261719 0.0429688 L 2.5625 0.167969 L 2.792969 -1.238281 L 2.644531 -1.828125 L 2.835938 -2.058594 L 3.066406 -3.550781 L 3.484375 -3.71875 L 3.675781 -3.800781 L 5.082031 -4.136719 L 5.503906 -4.429688 L 5.523438 -4.429688 L 5.816406 -4.472656 Z M 3.925781 -9.113281 L 3.820312 -9.449219 L 4.03125 -9.554688 L 4.453125 -12.117188 L 4.765625 -9.890625 L 4.851562 -9.511719 L 4.933594 -8.421875 L 5.355469 -6.152344 L 4.765625 -6.007812 L 3.402344 -5.585938 L 3.421875 -5.734375 L 3.675781 -7.097656 L 3.652344 -7.078125 Z M 3.925781 -9.113281 "/></g></g></g><g fill="#ffffff" fill-opacity="1"><g transform="translate(95.319898, 296.417676)"><g><path d="M 5.101562 -1.890625 L 3.507812 -1.847656 L 3.507812 -2.457031 L 3.421875 -3.925781 L 3.445312 -3.949219 L 3.382812 -5.398438 L 3.339844 -6.679688 L 3.085938 -6.949219 L 3.316406 -7.308594 L 3.316406 -8.335938 L 3.445312 -10.648438 L 3.507812 -13 L 3.589844 -13.714844 L 3.613281 -15.078125 L 3.085938 -15.5625 L 2.394531 -15.394531 L 1.300781 -15.394531 L 1.449219 -13.105469 L 1.785156 -13 L 1.511719 -12.640625 L 1.554688 -5.796875 L 1.40625 -2.332031 L 1.597656 -1.804688 L 1.324219 -1.429688 L 1.363281 0 L 2.308594 0.0429688 L 3.234375 -0.125 L 3.421875 0 L 4.324219 0 L 4.621094 -0.0195312 L 6.214844 0.0859375 L 6.53125 -0.316406 L 6.613281 -1.636719 L 6.550781 -2.078125 L 5.566406 -2.035156 Z M 5.101562 -1.890625 "/></g></g></g><g fill="#ffffff" fill-opacity="1"><g transform="translate(102.291925, 296.417676)"><g/></g></g><g fill="#ffffff" fill-opacity="1"><g transform="translate(106.59694, 296.417676)"><g><path d="M 3.90625 -13.628906 L 2.960938 -15.539062 L 2.183594 -15.433594 L 1.28125 -15.371094 L 1.300781 -14.195312 L 1.324219 -13.984375 L 1.511719 -13.714844 L 1.53125 -13.609375 L 1.363281 -13.3125 L 1.429688 -12.285156 L 1.492188 -11.257812 L 1.46875 -9.367188 L 1.804688 -9.136719 L 1.46875 -8.777344 L 1.34375 -3.003906 L 1.34375 -2.035156 L 1.53125 -1.53125 L 1.261719 -0.757812 L 1.429688 0.0429688 L 3.402344 0 L 3.402344 -0.902344 L 3.359375 -3.988281 L 3.214844 -6.972656 L 3.359375 -7.328125 L 3.359375 -10.226562 L 3.339844 -10.246094 L 3.339844 -10.269531 L 3.382812 -11.675781 L 3.820312 -10.816406 L 3.96875 -10.480469 L 4.054688 -10.3125 L 4.558594 -9.324219 L 5.125 -9.304688 L 5.878906 -9.449219 L 6.175781 -10.207031 L 6.445312 -10.710938 L 6.445312 -10.921875 L 6.804688 -11.382812 L 6.992188 -11.71875 L 7.078125 -10.941406 L 6.929688 -6.363281 L 7.015625 -5.398438 L 7.246094 -5.1875 L 6.992188 -4.808594 L 6.992188 -2.5625 L 6.847656 -1.175781 L 6.910156 -0.273438 L 7.414062 0.0429688 L 9.15625 -0.0429688 L 9.03125 -1.363281 L 8.988281 -2.035156 L 8.839844 -3.191406 L 8.945312 -4.515625 L 8.777344 -11.277344 L 8.566406 -11.570312 L 8.820312 -12.054688 L 8.96875 -15.160156 L 8.398438 -15.414062 L 7.371094 -15.601562 L 6.277344 -13.777344 L 6.445312 -13.417969 L 6.132812 -13.3125 L 5.460938 -12.097656 L 5.101562 -11.550781 L 5.082031 -11.570312 Z M 3.90625 -13.628906 "/></g></g></g><g fill="#ffffff" fill-opacity="1"><g transform="translate(116.949986, 296.417676)"><g><path d="M 6.699219 -13.460938 L 6.742188 -14.636719 L 6.71875 -15.457031 L 4.640625 -15.433594 L 3.820312 -15.265625 L 3.527344 -15.433594 L 2.332031 -15.433594 L 1.34375 -15.308594 L 1.449219 -13.816406 L 1.679688 -13.546875 L 1.449219 -13.1875 L 1.46875 -12.117188 L 1.449219 -10.480469 L 1.449219 -8.925781 L 1.386719 -8.148438 L 1.554688 -6.070312 L 1.46875 -5.902344 L 1.492188 -4.765625 L 1.492188 -4.285156 L 1.679688 -4.03125 L 1.429688 -3.484375 L 1.40625 -2.519531 L 1.429688 -2.289062 L 1.300781 -0.859375 L 1.40625 0 L 2.980469 0.0195312 L 3.148438 -0.0859375 L 3.886719 -0.0859375 L 5.082031 0.0429688 L 6.46875 0.0625 L 6.949219 -0.148438 L 7.035156 -0.925781 L 7.078125 -1.972656 L 6.027344 -1.996094 L 5.503906 -1.828125 L 3.820312 -1.804688 L 3.652344 -1.847656 L 3.464844 -1.890625 L 3.421875 -3.925781 L 3.402344 -3.96875 L 3.464844 -4.15625 L 3.339844 -4.765625 L 3.421875 -6.929688 L 3.757812 -6.929688 L 5.082031 -6.886719 L 6.109375 -6.847656 L 6.152344 -7.707031 L 6.277344 -8.335938 L 6.007812 -8.863281 L 4.933594 -8.757812 L 4.117188 -8.714844 L 3.339844 -8.757812 L 3.296875 -9.574219 L 3.085938 -9.742188 L 3.316406 -10.121094 L 3.421875 -10.753906 L 3.421875 -12.832031 L 3.464844 -13.355469 L 3.464844 -13.585938 L 3.652344 -13.585938 L 4.808594 -13.546875 L 5.144531 -13.609375 L 5.207031 -13.628906 L 5.710938 -13.460938 Z M 6.699219 -13.460938 "/></g></g></g><g fill="#ffffff" fill-opacity="1"><g transform="translate(124.552021, 296.417676)"><g><path d="M 4.894531 -1.996094 L 5.628906 -3.484375 L 7.789062 -6.804688 L 8.167969 -7.433594 L 8.148438 -8.96875 L 7.769531 -9.449219 L 7.789062 -9.40625 L 6.195312 -11.527344 L 5.648438 -12.496094 L 4.914062 -13.230469 L 4.683594 -13.921875 L 3.382812 -15.707031 L 2.269531 -15.371094 L 1.363281 -15.097656 L 1.386719 -14.320312 L 1.449219 -13.230469 L 1.660156 -12.957031 L 1.449219 -12.558594 L 1.46875 -7.054688 L 1.597656 -6.238281 L 1.46875 -1.53125 L 1.46875 -1.554688 L 1.429688 -0.148438 L 2.792969 0.0429688 L 3.484375 0.230469 Z M 3.339844 -9.847656 L 3.277344 -12.894531 L 3.402344 -12.746094 L 5.480469 -9.40625 L 5.902344 -9.070312 L 5.984375 -8.566406 L 6.363281 -8 L 5.984375 -7.390625 L 5.292969 -6.238281 L 4.410156 -4.535156 L 4.578125 -4.347656 L 4.199219 -4.15625 L 3.277344 -2.667969 L 3.253906 -2.625 L 3.277344 -3.757812 L 3.359375 -7.917969 L 3.023438 -8.902344 Z M 3.339844 -9.847656 "/></g></g></g><g fill="#ffffff" fill-opacity="1"><g transform="translate(132.868053, 296.417676)"><g><path d="M 1.742188 -9.136719 L 1.679688 -7.980469 L 1.617188 -7.328125 L 1.617188 -2.644531 L 1.867188 -2.289062 L 1.617188 -1.867188 L 1.324219 0 L 2.289062 0.0195312 L 2.730469 0.0429688 L 3.652344 -0.253906 L 3.675781 -1.027344 L 3.632812 -1.429688 L 3.589844 -1.742188 L 3.589844 -7.558594 L 3.359375 -7.707031 L 3.550781 -8.148438 L 3.507812 -8.671875 L 3.421875 -9.492188 L 3.484375 -10.5625 L 3.550781 -13.3125 L 3.652344 -13.839844 L 3.757812 -15.371094 L 2.394531 -15.457031 L 1.40625 -15.394531 L 1.511719 -14.34375 L 1.699219 -14.238281 L 1.53125 -13.859375 L 1.597656 -9.660156 Z M 1.742188 -9.136719 "/></g></g></g><g fill="#ffffff" fill-opacity="1"><g transform="translate(137.950076, 296.417676)"><g><path d="M 5.859375 -4.304688 L 6.027344 -3.613281 L 6.214844 -3.484375 L 6.046875 -3.277344 L 6.132812 -2.6875 L 6.40625 -0.0429688 L 6.761719 0.148438 L 7.035156 0.148438 L 8.589844 -0.355469 L 8.359375 -1.261719 L 8.042969 -1.597656 L 8.167969 -1.765625 L 7.960938 -3.085938 L 7.433594 -5.039062 L 7.433594 -5.335938 L 6.425781 -10.394531 L 6.175781 -10.585938 L 6.320312 -10.960938 L 5.648438 -14.175781 L 5.566406 -14.386719 L 5.503906 -14.554688 L 5.523438 -15.289062 L 5.164062 -15.457031 L 3.445312 -15.371094 L 3.234375 -14.050781 L 3.046875 -13.167969 L 2.898438 -12.328125 L 3.128906 -12.011719 L 2.75 -11.570312 L 2.121094 -8.757812 L 2.121094 -8.378906 L 1.996094 -7.9375 L 1.933594 -7.539062 L 1.511719 -4.957031 L 1.53125 -4.535156 L 1.300781 -4.304688 L 1.09375 -2.980469 L 0.523438 -0.421875 L 1.261719 0.0429688 L 2.5625 0.167969 L 2.792969 -1.238281 L 2.644531 -1.828125 L 2.835938 -2.058594 L 3.066406 -3.550781 L 3.484375 -3.71875 L 3.675781 -3.800781 L 5.082031 -4.136719 L 5.503906 -4.429688 L 5.523438 -4.429688 L 5.816406 -4.472656 Z M 3.925781 -9.113281 L 3.820312 -9.449219 L 4.03125 -9.554688 L 4.453125 -12.117188 L 4.765625 -9.890625 L 4.851562 -9.511719 L 4.933594 -8.421875 L 5.355469 -6.152344 L 4.765625 -6.007812 L 3.402344 -5.585938 L 3.421875 -5.734375 L 3.675781 -7.097656 L 3.652344 -7.078125 Z M 3.925781 -9.113281 "/></g></g></g><g fill="#ffffff" fill-opacity="1"><g transform="translate(146.875116, 296.417676)"><g/></g></g><g fill="#ffffff" fill-opacity="1"><g transform="translate(151.180132, 296.417676)"><g><path d="M 3.003906 -3.738281 L 3.046875 -3.507812 L 2.457031 -3.234375 C 2.332031 -3.023438 2.226562 -2.835938 2.101562 -2.625 C 1.910156 -2.332031 1.765625 -2.101562 1.554688 -1.804688 L 1.15625 -1.449219 L 0.839844 -0.671875 L 2.5625 0.398438 L 3.128906 -0.292969 L 3.359375 -0.964844 L 3.339844 -0.882812 C 3.402344 -1.007812 3.464844 -1.175781 3.550781 -1.324219 L 4.390625 -2.457031 L 5.523438 -3.84375 L 6.277344 -5.082031 L 6.238281 -6.71875 L 5.671875 -7.140625 L 3.71875 -8.96875 L 3.382812 -9.175781 L 2.980469 -9.742188 L 2.582031 -10.226562 L 3.214844 -11.066406 L 3.253906 -11.214844 L 3.464844 -11.507812 L 4.660156 -12.914062 L 4.851562 -13.292969 L 5.398438 -13.839844 L 5.964844 -14.679688 L 4.726562 -15.664062 L 4.09375 -15.730469 L 3.589844 -14.890625 C 3.570312 -14.824219 3.652344 -14.722656 3.613281 -14.636719 L 3.191406 -14.363281 L 2.644531 -13.628906 L 2.6875 -13.398438 L 1.617188 -12.160156 L 0.589844 -10.6875 L 0.609375 -9.367188 L 1.617188 -8.378906 L 3.234375 -6.886719 L 3.652344 -6.699219 L 4.367188 -5.839844 Z M 3.003906 -3.738281 "/></g></g></g><g fill="#ffffff" fill-opacity="1"><g transform="translate(157.79516, 296.417676)"><g><path d="M 1.742188 -9.136719 L 1.679688 -7.980469 L 1.617188 -7.328125 L 1.617188 -2.644531 L 1.867188 -2.289062 L 1.617188 -1.867188 L 1.324219 0 L 2.289062 0.0195312 L 2.730469 0.0429688 L 3.652344 -0.253906 L 3.675781 -1.027344 L 3.632812 -1.429688 L 3.589844 -1.742188 L 3.589844 -7.558594 L 3.359375 -7.707031 L 3.550781 -8.148438 L 3.507812 -8.671875 L 3.421875 -9.492188 L 3.484375 -10.5625 L 3.550781 -13.3125 L 3.652344 -13.839844 L 3.757812 -15.371094 L 2.394531 -15.457031 L 1.40625 -15.394531 L 1.511719 -14.34375 L 1.699219 -14.238281 L 1.53125 -13.859375 L 1.597656 -9.660156 Z M 1.742188 -9.136719 "/></g></g></g><g fill="#ffffff" fill-opacity="1"><g transform="translate(162.877183, 296.417676)"><g><path d="M 5.082031 -15.414062 L 4.117188 -15.351562 C 3.820312 -15.351562 3.550781 -15.351562 3.234375 -15.371094 C 3.066406 -15.371094 2.878906 -15.226562 2.75 -15.226562 L 2.351562 -15.394531 L 0.316406 -15.496094 L 0.253906 -13.777344 L 0.503906 -13.523438 L 1.785156 -13.566406 C 1.847656 -13.566406 1.972656 -13.585938 2.121094 -13.628906 L 2.226562 -13.734375 L 2.6875 -13.671875 L 2.8125 -12.808594 L 2.730469 -11.464844 L 2.855469 -10.480469 L 2.75 -6.195312 L 2.644531 -3.234375 L 2.835938 -3.023438 L 2.519531 -1.699219 L 2.519531 -0.0859375 L 3.632812 0.0859375 L 4.222656 -0.0195312 L 4.828125 -0.355469 L 4.660156 -1.847656 L 4.660156 -5.796875 L 4.410156 -6.195312 L 4.429688 -6.214844 L 4.621094 -7.476562 L 4.597656 -9.09375 L 4.597656 -9.449219 C 4.597656 -9.597656 4.578125 -9.785156 4.578125 -9.953125 C 4.558594 -10.078125 4.558594 -10.605469 4.558594 -10.792969 L 4.597656 -12.347656 L 4.515625 -12.808594 L 4.640625 -13.691406 L 5.292969 -13.691406 L 5.921875 -13.648438 L 6.132812 -13.585938 L 7.078125 -13.585938 L 7.140625 -14.574219 L 7.015625 -15.457031 Z M 5.082031 -15.414062 "/></g></g></g><g fill="#ffffff" fill-opacity="1"><g transform="translate(170.185208, 296.417676)"><g><path d="M 6.699219 -13.460938 L 6.742188 -14.636719 L 6.71875 -15.457031 L 4.640625 -15.433594 L 3.820312 -15.265625 L 3.527344 -15.433594 L 2.332031 -15.433594 L 1.34375 -15.308594 L 1.449219 -13.816406 L 1.679688 -13.546875 L 1.449219 -13.1875 L 1.46875 -12.117188 L 1.449219 -10.480469 L 1.449219 -8.925781 L 1.386719 -8.148438 L 1.554688 -6.070312 L 1.46875 -5.902344 L 1.492188 -4.765625 L 1.492188 -4.285156 L 1.679688 -4.03125 L 1.429688 -3.484375 L 1.40625 -2.519531 L 1.429688 -2.289062 L 1.300781 -0.859375 L 1.40625 0 L 2.980469 0.0195312 L 3.148438 -0.0859375 L 3.886719 -0.0859375 L 5.082031 0.0429688 L 6.46875 0.0625 L 6.949219 -0.148438 L 7.035156 -0.925781 L 7.078125 -1.972656 L 6.027344 -1.996094 L 5.503906 -1.828125 L 3.820312 -1.804688 L 3.652344 -1.847656 L 3.464844 -1.890625 L 3.421875 -3.925781 L 3.402344 -3.96875 L 3.464844 -4.15625 L 3.339844 -4.765625 L 3.421875 -6.929688 L 3.757812 -6.929688 L 5.082031 -6.886719 L 6.109375 -6.847656 L 6.152344 -7.707031 L 6.277344 -8.335938 L 6.007812 -8.863281 L 4.933594 -8.757812 L 4.117188 -8.714844 L 3.339844 -8.757812 L 3.296875 -9.574219 L 3.085938 -9.742188 L 3.316406 -10.121094 L 3.421875 -10.753906 L 3.421875 -12.832031 L 3.464844 -13.355469 L 3.464844 -13.585938 L 3.652344 -13.585938 L 4.808594 -13.546875 L 5.144531 -13.609375 L 5.207031 -13.628906 L 5.710938 -13.460938 Z M 6.699219 -13.460938 "/></g></g></g><g fill="#ffffff" fill-opacity="1"><g transform="translate(177.787243, 296.417676)"><g/></g></g><g fill="#ffffff" fill-opacity="1"><g transform="translate(182.092258, 296.417676)"><g><path d="M 1.511719 -6.007812 L 1.449219 -3.863281 L 1.722656 -3.484375 L 1.429688 -2.582031 L 1.324219 -0.105469 L 2.8125 0.0429688 L 3.652344 0 L 3.652344 -1.027344 L 3.550781 -1.324219 L 3.589844 -1.972656 L 3.507812 -2.855469 L 3.445312 -3.78125 L 3.464844 -5.542969 L 3.402344 -6.425781 L 3.402344 -6.824219 L 5.039062 -6.78125 L 5.144531 -6.847656 L 5.480469 -6.699219 L 6.195312 -6.699219 L 6.363281 -7.390625 L 6.425781 -7.917969 L 6.300781 -8.800781 L 4.957031 -8.714844 L 4.660156 -8.714844 L 3.445312 -8.671875 L 3.402344 -11.277344 L 3.085938 -11.59375 L 3.339844 -11.738281 L 3.382812 -12.769531 L 3.445312 -13.523438 L 3.589844 -13.523438 L 3.886719 -13.585938 L 4.621094 -13.628906 L 5.859375 -13.417969 L 6.679688 -13.441406 L 6.867188 -14.386719 L 6.867188 -15.457031 L 4.621094 -15.433594 L 4.390625 -15.183594 L 3.84375 -15.394531 L 2.4375 -15.433594 L 1.363281 -15.414062 L 1.429688 -14.089844 L 1.386719 -13.0625 L 1.511719 -12.683594 L 1.511719 -12.558594 L 1.597656 -8.945312 L 1.554688 -8.777344 L 1.554688 -8.296875 Z M 1.511719 -6.007812 "/></g></g></g><g fill="#ffffff" fill-opacity="1"><g transform="translate(189.400283, 296.417676)"><g><path d="M 4.347656 -15.476562 L 4.15625 -15.457031 L 3.382812 -15.457031 L 3.339844 -15.308594 L 3.214844 -14.679688 L 3.128906 -14.554688 L 1.996094 -11.71875 L 2.101562 -11.488281 L 1.722656 -11.214844 L 0.589844 -8.464844 L 0.421875 -8.359375 L 0.460938 -7.035156 L 0.964844 -5.964844 L 1.722656 -4.179688 L 2.351562 -2.878906 L 2.582031 -2.878906 L 2.519531 -2.519531 L 3.253906 -0.691406 L 3.277344 0 L 5.1875 0.0195312 L 5.230469 -0.210938 L 5.480469 -0.882812 L 6.613281 -3.570312 L 7.097656 -4.578125 L 7.117188 -4.914062 L 7.285156 -5.125 L 8.316406 -7.203125 L 8.378906 -8.359375 L 7.664062 -9.910156 L 7.097656 -11.171875 L 6.886719 -11.171875 L 6.78125 -11.738281 L 5.710938 -14.363281 L 5.292969 -15.519531 Z M 4.390625 -2.667969 L 3.464844 -5.082031 L 3.046875 -5.941406 L 2.625 -6.238281 L 2.835938 -6.488281 L 2.644531 -7.097656 L 2.371094 -7.789062 L 2.351562 -8.042969 L 3.046875 -9.847656 L 2.898438 -10.183594 L 3.191406 -10.269531 L 4.347656 -13.3125 L 4.472656 -12.914062 L 4.957031 -11.632812 L 5.335938 -11.402344 L 5.144531 -11.152344 L 5.964844 -9.03125 L 6.214844 -8.316406 L 6.382812 -7.789062 L 5.355469 -5.269531 L 5.375 -4.894531 L 5.398438 -4.894531 L 5.144531 -4.640625 L 4.472656 -2.4375 Z M 4.390625 -2.667969 "/></g></g></g><g fill="#ffffff" fill-opacity="1"><g transform="translate(198.136325, 296.417676)"><g><path d="M 3.484375 -6.46875 L 4.324219 -4.765625 L 4.515625 -4.285156 L 5.292969 -2.8125 L 5.542969 -2.6875 L 5.523438 -2.332031 L 6.257812 -0.652344 L 6.761719 0.167969 L 8.464844 -0.777344 L 8.484375 -1.386719 L 7.789062 -2.121094 L 7.414062 -2.917969 L 7.414062 -2.898438 L 7.117188 -3.507812 L 6.992188 -3.570312 L 6.992188 -3.84375 L 6.152344 -5.269531 C 6.007812 -5.480469 5.878906 -5.585938 5.710938 -5.773438 L 5.710938 -6.132812 C 5.585938 -6.382812 5.335938 -6.742188 5.1875 -7.035156 L 5.773438 -7.832031 L 6.132812 -8.273438 L 6.804688 -9.070312 L 7.769531 -10.246094 L 7.917969 -11.507812 L 6.910156 -12.433594 C 6.886719 -12.433594 6.550781 -12.328125 6.53125 -12.347656 L 6.40625 -12.871094 L 3.066406 -15.769531 L 1.40625 -15.097656 L 1.492188 -13.292969 L 1.597656 -9.28125 L 1.429688 -8.863281 L 1.46875 -7.769531 L 1.554688 -5.3125 L 1.554688 -4.492188 L 1.742188 -4.222656 L 1.429688 -3.402344 L 1.300781 -0.0625 L 2.6875 0.0625 L 3.527344 -0.273438 L 3.507812 -2.015625 L 3.445312 -2.203125 L 3.382812 -4.304688 L 3.359375 -6.59375 Z M 3.402344 -8.441406 L 3.316406 -10.3125 L 3.277344 -10.542969 L 3.234375 -10.667969 L 3.148438 -11.046875 L 3.316406 -11.445312 L 3.316406 -11.65625 L 3.359375 -13.273438 L 5.292969 -11.359375 L 5.4375 -11.257812 L 5.859375 -10.730469 L 5.628906 -10.4375 C 5.355469 -10.058594 4.851562 -9.40625 4.558594 -9.050781 L 3.507812 -7.75 L 3.359375 -7.664062 Z M 3.402344 -8.441406 "/></g></g></g><g fill="#ffffff" fill-opacity="1"><g transform="translate(206.725355, 296.417676)"><g/></g></g><g fill="#ffffff" fill-opacity="1"><g transform="translate(211.03037, 296.417676)"><g><path d="M 5.082031 -15.414062 L 4.117188 -15.351562 C 3.820312 -15.351562 3.550781 -15.351562 3.234375 -15.371094 C 3.066406 -15.371094 2.878906 -15.226562 2.75 -15.226562 L 2.351562 -15.394531 L 0.316406 -15.496094 L 0.253906 -13.777344 L 0.503906 -13.523438 L 1.785156 -13.566406 C 1.847656 -13.566406 1.972656 -13.585938 2.121094 -13.628906 L 2.226562 -13.734375 L 2.6875 -13.671875 L 2.8125 -12.808594 L 2.730469 -11.464844 L 2.855469 -10.480469 L 2.75 -6.195312 L 2.644531 -3.234375 L 2.835938 -3.023438 L 2.519531 -1.699219 L 2.519531 -0.0859375 L 3.632812 0.0859375 L 4.222656 -0.0195312 L 4.828125 -0.355469 L 4.660156 -1.847656 L 4.660156 -5.796875 L 4.410156 -6.195312 L 4.429688 -6.214844 L 4.621094 -7.476562 L 4.597656 -9.09375 L 4.597656 -9.449219 C 4.597656 -9.597656 4.578125 -9.785156 4.578125 -9.953125 C 4.558594 -10.078125 4.558594 -10.605469 4.558594 -10.792969 L 4.597656 -12.347656 L 4.515625 -12.808594 L 4.640625 -13.691406 L 5.292969 -13.691406 L 5.921875 -13.648438 L 6.132812 -13.585938 L 7.078125 -13.585938 L 7.140625 -14.574219 L 7.015625 -15.457031 Z M 5.082031 -15.414062 "/></g></g></g><g fill="#ffffff" fill-opacity="1"><g transform="translate(218.338395, 296.417676)"><g><path d="M 1.429688 -3.507812 L 1.46875 -2.183594 L 1.765625 -1.867188 L 1.429688 -1.46875 L 1.363281 -0.0625 L 2.6875 0.0625 L 3.550781 0.0195312 L 3.570312 -0.757812 L 3.507812 -1.699219 L 3.382812 -2.8125 L 3.402344 -2.878906 L 3.507812 -6.53125 L 5.144531 -7.222656 L 5.164062 -7.222656 L 6.382812 -7.496094 L 6.363281 -7.117188 L 6.425781 -6.824219 L 6.382812 -3.589844 L 6.699219 -3.253906 L 6.488281 -3.066406 L 6.34375 -0.714844 L 6.613281 0.0195312 L 7.832031 0.0195312 L 8.609375 -0.0195312 L 8.566406 -1.175781 L 8.421875 -1.699219 L 8.378906 -4.390625 L 8.335938 -8.148438 L 8.296875 -8.566406 L 8.230469 -9.511719 L 8.335938 -11.488281 L 8.148438 -12.097656 L 8.359375 -12.367188 L 8.378906 -13.167969 L 8.378906 -13.144531 L 8.503906 -14.34375 L 8.566406 -15.394531 L 7.371094 -15.433594 L 6.59375 -15.457031 L 6.277344 -14.847656 L 6.382812 -14.007812 L 6.425781 -12.117188 L 6.488281 -10.207031 L 6.40625 -9.640625 L 6.175781 -9.535156 L 5.773438 -9.34375 L 4.914062 -8.96875 L 4.726562 -8.734375 L 4.390625 -8.863281 L 3.507812 -8.546875 L 3.464844 -8.527344 L 3.277344 -10.5625 L 3.359375 -11.949219 L 3.128906 -12.136719 L 3.382812 -12.535156 L 3.484375 -13.816406 L 3.570312 -15.328125 L 1.765625 -15.5625 L 1.261719 -15.226562 L 1.40625 -13.921875 L 1.34375 -13.503906 L 1.40625 -12.117188 L 1.554688 -10.816406 L 1.46875 -8.757812 L 1.617188 -6.382812 Z M 1.429688 -3.507812 "/></g></g></g><g fill="#ffffff" fill-opacity="1"><g transform="translate(228.187432, 296.417676)"><g><path d="M 6.699219 -13.460938 L 6.742188 -14.636719 L 6.71875 -15.457031 L 4.640625 -15.433594 L 3.820312 -15.265625 L 3.527344 -15.433594 L 2.332031 -15.433594 L 1.34375 -15.308594 L 1.449219 -13.816406 L 1.679688 -13.546875 L 1.449219 -13.1875 L 1.46875 -12.117188 L 1.449219 -10.480469 L 1.449219 -8.925781 L 1.386719 -8.148438 L 1.554688 -6.070312 L 1.46875 -5.902344 L 1.492188 -4.765625 L 1.492188 -4.285156 L 1.679688 -4.03125 L 1.429688 -3.484375 L 1.40625 -2.519531 L 1.429688 -2.289062 L 1.300781 -0.859375 L 1.40625 0 L 2.980469 0.0195312 L 3.148438 -0.0859375 L 3.886719 -0.0859375 L 5.082031 0.0429688 L 6.46875 0.0625 L 6.949219 -0.148438 L 7.035156 -0.925781 L 7.078125 -1.972656 L 6.027344 -1.996094 L 5.503906 -1.828125 L 3.820312 -1.804688 L 3.652344 -1.847656 L 3.464844 -1.890625 L 3.421875 -3.925781 L 3.402344 -3.96875 L 3.464844 -4.15625 L 3.339844 -4.765625 L 3.421875 -6.929688 L 3.757812 -6.929688 L 5.082031 -6.886719 L 6.109375 -6.847656 L 6.152344 -7.707031 L 6.277344 -8.335938 L 6.007812 -8.863281 L 4.933594 -8.757812 L 4.117188 -8.714844 L 3.339844 -8.757812 L 3.296875 -9.574219 L 3.085938 -9.742188 L 3.316406 -10.121094 L 3.421875 -10.753906 L 3.421875 -12.832031 L 3.464844 -13.355469 L 3.464844 -13.585938 L 3.652344 -13.585938 L 4.808594 -13.546875 L 5.144531 -13.609375 L 5.207031 -13.628906 L 5.710938 -13.460938 Z M 6.699219 -13.460938 "/></g></g></g><g fill="#ffffff" fill-opacity="1"><g transform="translate(235.789467, 296.417676)"><g/></g></g><g fill="#ffffff" fill-opacity="1"><g transform="translate(240.094471, 296.417676)"><g><path d="M 4.347656 -15.476562 L 4.15625 -15.457031 L 3.382812 -15.457031 L 3.339844 -15.308594 L 3.214844 -14.679688 L 3.128906 -14.554688 L 1.996094 -11.71875 L 2.101562 -11.488281 L 1.722656 -11.214844 L 0.589844 -8.464844 L 0.421875 -8.359375 L 0.460938 -7.035156 L 0.964844 -5.964844 L 1.722656 -4.179688 L 2.351562 -2.878906 L 2.582031 -2.878906 L 2.519531 -2.519531 L 3.253906 -0.691406 L 3.277344 0 L 5.1875 0.0195312 L 5.230469 -0.210938 L 5.480469 -0.882812 L 6.613281 -3.570312 L 7.097656 -4.578125 L 7.117188 -4.914062 L 7.285156 -5.125 L 8.316406 -7.203125 L 8.378906 -8.359375 L 7.664062 -9.910156 L 7.097656 -11.171875 L 6.886719 -11.171875 L 6.78125 -11.738281 L 5.710938 -14.363281 L 5.292969 -15.519531 Z M 4.390625 -2.667969 L 3.464844 -5.082031 L 3.046875 -5.941406 L 2.625 -6.238281 L 2.835938 -6.488281 L 2.644531 -7.097656 L 2.371094 -7.789062 L 2.351562 -8.042969 L 3.046875 -9.847656 L 2.898438 -10.183594 L 3.191406 -10.269531 L 4.347656 -13.3125 L 4.472656 -12.914062 L 4.957031 -11.632812 L 5.335938 -11.402344 L 5.144531 -11.152344 L 5.964844 -9.03125 L 6.214844 -8.316406 L 6.382812 -7.789062 L 5.355469 -5.269531 L 5.375 -4.894531 L 5.398438 -4.894531 L 5.144531 -4.640625 L 4.472656 -2.4375 Z M 4.390625 -2.667969 "/></g></g></g><g fill="#ffffff" fill-opacity="1"><g transform="translate(248.830524, 296.417676)"><g><path d="M 4.894531 -1.996094 L 5.628906 -3.484375 L 7.789062 -6.804688 L 8.167969 -7.433594 L 8.148438 -8.96875 L 7.769531 -9.449219 L 7.789062 -9.40625 L 6.195312 -11.527344 L 5.648438 -12.496094 L 4.914062 -13.230469 L 4.683594 -13.921875 L 3.382812 -15.707031 L 2.269531 -15.371094 L 1.363281 -15.097656 L 1.386719 -14.320312 L 1.449219 -13.230469 L 1.660156 -12.957031 L 1.449219 -12.558594 L 1.46875 -7.054688 L 1.597656 -6.238281 L 1.46875 -1.53125 L 1.46875 -1.554688 L 1.429688 -0.148438 L 2.792969 0.0429688 L 3.484375 0.230469 Z M 3.339844 -9.847656 L 3.277344 -12.894531 L 3.402344 -12.746094 L 5.480469 -9.40625 L 5.902344 -9.070312 L 5.984375 -8.566406 L 6.363281 -8 L 5.984375 -7.390625 L 5.292969 -6.238281 L 4.410156 -4.535156 L 4.578125 -4.347656 L 4.199219 -4.15625 L 3.277344 -2.667969 L 3.253906 -2.625 L 3.277344 -3.757812 L 3.359375 -7.917969 L 3.023438 -8.902344 Z M 3.339844 -9.847656 "/></g></g></g><g fill="#ffffff" fill-opacity="1"><g transform="translate(257.146556, 296.417676)"><g><path d="M 1.742188 -9.136719 L 1.679688 -7.980469 L 1.617188 -7.328125 L 1.617188 -2.644531 L 1.867188 -2.289062 L 1.617188 -1.867188 L 1.324219 0 L 2.289062 0.0195312 L 2.730469 0.0429688 L 3.652344 -0.253906 L 3.675781 -1.027344 L 3.632812 -1.429688 L 3.589844 -1.742188 L 3.589844 -7.558594 L 3.359375 -7.707031 L 3.550781 -8.148438 L 3.507812 -8.671875 L 3.421875 -9.492188 L 3.484375 -10.5625 L 3.550781 -13.3125 L 3.652344 -13.839844 L 3.757812 -15.371094 L 2.394531 -15.457031 L 1.40625 -15.394531 L 1.511719 -14.34375 L 1.699219 -14.238281 L 1.53125 -13.859375 L 1.597656 -9.660156 Z M 1.742188 -9.136719 "/></g></g></g><g fill="#ffffff" fill-opacity="1"><g transform="translate(262.228579, 296.417676)"><g><path d="M 8.378906 -1.847656 L 8.378906 -2.519531 L 8.230469 -7.117188 L 8 -7.8125 L 8.167969 -8.695312 L 8.378906 -13.859375 L 8.421875 -15.289062 L 7.558594 -15.433594 L 6.34375 -15.414062 L 6.34375 -13.734375 L 6.550781 -13.441406 L 6.34375 -12.789062 L 6.34375 -10.984375 L 5.648438 -12.117188 L 5.480469 -12.199219 L 4.957031 -13.039062 L 3.066406 -15.644531 L 1.40625 -15.183594 L 1.40625 -14.089844 L 1.492188 -11.90625 L 1.574219 -10.710938 L 1.492188 -6.34375 L 1.679688 -5.921875 L 1.511719 -5.3125 L 1.386719 -2.332031 L 1.386719 -1.972656 L 1.449219 -1.785156 L 1.300781 -0.105469 L 2.203125 0.0625 L 3.445312 0.0195312 L 3.484375 -1.324219 L 3.421875 -1.617188 L 3.445312 -3.800781 L 3.253906 -4.597656 L 3.359375 -5.355469 L 3.402344 -10.144531 L 3.148438 -10.414062 L 3.128906 -10.457031 L 3.421875 -11.214844 L 3.421875 -12.347656 L 3.96875 -11.59375 L 4.828125 -10.394531 L 5.4375 -9.660156 L 5.734375 -9.199219 L 6.027344 -8.882812 L 6.363281 -8.316406 L 6.382812 -6.132812 L 6.445312 -5.734375 L 6.382812 -5.628906 L 6.363281 -3.613281 L 6.382812 -1.617188 L 6.363281 0.0195312 L 7.078125 0.0625 L 8.230469 0.0429688 L 8.503906 -0.671875 Z M 8.378906 -1.847656 "/></g></g></g><g fill="#ffffff" fill-opacity="1"><g transform="translate(272.014604, 296.417676)"><g/></g></g><g fill="#ffffff" fill-opacity="1"><g transform="translate(276.31962, 296.417676)"><g><path d="M 6.277344 -8.085938 L 6.949219 -8.734375 L 7.601562 -9.535156 L 7.644531 -10.984375 L 5.460938 -13.292969 L 5.019531 -13.441406 L 4.933594 -13.796875 L 3.046875 -15.75 L 2.371094 -15.496094 L 1.363281 -15.058594 L 1.40625 -13.648438 L 1.511719 -12.789062 L 1.511719 -9.34375 L 1.46875 -9.238281 L 1.449219 -3.988281 L 1.699219 -3.71875 L 1.511719 -3.066406 L 1.28125 -0.0625 L 2.5 0.0625 L 3.550781 0 L 3.421875 -2.605469 L 3.085938 -2.898438 L 3.421875 -3.402344 L 3.382812 -4.851562 L 3.570312 -5.0625 L 4.976562 -6.65625 Z M 3.402344 -9.511719 L 3.171875 -9.933594 L 3.382812 -10.585938 L 3.359375 -11.59375 L 3.382812 -13.082031 L 4.597656 -11.71875 L 4.789062 -11.59375 L 4.933594 -11.296875 L 5.839844 -10.289062 L 5.503906 -9.808594 L 5.292969 -9.28125 L 5.0625 -9.34375 L 4.011719 -8.105469 L 3.402344 -7.453125 Z M 3.402344 -9.511719 "/></g></g></g><g fill="#ffffff" fill-opacity="1"><g transform="translate(284.173653, 296.417676)"><g><path d="M 3.484375 -6.46875 L 4.324219 -4.765625 L 4.515625 -4.285156 L 5.292969 -2.8125 L 5.542969 -2.6875 L 5.523438 -2.332031 L 6.257812 -0.652344 L 6.761719 0.167969 L 8.464844 -0.777344 L 8.484375 -1.386719 L 7.789062 -2.121094 L 7.414062 -2.917969 L 7.414062 -2.898438 L 7.117188 -3.507812 L 6.992188 -3.570312 L 6.992188 -3.84375 L 6.152344 -5.269531 C 6.007812 -5.480469 5.878906 -5.585938 5.710938 -5.773438 L 5.710938 -6.132812 C 5.585938 -6.382812 5.335938 -6.742188 5.1875 -7.035156 L 5.773438 -7.832031 L 6.132812 -8.273438 L 6.804688 -9.070312 L 7.769531 -10.246094 L 7.917969 -11.507812 L 6.910156 -12.433594 C 6.886719 -12.433594 6.550781 -12.328125 6.53125 -12.347656 L 6.40625 -12.871094 L 3.066406 -15.769531 L 1.40625 -15.097656 L 1.492188 -13.292969 L 1.597656 -9.28125 L 1.429688 -8.863281 L 1.46875 -7.769531 L 1.554688 -5.3125 L 1.554688 -4.492188 L 1.742188 -4.222656 L 1.429688 -3.402344 L 1.300781 -0.0625 L 2.6875 0.0625 L 3.527344 -0.273438 L 3.507812 -2.015625 L 3.445312 -2.203125 L 3.382812 -4.304688 L 3.359375 -6.59375 Z M 3.402344 -8.441406 L 3.316406 -10.3125 L 3.277344 -10.542969 L 3.234375 -10.667969 L 3.148438 -11.046875 L 3.316406 -11.445312 L 3.316406 -11.65625 L 3.359375 -13.273438 L 5.292969 -11.359375 L 5.4375 -11.257812 L 5.859375 -10.730469 L 5.628906 -10.4375 C 5.355469 -10.058594 4.851562 -9.40625 4.558594 -9.050781 L 3.507812 -7.75 L 3.359375 -7.664062 Z M 3.402344 -8.441406 "/></g></g></g><g fill="#ffffff" fill-opacity="1"><g transform="translate(292.762696, 296.417676)"><g><path d="M 4.347656 -15.476562 L 4.15625 -15.457031 L 3.382812 -15.457031 L 3.339844 -15.308594 L 3.214844 -14.679688 L 3.128906 -14.554688 L 1.996094 -11.71875 L 2.101562 -11.488281 L 1.722656 -11.214844 L 0.589844 -8.464844 L 0.421875 -8.359375 L 0.460938 -7.035156 L 0.964844 -5.964844 L 1.722656 -4.179688 L 2.351562 -2.878906 L 2.582031 -2.878906 L 2.519531 -2.519531 L 3.253906 -0.691406 L 3.277344 0 L 5.1875 0.0195312 L 5.230469 -0.210938 L 5.480469 -0.882812 L 6.613281 -3.570312 L 7.097656 -4.578125 L 7.117188 -4.914062 L 7.285156 -5.125 L 8.316406 -7.203125 L 8.378906 -8.359375 L 7.664062 -9.910156 L 7.097656 -11.171875 L 6.886719 -11.171875 L 6.78125 -11.738281 L 5.710938 -14.363281 L 5.292969 -15.519531 Z M 4.390625 -2.667969 L 3.464844 -5.082031 L 3.046875 -5.941406 L 2.625 -6.238281 L 2.835938 -6.488281 L 2.644531 -7.097656 L 2.371094 -7.789062 L 2.351562 -8.042969 L 3.046875 -9.847656 L 2.898438 -10.183594 L 3.191406 -10.269531 L 4.347656 -13.3125 L 4.472656 -12.914062 L 4.957031 -11.632812 L 5.335938 -11.402344 L 5.144531 -11.152344 L 5.964844 -9.03125 L 6.214844 -8.316406 L 6.382812 -7.789062 L 5.355469 -5.269531 L 5.375 -4.894531 L 5.398438 -4.894531 L 5.144531 -4.640625 L 4.472656 -2.4375 Z M 4.390625 -2.667969 "/></g></g></g><g fill="#ffffff" fill-opacity="1"><g transform="translate(301.498748, 296.417676)"><g><path d="M 2.5 -9.09375 L 2.394531 -7.9375 L 2.414062 -6.636719 L 2.4375 -6.34375 L 2.4375 -5.523438 L 2.351562 -3.234375 L 2.394531 -3.046875 L 2.078125 -2.605469 L 1.15625 -1.996094 L 0.230469 -1.617188 L 0.230469 -0.523438 L 1.386719 0.335938 L 2.941406 -0.925781 L 2.917969 -1.34375 L 3.484375 -1.429688 L 4.15625 -2.015625 L 4.492188 -2.605469 L 4.242188 -6.214844 L 4.074219 -6.847656 L 4.304688 -7.015625 L 4.222656 -12.871094 L 4.472656 -14.722656 L 4.199219 -15.457031 L 2.203125 -15.414062 L 2.203125 -14.238281 L 2.582031 -14.027344 L 2.308594 -13.691406 L 2.371094 -10.144531 Z M 2.5 -9.09375 "/></g></g></g><g fill="#ffffff" fill-opacity="1"><g transform="translate(307.357757, 296.417676)"><g><path d="M 6.699219 -13.460938 L 6.742188 -14.636719 L 6.71875 -15.457031 L 4.640625 -15.433594 L 3.820312 -15.265625 L 3.527344 -15.433594 L 2.332031 -15.433594 L 1.34375 -15.308594 L 1.449219 -13.816406 L 1.679688 -13.546875 L 1.449219 -13.1875 L 1.46875 -12.117188 L 1.449219 -10.480469 L 1.449219 -8.925781 L 1.386719 -8.148438 L 1.554688 -6.070312 L 1.46875 -5.902344 L 1.492188 -4.765625 L 1.492188 -4.285156 L 1.679688 -4.03125 L 1.429688 -3.484375 L 1.40625 -2.519531 L 1.429688 -2.289062 L 1.300781 -0.859375 L 1.40625 0 L 2.980469 0.0195312 L 3.148438 -0.0859375 L 3.886719 -0.0859375 L 5.082031 0.0429688 L 6.46875 0.0625 L 6.949219 -0.148438 L 7.035156 -0.925781 L 7.078125 -1.972656 L 6.027344 -1.996094 L 5.503906 -1.828125 L 3.820312 -1.804688 L 3.652344 -1.847656 L 3.464844 -1.890625 L 3.421875 -3.925781 L 3.402344 -3.96875 L 3.464844 -4.15625 L 3.339844 -4.765625 L 3.421875 -6.929688 L 3.757812 -6.929688 L 5.082031 -6.886719 L 6.109375 -6.847656 L 6.152344 -7.707031 L 6.277344 -8.335938 L 6.007812 -8.863281 L 4.933594 -8.757812 L 4.117188 -8.714844 L 3.339844 -8.757812 L 3.296875 -9.574219 L 3.085938 -9.742188 L 3.316406 -10.121094 L 3.421875 -10.753906 L 3.421875 -12.832031 L 3.464844 -13.355469 L 3.464844 -13.585938 L 3.652344 -13.585938 L 4.808594 -13.546875 L 5.144531 -13.609375 L 5.207031 -13.628906 L 5.710938 -13.460938 Z M 6.699219 -13.460938 "/></g></g></g><g fill="#ffffff" fill-opacity="1"><g transform="translate(314.959792, 296.417676)"><g><path d="M 0.671875 -6.214844 L 1.429688 -4.851562 L 2.394531 -3.949219 L 2.226562 -3.570312 L 3.820312 -1.09375 L 3.863281 -0.839844 L 4.578125 0.273438 L 5.292969 -0.1875 L 6.382812 -1.09375 L 5.902344 -1.867188 L 4.808594 -3.296875 L 3.84375 -4.933594 L 3.066406 -6.132812 L 2.878906 -6.550781 L 2.582031 -6.847656 L 2.371094 -7.246094 L 2.058594 -7.855469 L 2.332031 -8.359375 L 2.730469 -9.070312 L 3.421875 -10.164062 L 4.683594 -12.03125 L 4.789062 -12.601562 L 5.144531 -12.832031 L 5.734375 -13.648438 L 6.320312 -14.699219 L 4.746094 -15.75 L 4.011719 -14.890625 L 3.988281 -14.722656 L 2.8125 -12.789062 L 2.8125 -12.703125 L 2.289062 -11.863281 L 2.289062 -11.359375 L 1.53125 -10.625 L 0.167969 -8.316406 L 0.1875 -6.972656 Z M 0.671875 -6.214844 "/></g></g></g><g fill="#ffffff" fill-opacity="1"><g transform="translate(321.469832, 296.417676)"><g><path d="M 5.082031 -15.414062 L 4.117188 -15.351562 C 3.820312 -15.351562 3.550781 -15.351562 3.234375 -15.371094 C 3.066406 -15.371094 2.878906 -15.226562 2.75 -15.226562 L 2.351562 -15.394531 L 0.316406 -15.496094 L 0.253906 -13.777344 L 0.503906 -13.523438 L 1.785156 -13.566406 C 1.847656 -13.566406 1.972656 -13.585938 2.121094 -13.628906 L 2.226562 -13.734375 L 2.6875 -13.671875 L 2.8125 -12.808594 L 2.730469 -11.464844 L 2.855469 -10.480469 L 2.75 -6.195312 L 2.644531 -3.234375 L 2.835938 -3.023438 L 2.519531 -1.699219 L 2.519531 -0.0859375 L 3.632812 0.0859375 L 4.222656 -0.0195312 L 4.828125 -0.355469 L 4.660156 -1.847656 L 4.660156 -5.796875 L 4.410156 -6.195312 L 4.429688 -6.214844 L 4.621094 -7.476562 L 4.597656 -9.09375 L 4.597656 -9.449219 C 4.597656 -9.597656 4.578125 -9.785156 4.578125 -9.953125 C 4.558594 -10.078125 4.558594 -10.605469 4.558594 -10.792969 L 4.597656 -12.347656 L 4.515625 -12.808594 L 4.640625 -13.691406 L 5.292969 -13.691406 L 5.921875 -13.648438 L 6.132812 -13.585938 L 7.078125 -13.585938 L 7.140625 -14.574219 L 7.015625 -15.457031 Z M 5.082031 -15.414062 "/></g></g></g><g fill="#ffffff" fill-opacity="1"><g transform="translate(121.099275, 273.740958)"><g><path d="M 8.695312 -30.953125 L 8.316406 -30.910156 L 6.761719 -30.910156 L 6.679688 -30.617188 L 6.425781 -29.359375 L 6.257812 -29.105469 L 3.988281 -23.4375 L 4.199219 -22.972656 L 3.445312 -22.429688 L 1.175781 -16.925781 L 0.839844 -16.714844 L 0.925781 -14.070312 L 1.933594 -11.929688 L 3.445312 -8.359375 L 4.703125 -5.753906 L 5.164062 -5.753906 L 5.039062 -5.039062 L 6.511719 -1.386719 L 6.550781 0 L 10.375 0.0429688 L 10.457031 -0.421875 L 10.960938 -1.765625 L 13.230469 -7.140625 L 14.195312 -9.15625 L 14.238281 -9.828125 L 14.574219 -10.246094 L 16.632812 -14.40625 L 16.757812 -16.714844 L 15.328125 -19.824219 L 14.195312 -22.34375 L 13.777344 -22.34375 L 13.566406 -23.476562 L 11.425781 -28.726562 L 10.585938 -31.039062 Z M 8.777344 -5.335938 L 6.929688 -10.164062 L 6.089844 -11.886719 L 5.25 -12.472656 L 5.671875 -12.976562 L 5.292969 -14.195312 L 4.746094 -15.582031 L 4.703125 -16.085938 L 6.089844 -19.699219 L 5.796875 -20.371094 L 6.382812 -20.539062 L 8.695312 -26.628906 L 8.945312 -25.828125 L 9.910156 -23.269531 L 10.667969 -22.804688 L 10.289062 -22.300781 L 11.929688 -18.058594 L 12.433594 -16.632812 L 12.769531 -15.582031 L 10.710938 -10.542969 L 10.753906 -9.785156 L 10.792969 -9.785156 L 10.289062 -9.28125 L 8.945312 -4.871094 Z M 8.777344 -5.335938 "/></g></g></g><g fill="#ffffff" fill-opacity="1"><g transform="translate(138.571278, 273.740958)"><g><path d="M 9.785156 -3.988281 L 11.257812 -6.972656 L 15.582031 -13.609375 L 16.339844 -14.867188 L 16.296875 -17.933594 L 15.539062 -18.898438 L 15.582031 -18.816406 L 12.390625 -23.058594 L 11.296875 -24.988281 L 9.828125 -26.460938 L 9.367188 -27.847656 L 6.761719 -31.414062 L 4.535156 -30.742188 L 2.730469 -30.199219 L 2.773438 -28.644531 L 2.898438 -26.460938 L 3.316406 -25.914062 L 2.898438 -25.117188 L 2.941406 -14.113281 L 3.191406 -12.472656 L 2.941406 -3.066406 L 2.941406 -3.109375 L 2.855469 -0.292969 L 5.585938 0.0859375 L 6.972656 0.460938 Z M 6.679688 -19.699219 L 6.550781 -25.789062 L 6.804688 -25.492188 L 10.960938 -18.816406 L 11.800781 -18.144531 L 11.96875 -17.136719 L 12.726562 -16.003906 L 11.96875 -14.785156 L 10.585938 -12.472656 L 8.820312 -9.070312 L 9.15625 -8.695312 L 8.398438 -8.316406 L 6.550781 -5.335938 L 6.511719 -5.25 L 6.550781 -7.519531 L 6.71875 -15.835938 L 6.046875 -17.808594 Z M 6.679688 -19.699219 "/></g></g></g><g fill="#ffffff" fill-opacity="1"><g transform="translate(155.203273, 273.740958)"><g><path d="M 3.484375 -18.269531 L 3.359375 -15.960938 L 3.234375 -14.65625 L 3.234375 -5.292969 L 3.738281 -4.578125 L 3.234375 -3.738281 L 2.644531 0 L 4.578125 0.0429688 L 5.460938 0.0859375 L 7.308594 -0.503906 L 7.351562 -2.058594 L 7.265625 -2.855469 L 7.183594 -3.484375 L 7.183594 -15.121094 L 6.71875 -15.414062 L 7.097656 -16.296875 L 7.015625 -17.347656 L 6.847656 -18.984375 L 6.972656 -21.125 L 7.097656 -26.628906 L 7.308594 -27.679688 L 7.519531 -30.742188 L 4.789062 -30.910156 L 2.8125 -30.785156 L 3.023438 -28.6875 L 3.402344 -28.476562 L 3.066406 -27.71875 L 3.191406 -19.320312 Z M 3.484375 -18.269531 "/></g></g></g><g fill="#ffffff" fill-opacity="1"><g transform="translate(165.367274, 273.740958)"><g><path d="M 16.757812 -3.695312 L 16.757812 -5.039062 L 16.464844 -14.238281 L 16.003906 -15.625 L 16.339844 -17.386719 L 16.757812 -27.71875 L 16.84375 -30.574219 L 15.121094 -30.871094 L 12.683594 -30.828125 L 12.683594 -27.46875 L 13.105469 -26.878906 L 12.683594 -25.578125 L 12.683594 -21.964844 L 11.296875 -24.234375 L 10.960938 -24.402344 L 9.910156 -26.082031 L 6.132812 -31.289062 L 2.8125 -30.367188 L 2.8125 -28.183594 L 2.980469 -23.8125 L 3.148438 -21.421875 L 2.980469 -12.683594 L 3.359375 -11.84375 L 3.023438 -10.625 L 2.773438 -4.660156 L 2.773438 -3.949219 L 2.898438 -3.570312 L 2.605469 -0.210938 L 4.410156 0.125 L 6.886719 0.0429688 L 6.972656 -2.644531 L 6.847656 -3.234375 L 6.886719 -7.601562 L 6.511719 -9.199219 L 6.71875 -10.710938 L 6.804688 -20.285156 L 6.300781 -20.832031 L 6.257812 -20.914062 L 6.847656 -22.429688 L 6.847656 -24.695312 L 7.9375 -23.183594 L 9.660156 -20.789062 L 10.878906 -19.320312 L 11.464844 -18.394531 L 12.054688 -17.765625 L 12.726562 -16.632812 L 12.769531 -12.265625 L 12.894531 -11.464844 L 12.769531 -11.257812 L 12.726562 -7.222656 L 12.769531 -3.234375 L 12.726562 0.0429688 L 14.152344 0.125 L 16.464844 0.0859375 L 17.011719 -1.34375 Z M 16.757812 -3.695312 "/></g></g></g><g fill="#ffffff" fill-opacity="1"><g transform="translate(184.939267, 273.740958)"><g><path d="M 9.660156 -1.890625 L 11.128906 -3.066406 L 12.347656 -4.578125 L 14.070312 -5.796875 L 15.707031 -7.476562 L 15.75 -9.40625 L 15.707031 -10.289062 L 11.296875 -14.488281 L 10.835938 -14.910156 L 10.207031 -15.457031 L 9.910156 -15.707031 L 12.011719 -18.144531 L 14.488281 -20.832031 L 14.785156 -23.308594 L 14.617188 -24.148438 L 11.761719 -26.417969 L 6.214844 -31.332031 L 2.6875 -30.324219 L 2.773438 -27.929688 L 2.898438 -27.300781 L 3.316406 -26.878906 L 2.855469 -25.621094 L 2.898438 -20.789062 L 3.066406 -16.296875 L 2.8125 -14.363281 L 2.8125 -8.0625 L 2.980469 -6.089844 L 2.644531 -0.378906 L 4.957031 0.0429688 L 6.71875 0.589844 Z M 7.054688 -14.152344 L 8.945312 -12.472656 L 9.953125 -11.425781 L 10.542969 -10.878906 L 12.054688 -8.988281 L 10.457031 -7.222656 L 9.953125 -6.886719 L 8.820312 -5.921875 L 6.679688 -3.652344 L 6.71875 -6.214844 L 6.300781 -6.636719 L 6.679688 -6.972656 L 6.679688 -14.40625 Z M 6.425781 -20.578125 L 6.550781 -22.765625 L 6.511719 -26.460938 L 9.367188 -23.941406 L 9.703125 -23.898438 L 9.910156 -23.394531 L 11.214844 -22.21875 L 11.171875 -22.21875 L 9.703125 -20.621094 L 9.535156 -19.570312 L 8.902344 -19.488281 L 6.847656 -17.261719 L 6.511719 -17.011719 Z M 6.425781 -20.578125 "/></g></g></g><g fill="#ffffff" fill-opacity="1"><g transform="translate(201.403263, 273.740958)"><g><path d="M 8.695312 -30.953125 L 8.316406 -30.910156 L 6.761719 -30.910156 L 6.679688 -30.617188 L 6.425781 -29.359375 L 6.257812 -29.105469 L 3.988281 -23.4375 L 4.199219 -22.972656 L 3.445312 -22.429688 L 1.175781 -16.925781 L 0.839844 -16.714844 L 0.925781 -14.070312 L 1.933594 -11.929688 L 3.445312 -8.359375 L 4.703125 -5.753906 L 5.164062 -5.753906 L 5.039062 -5.039062 L 6.511719 -1.386719 L 6.550781 0 L 10.375 0.0429688 L 10.457031 -0.421875 L 10.960938 -1.765625 L 13.230469 -7.140625 L 14.195312 -9.15625 L 14.238281 -9.828125 L 14.574219 -10.246094 L 16.632812 -14.40625 L 16.757812 -16.714844 L 15.328125 -19.824219 L 14.195312 -22.34375 L 13.777344 -22.34375 L 13.566406 -23.476562 L 11.425781 -28.726562 L 10.585938 -31.039062 Z M 8.777344 -5.335938 L 6.929688 -10.164062 L 6.089844 -11.886719 L 5.25 -12.472656 L 5.671875 -12.976562 L 5.292969 -14.195312 L 4.746094 -15.582031 L 4.703125 -16.085938 L 6.089844 -19.699219 L 5.796875 -20.371094 L 6.382812 -20.539062 L 8.695312 -26.628906 L 8.945312 -25.828125 L 9.910156 -23.269531 L 10.667969 -22.804688 L 10.289062 -22.300781 L 11.929688 -18.058594 L 12.433594 -16.632812 L 12.769531 -15.582031 L 10.710938 -10.542969 L 10.753906 -9.785156 L 10.792969 -9.785156 L 10.289062 -9.28125 L 8.945312 -4.871094 Z M 8.777344 -5.335938 "/></g></g></g><g fill="#ffffff" fill-opacity="1"><g transform="translate(218.875266, 273.740958)"><g><path d="M 8.695312 -30.953125 L 8.316406 -30.910156 L 6.761719 -30.910156 L 6.679688 -30.617188 L 6.425781 -29.359375 L 6.257812 -29.105469 L 3.988281 -23.4375 L 4.199219 -22.972656 L 3.445312 -22.429688 L 1.175781 -16.925781 L 0.839844 -16.714844 L 0.925781 -14.070312 L 1.933594 -11.929688 L 3.445312 -8.359375 L 4.703125 -5.753906 L 5.164062 -5.753906 L 5.039062 -5.039062 L 6.511719 -1.386719 L 6.550781 0 L 10.375 0.0429688 L 10.457031 -0.421875 L 10.960938 -1.765625 L 13.230469 -7.140625 L 14.195312 -9.15625 L 14.238281 -9.828125 L 14.574219 -10.246094 L 16.632812 -14.40625 L 16.757812 -16.714844 L 15.328125 -19.824219 L 14.195312 -22.34375 L 13.777344 -22.34375 L 13.566406 -23.476562 L 11.425781 -28.726562 L 10.585938 -31.039062 Z M 8.777344 -5.335938 L 6.929688 -10.164062 L 6.089844 -11.886719 L 5.25 -12.472656 L 5.671875 -12.976562 L 5.292969 -14.195312 L 4.746094 -15.582031 L 4.703125 -16.085938 L 6.089844 -19.699219 L 5.796875 -20.371094 L 6.382812 -20.539062 L 8.695312 -26.628906 L 8.945312 -25.828125 L 9.910156 -23.269531 L 10.667969 -22.804688 L 10.289062 -22.300781 L 11.929688 -18.058594 L 12.433594 -16.632812 L 12.769531 -15.582031 L 10.710938 -10.542969 L 10.753906 -9.785156 L 10.792969 -9.785156 L 10.289062 -9.28125 L 8.945312 -4.871094 Z M 8.777344 -5.335938 "/></g></g></g><g fill="#ffffff" fill-opacity="1"><g transform="translate(236.347268, 273.740958)"><g><path d="M 2.476562 -30.660156 L 2.941406 -27.679688 L 2.855469 -24.316406 L 3.066406 -19.027344 L 3.445312 -16.757812 L 3.191406 -7.6875 L 3.191406 -7.433594 L 3.109375 -6.761719 L 3.613281 -6.175781 L 2.898438 -4.492188 L 2.941406 -4.324219 L 2.8125 -4.285156 L 2.773438 0.0859375 L 4.996094 0.125 L 7.222656 0.0429688 L 7.265625 -2.101562 L 7.097656 -2.898438 L 7.054688 -3.359375 L 7.015625 -5.417969 L 6.847656 -7.433594 L 6.847656 -14.320312 L 8.527344 -10.835938 L 8.484375 -10.753906 L 9.910156 -8.441406 L 9.703125 -7.894531 L 11.929688 -2.898438 L 13.144531 0.210938 L 14.195312 0.253906 L 17.21875 -1.429688 L 16.003906 -4.15625 L 15.414062 -4.285156 L 15.625 -4.871094 L 14.195312 -7.265625 L 12.726562 -10.5 L 10.246094 -16.171875 L 10.039062 -16.507812 L 13.0625 -22.261719 L 12.9375 -22.386719 L 13.0625 -22.597656 L 15.625 -26.839844 L 16.84375 -29.0625 L 15.539062 -30.070312 L 12.976562 -31.078125 L 11.675781 -28.015625 L 11.84375 -26.964844 L 10.667969 -25.789062 L 9.953125 -23.980469 L 8.273438 -19.949219 L 7.558594 -18.816406 L 6.929688 -17.179688 L 6.804688 -16.84375 L 6.804688 -18.101562 L 6.71875 -20.117188 L 7.140625 -30.535156 L 5.542969 -31.078125 Z M 2.476562 -30.660156 "/></g></g></g></svg>