<svg enable-background="new 0 0 100 100" height="100" viewBox="0 0 100 100" width="100" xmlns="http://www.w3.org/2000/svg"><path d="m76.666 33.89v-3.333h-13.337v-3.334h13.337v-3.89h-26.665c-2.451 0-4.447 1.99-4.447 4.447v44.438c0-2.45 1.997-4.441 4.447-4.441h26.665v-3.886h-22.222v-3.335h22.222v-3.331h-17.777v-3.336h17.777v-3.331h-8.893v-3.335h8.893v-9.999h-4.449v-3.334z" style="fill:#e9eaef;stroke:#335c5f;stroke-width:1.5;stroke-linecap:round;stroke-linejoin:round;stroke-miterlimit:10"/><path d="m63.329 27.223h26.667v3.334h-26.667z" style="fill:#fadf7e;stroke:#335c5f;stroke-width:1.5;stroke-linecap:round;stroke-linejoin:round;stroke-miterlimit:10"/><path d="m54.441 33.89h13.332v3.334h-13.332z" style="fill:#fadf7e;stroke:#335c5f;stroke-width:1.5;stroke-linecap:round;stroke-linejoin:round;stroke-miterlimit:10"/><path d="m72.217 33.89h13.333v3.334h-13.333z" style="fill:#fadf7e;stroke:#335c5f;stroke-width:1.5;stroke-linecap:round;stroke-linejoin:round;stroke-miterlimit:10"/><path d="m54.444 40.557h4.442v3.334h-4.442z" style="fill:#fadf7e;stroke:#335c5f;stroke-width:1.5;stroke-linecap:round;stroke-linejoin:round;stroke-miterlimit:10"/><path d="m63.333 40.557h8.89v3.334h-8.89z" style="fill:#fadf7e;stroke:#335c5f;stroke-width:1.5;stroke-linecap:round;stroke-linejoin:round;stroke-miterlimit:10"/><path d="m76.666 40.557h13.334v3.334h-13.334z" style="fill:#fadf7e;stroke:#335c5f;stroke-width:1.5;stroke-linecap:round;stroke-linejoin:round;stroke-miterlimit:10"/><path d="m54.444 47.223h8.885v3.335h-8.885z" style="fill:#fadf7e;stroke:#335c5f;stroke-width:1.5;stroke-linecap:round;stroke-linejoin:round;stroke-miterlimit:10"/><path d="m67.773 47.223h17.776v3.335h-17.776z" style="fill:#fadf7e;stroke:#335c5f;stroke-width:1.5;stroke-linecap:round;stroke-linejoin:round;stroke-miterlimit:10"/><path d="m50.001 53.889h4.443v3.336h-4.443z" style="fill:#fadf7e;stroke:#335c5f;stroke-width:1.5;stroke-linecap:round;stroke-linejoin:round;stroke-miterlimit:10"/><path d="m58.889 53.889h22.222v3.336h-22.222z" style="fill:#fadf7e;stroke:#335c5f;stroke-width:1.5;stroke-linecap:round;stroke-linejoin:round;stroke-miterlimit:10"/><path d="m85.553 53.889h4.443v3.336h-4.443z" style="fill:#fadf7e;stroke:#335c5f;stroke-width:1.5;stroke-linecap:round;stroke-linejoin:round;stroke-miterlimit:10"/><path d="m54.444 60.556h31.108v3.335h-31.108z" style="fill:#fadf7e;stroke:#335c5f;stroke-width:1.5;stroke-linecap:round;stroke-linejoin:round;stroke-miterlimit:10"/><path d="m61.107 47.223h2.222v3.335h-2.222z" fill="#d8c26f"/><path d="m83.329 47.223h2.221v3.335h-2.221z" fill="#d8c26f"/><path d="m52.222 53.889h2.223v3.336h-2.223z" fill="#d8c26f"/><path d="m78.888 53.889h2.223v3.336h-2.223z" fill="#d8c26f"/><path d="m87.775 53.889h2.221v3.336h-2.221z" fill="#d8c26f"/><path d="m83.331 60.556h2.222v3.335h-2.222z" fill="#d8c26f"/><path d="m81.106 63.891h-4.44v3.886h-26.665c-2.451 0-4.447 1.991-4.447 4.441 0-2.45-1.991-4.441-4.446-4.441h-26.664v-39.997h-4.444v44.438h31.107l-.002.005c0 2.451 1.99 4.444 4.443 4.444h.009c2.459 0 4.446-1.993 4.446-4.444l-.002-.005h31.105z" style="fill:#75c6a4;stroke:#335c5f;stroke-width:1.5;stroke-linecap:round;stroke-linejoin:round;stroke-miterlimit:10"/><path d="m78.884 63.891h2.223v8.327h-2.223z" fill="#65ad90"/><path d="m76.666 57.225h4.44v3.331h-4.44z" style="fill:#75c6a4;stroke:#335c5f;stroke-width:1.5;stroke-linecap:round;stroke-linejoin:round;stroke-miterlimit:10"/><path d="m76.666 50.558h4.44v3.331h-4.44z" style="fill:#75c6a4;stroke:#335c5f;stroke-width:1.5;stroke-linecap:round;stroke-linejoin:round;stroke-miterlimit:10"/><path d="m76.666 43.891h4.44v3.332h-4.44z" style="fill:#75c6a4;stroke:#335c5f;stroke-width:1.5;stroke-linecap:round;stroke-linejoin:round;stroke-miterlimit:10"/><path d="m76.666 37.224h4.44v3.333h-4.44z" style="fill:#75c6a4;stroke:#335c5f;stroke-width:1.5;stroke-linecap:round;stroke-linejoin:round;stroke-miterlimit:10"/><path d="m78.884 57.225h2.222v3.331h-2.222z" fill="#65ad90"/><path d="m78.884 50.558h2.222v3.331h-2.222z" fill="#65ad90"/><path d="m78.884 43.891h2.222v3.332h-2.222z" fill="#65ad90"/><path d="m78.884 37.224h2.222v3.333h-2.222z" fill="#65ad90"/><path d="m76.666 30.557h4.44v3.333h-4.44z" style="fill:#75c6a4;stroke:#335c5f;stroke-width:1.5;stroke-linecap:round;stroke-linejoin:round;stroke-miterlimit:10"/><path d="m78.885 30.557h2.222v3.333h-2.222z" fill="#65ad90"/><path d="m41.107 67.776h-26.663v-44.443h26.664c2.456 0 4.446 1.99 4.446 4.447v44.438c0-2.45-1.991-4.442-4.447-4.442z" style="fill:#e9eaef;stroke:#335c5f;stroke-width:1.5;stroke-linecap:round;stroke-linejoin:round;stroke-miterlimit:10"/><path d="m41.107 23.333h-3.335c2.457 0 4.447 1.99 4.447 4.447v40.144c1.917.493 3.334 2.228 3.334 4.294v-44.438c.001-2.457-1.99-4.447-4.446-4.447z" fill="#caccd1"/><path d="m41.107 67.776h-26.663v-44.443h26.664c2.456 0 4.446 1.99 4.446 4.447v44.438c0-2.45-1.991-4.442-4.447-4.442z" style="fill:none;stroke:#335c5f;stroke-width:1.5;stroke-linecap:round;stroke-linejoin:round;stroke-miterlimit:10"/><path d="m73.335 30.557h3.331v3.333h-3.331z" fill="#caccd1"/><path d="m73.335 37.224h3.331v9.999h-3.331z" fill="#caccd1"/><path d="m73.335 23.333h3.331v3.89h-3.331z" fill="#caccd1"/><path d="m73.335 50.558h3.331v3.331h-3.331z" fill="#caccd1"/><path d="m73.335 63.891h3.331v3.886h-3.331z" fill="#caccd1"/><path d="m73.335 57.225h3.331v3.331h-3.331z" fill="#caccd1"/><path d="m76.666 33.89v-3.333h-13.337v-3.334h13.337v-3.89h-26.665c-2.451 0-4.447 1.99-4.447 4.447v44.438c0-2.45 1.997-4.441 4.447-4.441h26.665v-3.886h-22.222v-3.335h22.222v-3.331h-17.777v-3.336h17.777v-3.331h-8.893v-3.335h8.893v-9.999h-4.449v-3.334z" style="fill:none;stroke:#335c5f;stroke-width:1.5;stroke-linecap:round;stroke-linejoin:round;stroke-miterlimit:10"/><path d="m87.775 27.223h2.221v3.334h-2.221z" fill="#d8c26f"/><path d="m65.552 33.89h2.222v3.334h-2.222z" fill="#d8c26f"/><path d="m83.329 33.89h2.221v3.334h-2.221z" fill="#d8c26f"/><path d="m56.664 40.557h2.223v3.334h-2.223z" fill="#d8c26f"/><path d="m70.001 40.557h2.222v3.334h-2.222z" fill="#d8c26f"/><path d="m87.777 40.557h2.223v3.334h-2.223z" fill="#d8c26f"/><g stroke="#335c5f" stroke-linecap="round" stroke-linejoin="round" stroke-miterlimit="10" stroke-width="1.5"><path d="m63.329 27.223h26.667v3.334h-26.667z" fill="none"/><path d="m54.441 33.89h13.332v3.334h-13.332z" fill="none"/><path d="m72.217 33.89h13.333v3.334h-13.333z" fill="none"/><path d="m54.444 40.557h4.442v3.334h-4.442z" fill="none"/><path d="m63.333 40.557h8.89v3.334h-8.89z" fill="none"/><path d="m76.666 40.557h13.334v3.334h-13.334z" fill="none"/><path d="m54.444 47.223h8.885v3.335h-8.885z" fill="none"/><path d="m67.773 47.223h17.776v3.335h-17.776z" fill="none"/><path d="m50.001 53.889h4.443v3.336h-4.443z" fill="none"/><path d="m58.889 53.889h22.222v3.336h-22.222z" fill="none"/><path d="m85.553 53.889h4.443v3.336h-4.443z" fill="none"/><path d="m54.444 60.556h31.108v3.335h-31.108z" fill="none"/><path d="m81.106 63.891h-4.44v3.886h-26.665c-2.451 0-4.447 1.991-4.447 4.441 0-2.45-1.991-4.441-4.446-4.441h-26.664v-39.997h-4.444v44.438h31.107l-.002.005c0 2.451 1.99 4.444 4.443 4.444h.009c2.459 0 4.446-1.993 4.446-4.444l-.002-.005h31.105z" fill="none"/><path d="m76.666 57.225h4.44v3.331h-4.44z" fill="none"/><path d="m76.666 50.558h4.44v3.331h-4.44z" fill="none"/><path d="m76.666 43.891h4.44v3.332h-4.44z" fill="none"/><path d="m76.666 37.224h4.44v3.333h-4.44z" fill="none"/><path d="m76.666 30.557h4.44v3.333h-4.44z" fill="none"/><path d="m50.001 27.223h8.886v3.334h-8.886z" fill="#fadf7e"/></g><path d="m56.664 27.223h2.223v3.334h-2.223z" fill="#d8c26f"/><path d="m50.001 27.223h8.886v3.334h-8.886z" style="fill:none;stroke:#335c5f;stroke-width:1.5;stroke-linecap:round;stroke-linejoin:round;stroke-miterlimit:10"/></svg>