<svg xmlns="http://www.w3.org/2000/svg" xmlns:xlink="http://www.w3.org/1999/xlink" width="500" zoomAndPan="magnify" viewBox="0 0 375 374.999991" height="500" preserveAspectRatio="xMidYMid meet" version="1.0"><defs><g/><clipPath id="350c9f6d56"><path d="M 44 171.679688 L 330 171.679688 L 330 202 L 44 202 Z M 44 171.679688 " clip-rule="nonzero"/></clipPath></defs><rect x="-37.5" width="450" fill="#ffffff" y="-37.499999" height="449.999989" fill-opacity="1"/><rect x="-37.5" width="450" fill="#ffffff" y="-37.499999" height="449.999989" fill-opacity="1"/><rect x="-37.5" width="450" fill="#003d5b" y="-37.499999" height="449.999989" fill-opacity="1"/><g clip-path="url(#350c9f6d56)"><path fill="#00798c" d="M 187.765625 200.816406 C 166.074219 200.488281 110.136719 199.644531 89.128906 199.1875 L 56.242188 198.4375 C 49.667969 198.289062 44.4375 192.851562 44.605469 186.3125 C 44.753906 179.957031 49.925781 174.882812 56.242188 174.738281 L 89.128906 173.988281 C 140.039062 173.179688 202.828125 171.714844 253.519531 171.679688 C 275.429688 171.878906 297.359375 172.339844 319.269531 175.046875 C 325.679688 175.835938 330.207031 181.640625 329.417969 188.015625 C 328.734375 193.398438 324.445312 197.464844 319.269531 198.105469 C 275.503906 203.160156 231.660156 201.273438 187.765625 200.816406 Z M 187.765625 200.816406 " fill-opacity="1" fill-rule="nonzero"/></g><g fill="#00798c" fill-opacity="1"><g transform="translate(37.500002, 155.168019)"><g><path d="M 19.21875 -68.433594 L 18.382812 -68.339844 L 14.949219 -68.339844 L 14.761719 -67.6875 L 14.207031 -64.902344 L 13.835938 -64.347656 L 8.820312 -51.8125 L 9.285156 -50.789062 L 7.613281 -49.582031 L 2.601562 -37.417969 L 1.855469 -36.957031 L 2.042969 -31.105469 L 4.269531 -26.371094 L 7.613281 -18.476562 L 10.398438 -12.722656 L 11.421875 -12.722656 L 11.140625 -11.140625 L 14.390625 -3.0625 L 14.484375 0 L 22.933594 0.09375 L 23.121094 -0.929688 L 24.234375 -3.898438 L 29.25 -15.785156 L 31.382812 -20.242188 L 31.476562 -21.726562 L 32.21875 -22.65625 L 36.769531 -31.847656 L 37.046875 -36.957031 L 33.890625 -43.828125 L 31.382812 -49.398438 L 30.457031 -49.398438 L 29.992188 -51.90625 L 25.253906 -63.511719 L 23.398438 -68.617188 Z M 19.40625 -11.792969 L 15.320312 -22.46875 L 13.464844 -26.277344 L 11.605469 -27.578125 L 12.535156 -28.691406 L 11.699219 -31.382812 L 10.492188 -34.449219 L 10.398438 -35.5625 L 13.464844 -43.546875 L 12.8125 -45.035156 L 14.113281 -45.40625 L 19.21875 -58.867188 L 19.777344 -57.105469 L 21.914062 -51.441406 L 23.585938 -50.417969 L 22.75 -49.304688 L 26.371094 -39.925781 L 27.484375 -36.769531 L 28.226562 -34.449219 L 23.675781 -23.304688 L 23.769531 -21.632812 L 23.863281 -21.632812 L 22.75 -20.519531 L 19.777344 -10.769531 Z M 19.40625 -11.792969 "/></g></g></g><g fill="#00798c" fill-opacity="1"><g transform="translate(76.12653, 155.168019)"><g><path d="M 21.632812 -8.820312 L 24.882812 -15.414062 L 34.449219 -30.085938 L 36.121094 -32.871094 L 36.027344 -39.648438 L 34.355469 -41.785156 L 34.449219 -41.597656 L 27.390625 -50.976562 L 24.976562 -55.246094 L 21.726562 -58.496094 L 20.707031 -61.5625 L 14.949219 -69.453125 L 10.027344 -67.96875 L 6.035156 -66.761719 L 6.128906 -63.324219 L 6.40625 -58.496094 L 7.335938 -57.289062 L 6.40625 -55.527344 L 6.5 -31.199219 L 7.058594 -27.578125 L 6.5 -6.777344 L 6.5 -6.871094 L 6.3125 -0.648438 L 12.347656 0.1875 L 15.414062 1.019531 Z M 14.761719 -43.546875 L 14.484375 -57.011719 L 15.042969 -56.359375 L 24.234375 -41.597656 L 26.089844 -40.113281 L 26.460938 -37.882812 L 28.132812 -35.375 L 26.460938 -32.683594 L 23.398438 -27.578125 L 19.5 -20.054688 L 20.242188 -19.21875 L 18.570312 -18.382812 L 14.484375 -11.792969 L 14.390625 -11.605469 L 14.484375 -16.621094 L 14.855469 -35.003906 L 13.371094 -39.371094 Z M 14.761719 -43.546875 "/></g></g></g><g fill="#00798c" fill-opacity="1"><g transform="translate(112.895997, 155.168019)"><g><path d="M 7.707031 -40.390625 L 7.429688 -35.285156 L 7.148438 -32.40625 L 7.148438 -11.699219 L 8.265625 -10.121094 L 7.148438 -8.265625 L 5.851562 0 L 10.121094 0.09375 L 12.070312 0.1875 L 16.15625 -1.113281 L 16.25 -4.550781 L 16.0625 -6.3125 L 15.878906 -7.707031 L 15.878906 -33.425781 L 14.855469 -34.078125 L 15.691406 -36.027344 L 15.507812 -38.347656 L 15.136719 -41.96875 L 15.414062 -46.703125 L 15.691406 -58.867188 L 16.15625 -61.191406 L 16.621094 -67.96875 L 10.585938 -68.339844 L 6.222656 -68.0625 L 6.683594 -63.417969 L 7.519531 -62.953125 L 6.777344 -61.28125 L 7.058594 -42.710938 Z M 7.707031 -40.390625 "/></g></g></g><g fill="#00798c" fill-opacity="1"><g transform="translate(135.366236, 155.168019)"><g><path d="M 37.046875 -8.171875 L 37.046875 -11.140625 L 36.398438 -31.476562 L 35.375 -34.542969 L 36.121094 -38.441406 L 37.046875 -61.28125 L 37.234375 -67.597656 L 33.425781 -68.246094 L 28.042969 -68.152344 L 28.042969 -60.726562 L 28.96875 -59.425781 L 28.042969 -56.546875 L 28.042969 -48.5625 L 24.976562 -53.574219 L 24.234375 -53.945312 L 21.914062 -57.660156 L 13.554688 -69.175781 L 6.222656 -67.132812 L 6.222656 -62.304688 L 6.59375 -52.648438 L 6.964844 -47.355469 L 6.59375 -28.042969 L 7.429688 -26.183594 L 6.683594 -23.492188 L 6.128906 -10.304688 L 6.128906 -8.726562 L 6.40625 -7.890625 L 5.757812 -0.464844 L 9.75 0.277344 L 15.226562 0.09375 L 15.414062 -5.851562 L 15.136719 -7.148438 L 15.226562 -16.804688 L 14.390625 -20.335938 L 14.855469 -23.675781 L 15.042969 -44.847656 L 13.929688 -46.054688 L 13.835938 -46.242188 L 15.136719 -49.582031 L 15.136719 -54.597656 L 17.550781 -51.253906 L 21.355469 -45.960938 L 24.046875 -42.710938 L 25.347656 -40.667969 L 26.648438 -39.277344 L 28.132812 -36.769531 L 28.226562 -27.113281 L 28.503906 -25.347656 L 28.226562 -24.882812 L 28.132812 -15.96875 L 28.226562 -7.148438 L 28.132812 0.09375 L 31.292969 0.277344 L 36.398438 0.1875 L 37.605469 -2.972656 Z M 37.046875 -8.171875 "/></g></g></g><g fill="#00798c" fill-opacity="1"><g transform="translate(178.635354, 155.168019)"><g><path d="M 21.355469 -4.179688 L 24.605469 -6.777344 L 27.296875 -10.121094 L 31.105469 -12.8125 L 34.726562 -16.527344 L 34.820312 -20.800781 L 34.726562 -22.75 L 24.976562 -32.035156 L 23.957031 -32.960938 L 22.5625 -34.167969 L 21.914062 -34.726562 L 26.554688 -40.113281 L 32.035156 -46.054688 L 32.683594 -51.53125 L 32.3125 -53.390625 L 26 -58.402344 L 13.742188 -69.269531 L 5.941406 -67.039062 L 6.128906 -61.746094 L 6.40625 -60.355469 L 7.335938 -59.425781 L 6.3125 -56.640625 L 6.40625 -45.960938 L 6.777344 -36.027344 L 6.222656 -31.753906 L 6.222656 -17.828125 L 6.59375 -13.464844 L 5.851562 -0.835938 L 10.957031 0.09375 L 14.855469 1.300781 Z M 15.597656 -31.292969 L 19.777344 -27.578125 L 22.007812 -25.253906 L 23.304688 -24.046875 L 26.648438 -19.871094 L 23.121094 -15.96875 L 22.007812 -15.226562 L 19.5 -13.09375 L 14.761719 -8.078125 L 14.855469 -13.742188 L 13.929688 -14.671875 L 14.761719 -15.414062 L 14.761719 -31.847656 Z M 14.207031 -45.496094 L 14.484375 -50.324219 L 14.390625 -58.496094 L 20.707031 -52.925781 L 21.449219 -52.832031 L 21.914062 -51.71875 L 24.792969 -49.117188 L 24.699219 -49.117188 L 21.449219 -45.589844 L 21.078125 -43.269531 L 19.683594 -43.082031 L 15.136719 -38.164062 L 14.390625 -37.605469 Z M 14.207031 -45.496094 "/></g></g></g><g fill="#00798c" fill-opacity="1"><g transform="translate(215.033414, 155.168019)"><g><path d="M 19.21875 -68.433594 L 18.382812 -68.339844 L 14.949219 -68.339844 L 14.761719 -67.6875 L 14.207031 -64.902344 L 13.835938 -64.347656 L 8.820312 -51.8125 L 9.285156 -50.789062 L 7.613281 -49.582031 L 2.601562 -37.417969 L 1.855469 -36.957031 L 2.042969 -31.105469 L 4.269531 -26.371094 L 7.613281 -18.476562 L 10.398438 -12.722656 L 11.421875 -12.722656 L 11.140625 -11.140625 L 14.390625 -3.0625 L 14.484375 0 L 22.933594 0.09375 L 23.121094 -0.929688 L 24.234375 -3.898438 L 29.25 -15.785156 L 31.382812 -20.242188 L 31.476562 -21.726562 L 32.21875 -22.65625 L 36.769531 -31.847656 L 37.046875 -36.957031 L 33.890625 -43.828125 L 31.382812 -49.398438 L 30.457031 -49.398438 L 29.992188 -51.90625 L 25.253906 -63.511719 L 23.398438 -68.617188 Z M 19.40625 -11.792969 L 15.320312 -22.46875 L 13.464844 -26.277344 L 11.605469 -27.578125 L 12.535156 -28.691406 L 11.699219 -31.382812 L 10.492188 -34.449219 L 10.398438 -35.5625 L 13.464844 -43.546875 L 12.8125 -45.035156 L 14.113281 -45.40625 L 19.21875 -58.867188 L 19.777344 -57.105469 L 21.914062 -51.441406 L 23.585938 -50.417969 L 22.75 -49.304688 L 26.371094 -39.925781 L 27.484375 -36.769531 L 28.226562 -34.449219 L 23.675781 -23.304688 L 23.769531 -21.632812 L 23.863281 -21.632812 L 22.75 -20.519531 L 19.777344 -10.769531 Z M 19.40625 -11.792969 "/></g></g></g><g fill="#00798c" fill-opacity="1"><g transform="translate(253.659942, 155.168019)"><g><path d="M 19.21875 -68.433594 L 18.382812 -68.339844 L 14.949219 -68.339844 L 14.761719 -67.6875 L 14.207031 -64.902344 L 13.835938 -64.347656 L 8.820312 -51.8125 L 9.285156 -50.789062 L 7.613281 -49.582031 L 2.601562 -37.417969 L 1.855469 -36.957031 L 2.042969 -31.105469 L 4.269531 -26.371094 L 7.613281 -18.476562 L 10.398438 -12.722656 L 11.421875 -12.722656 L 11.140625 -11.140625 L 14.390625 -3.0625 L 14.484375 0 L 22.933594 0.09375 L 23.121094 -0.929688 L 24.234375 -3.898438 L 29.25 -15.785156 L 31.382812 -20.242188 L 31.476562 -21.726562 L 32.21875 -22.65625 L 36.769531 -31.847656 L 37.046875 -36.957031 L 33.890625 -43.828125 L 31.382812 -49.398438 L 30.457031 -49.398438 L 29.992188 -51.90625 L 25.253906 -63.511719 L 23.398438 -68.617188 Z M 19.40625 -11.792969 L 15.320312 -22.46875 L 13.464844 -26.277344 L 11.605469 -27.578125 L 12.535156 -28.691406 L 11.699219 -31.382812 L 10.492188 -34.449219 L 10.398438 -35.5625 L 13.464844 -43.546875 L 12.8125 -45.035156 L 14.113281 -45.40625 L 19.21875 -58.867188 L 19.777344 -57.105469 L 21.914062 -51.441406 L 23.585938 -50.417969 L 22.75 -49.304688 L 26.371094 -39.925781 L 27.484375 -36.769531 L 28.226562 -34.449219 L 23.675781 -23.304688 L 23.769531 -21.632812 L 23.863281 -21.632812 L 22.75 -20.519531 L 19.777344 -10.769531 Z M 19.40625 -11.792969 "/></g></g></g><g fill="#00798c" fill-opacity="1"><g transform="translate(292.28647, 155.168019)"><g><path d="M 5.476562 -67.78125 L 6.5 -61.191406 L 6.3125 -53.761719 L 6.777344 -42.0625 L 7.613281 -37.046875 L 7.058594 -16.992188 L 7.058594 -16.433594 L 6.871094 -14.949219 L 7.984375 -13.648438 L 6.40625 -9.933594 L 6.5 -9.5625 L 6.222656 -9.472656 L 6.128906 0.1875 L 11.050781 0.277344 L 15.96875 0.09375 L 16.0625 -4.644531 L 15.691406 -6.40625 L 15.597656 -7.429688 L 15.507812 -11.976562 L 15.136719 -16.433594 L 15.136719 -31.664062 L 18.847656 -23.957031 L 18.757812 -23.769531 L 21.914062 -18.664062 L 21.449219 -17.457031 L 26.371094 -6.40625 L 29.0625 0.464844 L 31.382812 0.558594 L 38.070312 -3.15625 L 35.375 -9.191406 L 34.078125 -9.472656 L 34.542969 -10.769531 L 31.382812 -16.0625 L 28.132812 -23.214844 L 22.65625 -35.75 L 22.191406 -36.492188 L 28.878906 -49.210938 L 28.597656 -49.488281 L 28.878906 -49.953125 L 34.542969 -59.332031 L 37.234375 -64.253906 L 34.355469 -66.480469 L 28.691406 -68.710938 L 25.8125 -61.933594 L 26.183594 -59.609375 L 23.585938 -57.011719 L 22.007812 -53.019531 L 18.292969 -44.105469 L 16.714844 -41.597656 L 15.320312 -37.976562 L 15.042969 -37.234375 L 15.042969 -40.019531 L 14.855469 -44.476562 L 15.785156 -67.503906 L 12.257812 -68.710938 Z M 5.476562 -67.78125 "/></g></g></g><g fill="#ffffff" fill-opacity="1"><g transform="translate(43.952356, 154.683494)"><g><path d="M 22.191406 -68.800781 L 18.847656 -68.523438 L 17.828125 -68.335938 L 17.269531 -66.667969 L 16.804688 -65.738281 L 10.957031 -52.367188 L 10.863281 -52.089844 L 10.863281 -51.625 L 10.769531 -50.789062 L 9.46875 -49.488281 L 3.808594 -36.488281 L 2.972656 -35.5625 L 3.527344 -32.3125 L 5.941406 -26.925781 L 7.707031 -22.75 L 9.5625 -18.664062 L 11.605469 -13.925781 L 13 -13.925781 L 13.371094 -10.214844 L 17.269531 -1.484375 L 17.457031 0.371094 L 21.355469 0.929688 L 22.097656 0.09375 L 23.121094 -2.601562 L 28.410156 -15.597656 L 32.035156 -22.933594 L 36.582031 -32.496094 L 36.863281 -36.582031 L 33.148438 -43.269531 L 31.382812 -47.816406 L 30.734375 -47.816406 L 30.082031 -48.652344 L 29.15625 -52.089844 L 23.675781 -64.53125 Z M 20.707031 -5.941406 L 20.796875 -5.941406 L 20.054688 -5.476562 L 19.871094 -5.386719 L 17.457031 -11.605469 L 14.113281 -18.847656 L 11.328125 -24.699219 L 9.007812 -30.734375 L 8.914062 -31.011719 L 7.800781 -33.796875 L 7.429688 -34.632812 L 7.242188 -35.003906 L 7.335938 -35.746094 L 7.335938 -36.210938 L 7.429688 -36.582031 L 10.863281 -44.753906 L 11.140625 -47.351562 L 11.050781 -47.351562 L 12.257812 -48.1875 L 18.105469 -59.238281 L 19.5 -62.300781 L 19.589844 -62.953125 L 19.683594 -63.136719 L 20.242188 -62.671875 L 23.121094 -56.546875 L 23.675781 -56.453125 L 24.046875 -56.453125 L 23.492188 -55.246094 L 29.527344 -41.316406 L 30.453125 -39.648438 L 30.828125 -38.71875 L 31.570312 -38.070312 L 32.125 -35.375 L 32.496094 -34.261719 L 28.132812 -21.726562 L 27.484375 -19.3125 L 25.996094 -18.105469 Z M 20.707031 -5.941406 "/></g></g></g><g fill="#ffffff" fill-opacity="1"><g transform="translate(83.226931, 154.683494)"><g><path d="M 19.035156 -8.355469 L 22.375 -14.761719 L 27.855469 -23.121094 L 27.578125 -23.582031 L 27.390625 -24.140625 L 27.296875 -24.140625 L 28.785156 -24.882812 L 33.054688 -30.828125 L 34.355469 -33.054688 L 34.355469 -37.882812 L 33.148438 -38.996094 L 24.605469 -50.601562 L 21.167969 -54.222656 L 20.890625 -56.082031 L 18.292969 -59.796875 L 17.085938 -61.1875 L 16.804688 -61.464844 L 15.96875 -63.136719 L 13 -66.851562 L 11.050781 -69.453125 L 9.65625 -68.800781 L 6.871094 -67.964844 L 6.964844 -65.921875 L 7.148438 -60.816406 L 7.800781 -59.515625 L 7.519531 -57.011719 L 7.890625 -31.011719 L 8.261719 -27.203125 L 7.890625 -4.640625 L 7.519531 0.1875 L 9.46875 0.277344 L 11.421875 0.371094 L 12.628906 0.835938 Z M 11.792969 -44.847656 L 11.699219 -52.925781 L 11.328125 -59.515625 L 11.234375 -61.28125 L 11.140625 -62.582031 L 17.269531 -54.132812 L 22.65625 -46.609375 L 25.8125 -42.988281 L 28.320312 -38.902344 L 29.0625 -37.695312 L 30.082031 -36.210938 L 30.828125 -34.632812 L 29.15625 -31.105469 L 25.441406 -25.71875 L 20.335938 -17.085938 L 18.941406 -15.414062 L 16.714844 -11.792969 L 15.226562 -9.933594 L 12.164062 -5.386719 L 11.976562 -5.292969 L 11.792969 -6.40625 L 11.421875 -11.050781 L 11.328125 -14.019531 L 11.234375 -15.96875 L 11.976562 -35.003906 L 11.421875 -38.71875 L 10.957031 -42.617188 Z M 11.792969 -44.847656 "/></g></g></g><g fill="#ffffff" fill-opacity="1"><g transform="translate(119.251843, 154.683494)"><g><path d="M 8.820312 -40.761719 L 8.449219 -35.097656 L 8.171875 -31.941406 L 8.171875 -5.941406 L 7.335938 0 L 8.820312 0.09375 L 10.585938 0.1875 L 12.628906 -0.371094 L 12.8125 -1.949219 L 12.441406 -3.808594 L 12.257812 -5.757812 L 12.257812 -33.332031 L 12.164062 -33.796875 L 12.070312 -35.5625 L 11.886719 -38.253906 L 11.511719 -42.804688 L 11.792969 -47.816406 L 12.070312 -60.816406 L 12.535156 -63.507812 L 12.8125 -68.246094 L 9.097656 -68.988281 L 7.429688 -68.523438 L 7.707031 -65.921875 L 8.078125 -43.730469 Z M 8.820312 -40.761719 "/></g></g></g><g fill="#ffffff" fill-opacity="1"><g transform="translate(139.399794, 154.683494)"><g><path d="M 35.5625 -5.847656 L 35.746094 -9.378906 L 34.910156 -31.199219 L 34.632812 -38.71875 L 35.746094 -63.417969 L 35.933594 -67.875 L 34.074219 -68.246094 L 30.828125 -68.152344 L 30.917969 -62.671875 L 31.660156 -61.464844 L 31.753906 -61.464844 L 30.828125 -61.1875 L 31.011719 -58.125 L 31.105469 -51.253906 L 31.382812 -44.195312 L 31.011719 -43.640625 L 30.734375 -43.640625 L 23.675781 -53.296875 L 22.839844 -53.851562 L 20.335938 -58.21875 L 12.164062 -69.171875 L 7.800781 -67.964844 L 7.800781 -64.808594 L 8.261719 -60.445312 L 8.449219 -54.410156 L 8.726562 -48.28125 L 8.449219 -28.039062 L 9.007812 -26.554688 L 9.378906 -25.90625 L 8.542969 -22.375 L 8.261719 -15.96875 L 7.890625 -8.449219 L 7.890625 -6.40625 L 7.984375 -5.292969 L 7.519531 0.09375 L 9.84375 0.464844 L 12.8125 0.277344 L 13 -3.433594 L 12.8125 -4.921875 L 12.8125 -15.507812 L 12.441406 -19.035156 L 12.070312 -22.65625 L 12.257812 -45.03125 L 11.605469 -46.519531 L 11.511719 -46.796875 L 12.347656 -52.644531 L 12.347656 -61.09375 L 12.441406 -61.652344 L 12.71875 -61.839844 L 14.207031 -60.445312 L 16.527344 -57.472656 L 17.363281 -56.453125 L 19.589844 -53.667969 L 23.492188 -48.1875 L 26.460938 -44.289062 L 27.855469 -41.78125 L 29.0625 -39.183594 L 31.289062 -34.632812 L 31.382812 -26.554688 L 31.847656 -24.328125 L 32.3125 -22.191406 L 31.476562 -22.003906 L 31.199219 -14.578125 L 31.476562 -9.191406 L 31.476562 -5.105469 L 31.199219 0.277344 L 32.125 0.464844 L 35.746094 0.371094 L 36.210938 -0.558594 Z M 35.5625 -5.847656 "/></g></g></g><g fill="#ffffff" fill-opacity="1"><g transform="translate(182.945361, 154.683494)"><g><path d="M 19.5 -4.363281 L 20.984375 -5.664062 L 22.5625 -7.054688 L 25.996094 -9.65625 L 29.898438 -12.90625 L 33.332031 -16.621094 L 33.984375 -20.890625 L 33.148438 -21.820312 L 23.769531 -30.082031 L 21.632812 -31.847656 L 18.570312 -34.632812 L 18.292969 -35.003906 L 26.371094 -42.339844 L 31.847656 -48.375 L 32.125 -52.460938 L 31.199219 -53.203125 L 25.070312 -58.21875 L 12.628906 -69.542969 L 7.242188 -67.410156 L 7.429688 -63.972656 L 7.613281 -62.859375 L 7.890625 -61.746094 L 7.613281 -58.03125 L 7.984375 -46.980469 L 8.355469 -36.210938 L 7.800781 -31.289062 L 7.800781 -16.714844 L 8.171875 -11.886719 L 7.335938 -0.09375 L 10.304688 0.558594 L 13.371094 1.394531 Z M 16.804688 -31.105469 L 23.121094 -25.535156 L 25.625 -23.027344 L 27.761719 -20.796875 L 29.710938 -18.753906 L 28.785156 -17.640625 L 28.410156 -16.804688 L 24.882812 -12.90625 L 23.398438 -12.070312 L 20.707031 -9.191406 L 12.71875 -3.15625 L 12.628906 -3.15625 L 12.070312 -6.128906 L 12.164062 -12.628906 L 11.234375 -15.320312 L 12.070312 -15.878906 L 11.976562 -28.226562 L 11.605469 -33.054688 L 12.070312 -39.738281 L 11.511719 -40.855469 L 11.421875 -43.640625 L 11.328125 -46.519531 L 11.699219 -51.808594 L 11.699219 -57.84375 L 11.792969 -63.972656 L 11.886719 -64.625 L 12.070312 -64.625 L 22.285156 -55.617188 L 24.511719 -53.390625 L 28.132812 -50.230469 L 28.132812 -49.859375 L 24.417969 -45.867188 L 23.121094 -43.453125 L 22.003906 -43.359375 L 14.390625 -36.210938 L 14.207031 -33.054688 Z M 16.804688 -31.105469 "/></g></g></g><g fill="#ffffff" fill-opacity="1"><g transform="translate(219.341656, 154.683494)"><g><path d="M 22.191406 -68.800781 L 18.847656 -68.523438 L 17.828125 -68.335938 L 17.269531 -66.667969 L 16.804688 -65.738281 L 10.957031 -52.367188 L 10.863281 -52.089844 L 10.863281 -51.625 L 10.769531 -50.789062 L 9.46875 -49.488281 L 3.808594 -36.488281 L 2.972656 -35.5625 L 3.527344 -32.3125 L 5.941406 -26.925781 L 7.707031 -22.75 L 9.5625 -18.664062 L 11.605469 -13.925781 L 13 -13.925781 L 13.371094 -10.214844 L 17.269531 -1.484375 L 17.457031 0.371094 L 21.355469 0.929688 L 22.097656 0.09375 L 23.121094 -2.601562 L 28.410156 -15.597656 L 32.035156 -22.933594 L 36.582031 -32.496094 L 36.863281 -36.582031 L 33.148438 -43.269531 L 31.382812 -47.816406 L 30.734375 -47.816406 L 30.082031 -48.652344 L 29.15625 -52.089844 L 23.675781 -64.53125 Z M 20.707031 -5.941406 L 20.796875 -5.941406 L 20.054688 -5.476562 L 19.871094 -5.386719 L 17.457031 -11.605469 L 14.113281 -18.847656 L 11.328125 -24.699219 L 9.007812 -30.734375 L 8.914062 -31.011719 L 7.800781 -33.796875 L 7.429688 -34.632812 L 7.242188 -35.003906 L 7.335938 -35.746094 L 7.335938 -36.210938 L 7.429688 -36.582031 L 10.863281 -44.753906 L 11.140625 -47.351562 L 11.050781 -47.351562 L 12.257812 -48.1875 L 18.105469 -59.238281 L 19.5 -62.300781 L 19.589844 -62.953125 L 19.683594 -63.136719 L 20.242188 -62.671875 L 23.121094 -56.546875 L 23.675781 -56.453125 L 24.046875 -56.453125 L 23.492188 -55.246094 L 29.527344 -41.316406 L 30.453125 -39.648438 L 30.828125 -38.71875 L 31.570312 -38.070312 L 32.125 -35.375 L 32.496094 -34.261719 L 28.132812 -21.726562 L 27.484375 -19.3125 L 25.996094 -18.105469 Z M 20.707031 -5.941406 "/></g></g></g><g fill="#ffffff" fill-opacity="1"><g transform="translate(258.616221, 154.683494)"><g><path d="M 22.191406 -68.800781 L 18.847656 -68.523438 L 17.828125 -68.335938 L 17.269531 -66.667969 L 16.804688 -65.738281 L 10.957031 -52.367188 L 10.863281 -52.089844 L 10.863281 -51.625 L 10.769531 -50.789062 L 9.46875 -49.488281 L 3.808594 -36.488281 L 2.972656 -35.5625 L 3.527344 -32.3125 L 5.941406 -26.925781 L 7.707031 -22.75 L 9.5625 -18.664062 L 11.605469 -13.925781 L 13 -13.925781 L 13.371094 -10.214844 L 17.269531 -1.484375 L 17.457031 0.371094 L 21.355469 0.929688 L 22.097656 0.09375 L 23.121094 -2.601562 L 28.410156 -15.597656 L 32.035156 -22.933594 L 36.582031 -32.496094 L 36.863281 -36.582031 L 33.148438 -43.269531 L 31.382812 -47.816406 L 30.734375 -47.816406 L 30.082031 -48.652344 L 29.15625 -52.089844 L 23.675781 -64.53125 Z M 20.707031 -5.941406 L 20.796875 -5.941406 L 20.054688 -5.476562 L 19.871094 -5.386719 L 17.457031 -11.605469 L 14.113281 -18.847656 L 11.328125 -24.699219 L 9.007812 -30.734375 L 8.914062 -31.011719 L 7.800781 -33.796875 L 7.429688 -34.632812 L 7.242188 -35.003906 L 7.335938 -35.746094 L 7.335938 -36.210938 L 7.429688 -36.582031 L 10.863281 -44.753906 L 11.140625 -47.351562 L 11.050781 -47.351562 L 12.257812 -48.1875 L 18.105469 -59.238281 L 19.5 -62.300781 L 19.589844 -62.953125 L 19.683594 -63.136719 L 20.242188 -62.671875 L 23.121094 -56.546875 L 23.675781 -56.453125 L 24.046875 -56.453125 L 23.492188 -55.246094 L 29.527344 -41.316406 L 30.453125 -39.648438 L 30.828125 -38.71875 L 31.570312 -38.070312 L 32.125 -35.375 L 32.496094 -34.261719 L 28.132812 -21.726562 L 27.484375 -19.3125 L 25.996094 -18.105469 Z M 20.707031 -5.941406 "/></g></g></g><g fill="#ffffff" fill-opacity="1"><g transform="translate(297.890785, 154.683494)"><g><path d="M 24.234375 -21.078125 L 18.011719 -33.148438 L 16.714844 -35.097656 L 17.546875 -37.417969 L 25.253906 -50.695312 L 24.882812 -51.160156 L 25.71875 -52.089844 L 30.082031 -58.960938 L 32.683594 -62.859375 L 35.65625 -66.015625 L 34.539062 -67.222656 L 30.453125 -68.894531 L 28.132812 -62.953125 L 23.210938 -53.480469 L 17.546875 -43.824219 L 16.433594 -41.410156 L 15.414062 -40.484375 L 13.464844 -36.953125 L 12.347656 -34.261719 L 14.578125 -30.453125 L 17.828125 -24.882812 L 18.199219 -24.976562 L 18.664062 -24.976562 L 18.570312 -23.582031 L 20.984375 -19.21875 L 21.726562 -17.828125 L 21.914062 -16.433594 L 27.855469 -5.199219 L 30.363281 0.742188 L 32.125 1.019531 L 36.027344 -1.765625 L 33.242188 -5.664062 L 31.847656 -6.59375 L 31.941406 -6.59375 L 31.847656 -7.800781 L 28.320312 -13.835938 Z M 6.777344 -68.058594 L 7.148438 -65.644531 L 7.519531 -63.324219 L 7.335938 -55.339844 L 7.800781 -42.898438 L 7.984375 -40.019531 L 8.261719 -37.140625 L 7.890625 -15.226562 L 7.800781 -14.855469 L 7.707031 -13.464844 L 7.335938 -8.261719 L 8.261719 -5.941406 L 8.355469 -5.941406 L 7.054688 -5.570312 L 6.871094 0.1875 L 9.75 0.277344 L 12.347656 0.09375 L 12.441406 -2.320312 L 12.164062 -3.714844 L 11.976562 -5.292969 L 11.886719 -10.214844 L 11.511719 -15.132812 L 11.886719 -33.148438 L 10.957031 -39.832031 L 11.328125 -45.3125 L 12.441406 -68.246094 L 11.140625 -68.617188 Z M 6.777344 -68.058594 "/></g></g></g></svg>